<?xml version="1.0" encoding="UTF-8" standalone="no"?><svg xmlns="http://www.w3.org/2000/svg" xmlns:xlink="http://www.w3.org/1999/xlink" clip-rule="evenodd" stroke-miterlimit="10" viewBox="0 0 722 141"><desc>SVG generated by Keynote</desc><defs></defs><g transform="matrix(1.00, 0.00, -0.00, -1.00, 0.0, 141.0)"><text xml:space="preserve" font-family="Helvetica-Light,Helvetica" font-size="64.0" fill="#FEFFFE" transform="matrix(1.00, 0.00, -0.00, -1.00, -4.2, 91.7)">U</text><text xml:space="preserve" font-family="Helvetica-Light,Helvetica" font-size="64.0" fill="#FEFFFE" transform="matrix(1.00, 0.00, -0.00, -1.00, 42.0, 91.7)">s</text><text xml:space="preserve" font-family="Helvetica-Light,Helvetica" font-size="64.0" fill="#FEFFFE" transform="matrix(1.00, 0.00, -0.00, -1.00, 74.0, 91.7)">i</text><text xml:space="preserve" font-family="Helvetica-Light,Helvetica" font-size="64.0" fill="#FEFFFE" transform="matrix(1.00, 0.00, -0.00, -1.00, 88.2, 91.7)">n</text><text xml:space="preserve" font-family="Helvetica-Light,Helvetica" font-size="64.0" fill="#FEFFFE" transform="matrix(1.00, 0.00, -0.00, -1.00, 123.8, 91.7)">g</text><text xml:space="preserve" font-family="Helvetica-Light,Helvetica" font-size="64.0" fill="#FEFFFE" transform="matrix(1.00, 0.00, -0.00, -1.00, 162.9, 91.7)"> </text><text xml:space="preserve" font-family="Helvetica-Light,Helvetica" font-size="64.0" fill="#FEFFFE" transform="matrix(1.00, 0.00, -0.00, -1.00, 180.7, 91.7)">S</text><text xml:space="preserve" font-family="Helvetica-Light,Helvetica" font-size="64.0" fill="#FEFFFE" transform="matrix(1.00, 0.00, -0.00, -1.00, 219.8, 91.7)">e</text><text xml:space="preserve" font-family="Helvetica-Light,Helvetica" font-size="64.0" fill="#FEFFFE" transform="matrix(1.00, 0.00, -0.00, -1.00, 255.4, 91.7)">r</text><text xml:space="preserve" font-family="Helvetica-Light,Helvetica" font-size="64.0" fill="#FEFFFE" transform="matrix(1.00, 0.00, -0.00, -1.00, 276.7, 91.7)">v</text><text xml:space="preserve" font-family="Helvetica-Light,Helvetica" font-size="64.0" fill="#FEFFFE" transform="matrix(1.00, 0.00, -0.00, -1.00, 308.7, 91.7)">i</text><text xml:space="preserve" font-family="Helvetica-Light,Helvetica" font-size="64.0" fill="#FEFFFE" transform="matrix(1.00, 0.00, -0.00, -1.00, 322.9, 91.7)">c</text><text xml:space="preserve" font-family="Helvetica-Light,Helvetica" font-size="64.0" fill="#FEFFFE" transform="matrix(1.00, 0.00, -0.00, -1.00, 358.5, 91.7)">e</text><text xml:space="preserve" font-family="Helvetica-Light,Helvetica" font-size="64.0" fill="#FEFFFE" transform="matrix(1.00, 0.00, -0.00, -1.00, 394.1, 91.7)">s</text><text xml:space="preserve" font-family="Helvetica-Light,Helvetica" font-size="64.0" fill="#FEFFFE" transform="matrix(1.00, 0.00, -0.00, -1.00, 426.1, 91.7)"> </text><text xml:space="preserve" font-family="Helvetica-Light,Helvetica" font-size="64.0" fill="#FEFFFE" transform="matrix(1.00, 0.00, -0.00, -1.00, 443.9, 91.7)">t</text><text xml:space="preserve" font-family="Helvetica-Light,Helvetica" font-size="64.0" fill="#FEFFFE" transform="matrix(1.00, 0.00, -0.00, -1.00, 461.7, 91.7)">o</text><text xml:space="preserve" font-family="Helvetica-Light,Helvetica" font-size="64.0" fill="#FEFFFE" transform="matrix(1.00, 0.00, -0.00, -1.00, 497.3, 91.7)"> </text><text xml:space="preserve" font-family="Helvetica-Light,Helvetica" font-size="64.0" fill="#FEFFFE" transform="matrix(1.00, 0.00, -0.00, -1.00, 515.1, 91.7)">C</text><text xml:space="preserve" font-family="Helvetica-Light,Helvetica" font-size="64.0" fill="#FEFFFE" transform="matrix(1.00, 0.00, -0.00, -1.00, 561.3, 91.7)">o</text><text xml:space="preserve" font-family="Helvetica-Light,Helvetica" font-size="64.0" fill="#FEFFFE" transform="matrix(1.00, 0.00, -0.00, -1.00, 596.8, 91.7)">n</text><text xml:space="preserve" font-family="Helvetica-Light,Helvetica" font-size="64.0" fill="#FEFFFE" transform="matrix(1.00, 0.00, -0.00, -1.00, 632.4, 91.7)">t</text><text xml:space="preserve" font-family="Helvetica-Light,Helvetica" font-size="64.0" fill="#FEFFFE" transform="matrix(1.00, 0.00, -0.00, -1.00, 650.2, 91.7)">r</text><text xml:space="preserve" font-family="Helvetica-Light,Helvetica" font-size="64.0" fill="#FEFFFE" transform="matrix(1.00, 0.00, -0.00, -1.00, 670.4, 91.7)">o</text><text xml:space="preserve" font-family="Helvetica-Light,Helvetica" font-size="64.0" fill="#FEFFFE" transform="matrix(1.00, 0.00, -0.00, -1.00, 706.0, 91.7)">l</text><text xml:space="preserve" font-family="Helvetica-Light,Helvetica" font-size="64.0" fill="#FEFFFE" transform="matrix(1.00, 0.00, -0.00, -1.00, 720.2, 91.7)"> </text><text xml:space="preserve" font-family="Helvetica-Light,Helvetica" font-size="64.0" fill="#FEFFFE" transform="matrix(1.00, 0.00, -0.00, -1.00, 265.5, 14.7)">S</text><text xml:space="preserve" font-family="Helvetica-Light,Helvetica" font-size="64.0" fill="#FEFFFE" transform="matrix(1.00, 0.00, -0.00, -1.00, 304.6, 14.7)">c</text><text xml:space="preserve" font-family="Helvetica-Light,Helvetica" font-size="64.0" fill="#FEFFFE" transform="matrix(1.00, 0.00, -0.00, -1.00, 340.2, 14.7)">o</text><text xml:space="preserve" font-family="Helvetica-Light,Helvetica" font-size="64.0" fill="#FEFFFE" transform="matrix(1.00, 0.00, -0.00, -1.00, 375.8, 14.7)">p</text><text xml:space="preserve" font-family="Helvetica-Light,Helvetica" font-size="64.0" fill="#FEFFFE" transform="matrix(1.00, 0.00, -0.00, -1.00, 414.9, 14.7)">e</text></g></svg>