<?xml version="1.0" encoding="UTF-8" standalone="no"?><svg xmlns="http://www.w3.org/2000/svg" xmlns:xlink="http://www.w3.org/1999/xlink" clip-rule="evenodd" stroke-miterlimit="10" viewBox="0 0 932 365"><desc>SVG generated by Keynote</desc><defs></defs><g transform="matrix(1.00, 0.00, -0.00, -1.00, 0.0, 365.0)"><path d="M 1.5 362.5 L 930.5 362.5 L 930.5 1.5 L 1.5 1.5 Z M 1.6 363.0 " fill="#DCDDE0"></path><path d="M -0.1 0.5 L 928.9 0.5 L 928.9 361.5 L -0.1 361.5 Z M 0.0 0.0 " fill="none" stroke="#000000" stroke-width="1.00" transform="matrix(1.00, 0.00, 0.00, -1.00, 1.6, 363.0)"></path><g><clipPath id="clip0x6000018b1220"><path d="M -0.6 -0.3 L 932.6 -0.3 L 932.6 365.2 L -0.6 365.2 Z M -0.6 -0.3 "></path></clipPath><g clip-path="url(#clip0x6000018b1220)"><text xml:space="preserve" font-family="Courier,Courier" font-size="27.0" fill="#000000" transform="matrix(1.00, 0.00, -0.00, -1.00, 6.1, 333.1)">a</text><text xml:space="preserve" font-family="Courier,Courier" font-size="27.0" fill="#000000" transform="matrix(1.00, 0.00, -0.00, -1.00, 22.3, 333.1)">n</text><text xml:space="preserve" font-family="Courier,Courier" font-size="27.0" fill="#000000" transform="matrix(1.00, 0.00, -0.00, -1.00, 38.5, 333.1)">g</text><text xml:space="preserve" font-family="Courier,Courier" font-size="27.0" fill="#000000" transform="matrix(1.00, 0.00, -0.00, -1.00, 54.7, 333.1)">u</text><text xml:space="preserve" font-family="Courier,Courier" font-size="27.0" fill="#000000" transform="matrix(1.00, 0.00, -0.00, -1.00, 70.9, 333.1)">l</text><text xml:space="preserve" font-family="Courier,Courier" font-size="27.0" fill="#000000" transform="matrix(1.00, 0.00, -0.00, -1.00, 87.1, 333.1)">e</text><text xml:space="preserve" font-family="Courier,Courier" font-size="27.0" fill="#000000" transform="matrix(1.00, 0.00, -0.00, -1.00, 103.3, 333.1)">r</text><text xml:space="preserve" font-family="Courier,Courier" font-size="27.0" fill="#000000" transform="matrix(1.00, 0.00, -0.00, -1.00, 119.6, 333.1)">.</text><text xml:space="preserve" font-family="Courier,Courier" font-size="27.0" fill="#000000" transform="matrix(1.00, 0.00, -0.00, -1.00, 135.8, 333.1)">m</text><text xml:space="preserve" font-family="Courier,Courier" font-size="27.0" fill="#000000" transform="matrix(1.00, 0.00, -0.00, -1.00, 152.0, 333.1)">o</text><text xml:space="preserve" font-family="Courier,Courier" font-size="27.0" fill="#000000" transform="matrix(1.00, 0.00, -0.00, -1.00, 168.2, 333.1)">d</text><text xml:space="preserve" font-family="Courier,Courier" font-size="27.0" fill="#000000" transform="matrix(1.00, 0.00, -0.00, -1.00, 184.4, 333.1)">u</text><text xml:space="preserve" font-family="Courier,Courier" font-size="27.0" fill="#000000" transform="matrix(1.00, 0.00, -0.00, -1.00, 200.6, 333.1)">l</text><text xml:space="preserve" font-family="Courier,Courier" font-size="27.0" fill="#000000" transform="matrix(1.00, 0.00, -0.00, -1.00, 216.8, 333.1)">e</text><text xml:space="preserve" font-family="Courier,Courier" font-size="27.0" fill="#000000" transform="matrix(1.00, 0.00, -0.00, -1.00, 233.0, 333.1)">(</text><text xml:space="preserve" font-family="Courier,Courier" font-size="27.0" fill="#000000" transform="matrix(1.00, 0.00, -0.00, -1.00, 249.2, 333.1)">‘</text><text xml:space="preserve" font-family="Courier,Courier" font-size="27.0" fill="#000000" transform="matrix(1.00, 0.00, -0.00, -1.00, 265.4, 333.1)">M</text><text xml:space="preserve" font-family="Courier,Courier" font-size="27.0" fill="#000000" transform="matrix(1.00, 0.00, -0.00, -1.00, 281.6, 333.1)">y</text><text xml:space="preserve" font-family="Courier,Courier" font-size="27.0" fill="#000000" transform="matrix(1.00, 0.00, -0.00, -1.00, 297.8, 333.1)">A</text><text xml:space="preserve" font-family="Courier,Courier" font-size="27.0" fill="#000000" transform="matrix(1.00, 0.00, -0.00, -1.00, 314.0, 333.1)">p</text><text xml:space="preserve" font-family="Courier,Courier" font-size="27.0" fill="#000000" transform="matrix(1.00, 0.00, -0.00, -1.00, 330.2, 333.1)">p</text><text xml:space="preserve" font-family="Courier,Courier" font-size="27.0" fill="#000000" transform="matrix(1.00, 0.00, -0.00, -1.00, 346.4, 333.1)">’</text><text xml:space="preserve" font-family="Courier,Courier" font-size="27.0" fill="#000000" transform="matrix(1.00, 0.00, -0.00, -1.00, 362.6, 333.1)">)</text><text xml:space="preserve" font-family="Courier,Courier" font-size="27.0" fill="#000000" transform="matrix(1.00, 0.00, -0.00, -1.00, 6.1, 301.1)"> </text><text xml:space="preserve" font-family="Courier,Courier" font-size="27.0" fill="#000000" transform="matrix(1.00, 0.00, -0.00, -1.00, 22.3, 301.1)"> </text><text xml:space="preserve" font-family="Courier,Courier" font-size="27.0" fill="#000000" transform="matrix(1.00, 0.00, -0.00, -1.00, 38.5, 301.1)">.</text><text xml:space="preserve" font-family="Courier,Courier" font-size="27.0" fill="#000000" transform="matrix(1.00, 0.00, -0.00, -1.00, 54.7, 301.1)">d</text><text xml:space="preserve" font-family="Courier,Courier" font-size="27.0" fill="#000000" transform="matrix(1.00, 0.00, -0.00, -1.00, 70.9, 301.1)">i</text><text xml:space="preserve" font-family="Courier,Courier" font-size="27.0" fill="#000000" transform="matrix(1.00, 0.00, -0.00, -1.00, 87.2, 301.1)">r</text><text xml:space="preserve" font-family="Courier,Courier" font-size="27.0" fill="#000000" transform="matrix(1.00, 0.00, -0.00, -1.00, 103.4, 301.1)">e</text><text xml:space="preserve" font-family="Courier,Courier" font-size="27.0" fill="#000000" transform="matrix(1.00, 0.00, -0.00, -1.00, 119.6, 301.1)">c</text><text xml:space="preserve" font-family="Courier,Courier" font-size="27.0" fill="#000000" transform="matrix(1.00, 0.00, -0.00, -1.00, 135.8, 301.1)">t</text><text xml:space="preserve" font-family="Courier,Courier" font-size="27.0" fill="#000000" transform="matrix(1.00, 0.00, -0.00, -1.00, 152.0, 301.1)">i</text><text xml:space="preserve" font-family="Courier,Courier" font-size="27.0" fill="#000000" transform="matrix(1.00, 0.00, -0.00, -1.00, 168.2, 301.1)">v</text><text xml:space="preserve" font-family="Courier,Courier" font-size="27.0" fill="#000000" transform="matrix(1.00, 0.00, -0.00, -1.00, 184.4, 301.1)">e</text><text xml:space="preserve" font-family="Courier,Courier" font-size="27.0" fill="#000000" transform="matrix(1.00, 0.00, -0.00, -1.00, 200.6, 301.1)">(</text><text xml:space="preserve" font-family="Courier,Courier" font-size="27.0" fill="#000000" transform="matrix(1.00, 0.00, -0.00, -1.00, 216.8, 301.1)">‘</text><text xml:space="preserve" font-family="Courier,Courier" font-size="27.0" fill="#000000" transform="matrix(1.00, 0.00, -0.00, -1.00, 233.0, 301.1)">j</text><text xml:space="preserve" font-family="Courier,Courier" font-size="27.0" fill="#000000" transform="matrix(1.00, 0.00, -0.00, -1.00, 249.2, 301.1)">h</text><text xml:space="preserve" font-family="Courier,Courier" font-size="27.0" fill="#000000" transform="matrix(1.00, 0.00, -0.00, -1.00, 265.4, 301.1)">M</text><text xml:space="preserve" font-family="Courier,Courier" font-size="27.0" fill="#000000" transform="matrix(1.00, 0.00, -0.00, -1.00, 281.6, 301.1)">y</text><text xml:space="preserve" font-family="Courier,Courier" font-size="27.0" fill="#000000" transform="matrix(1.00, 0.00, -0.00, -1.00, 297.8, 301.1)">s</text><text xml:space="preserve" font-family="Courier,Courier" font-size="27.0" fill="#000000" transform="matrix(1.00, 0.00, -0.00, -1.00, 314.0, 301.1)">u</text><text xml:space="preserve" font-family="Courier,Courier" font-size="27.0" fill="#000000" transform="matrix(1.00, 0.00, -0.00, -1.00, 330.2, 301.1)">p</text><text xml:space="preserve" font-family="Courier,Courier" font-size="27.0" fill="#000000" transform="matrix(1.00, 0.00, -0.00, -1.00, 346.4, 301.1)">e</text><text xml:space="preserve" font-family="Courier,Courier" font-size="27.0" fill="#000000" transform="matrix(1.00, 0.00, -0.00, -1.00, 362.6, 301.1)">r</text><text xml:space="preserve" font-family="Courier,Courier" font-size="27.0" fill="#000000" transform="matrix(1.00, 0.00, -0.00, -1.00, 378.8, 301.1)">d</text><text xml:space="preserve" font-family="Courier,Courier" font-size="27.0" fill="#000000" transform="matrix(1.00, 0.00, -0.00, -1.00, 395.0, 301.1)">i</text><text xml:space="preserve" font-family="Courier,Courier" font-size="27.0" fill="#000000" transform="matrix(1.00, 0.00, -0.00, -1.00, 411.2, 301.1)">r</text><text xml:space="preserve" font-family="Courier,Courier" font-size="27.0" fill="#000000" transform="matrix(1.00, 0.00, -0.00, -1.00, 427.4, 301.1)">e</text><text xml:space="preserve" font-family="Courier,Courier" font-size="27.0" fill="#000000" transform="matrix(1.00, 0.00, -0.00, -1.00, 443.6, 301.1)">c</text><text xml:space="preserve" font-family="Courier,Courier" font-size="27.0" fill="#000000" transform="matrix(1.00, 0.00, -0.00, -1.00, 459.8, 301.1)">t</text><text xml:space="preserve" font-family="Courier,Courier" font-size="27.0" fill="#000000" transform="matrix(1.00, 0.00, -0.00, -1.00, 476.0, 301.1)">i</text><text xml:space="preserve" font-family="Courier,Courier" font-size="27.0" fill="#000000" transform="matrix(1.00, 0.00, -0.00, -1.00, 492.2, 301.1)">v</text><text xml:space="preserve" font-family="Courier,Courier" font-size="27.0" fill="#000000" transform="matrix(1.00, 0.00, -0.00, -1.00, 508.4, 301.1)">e</text><text xml:space="preserve" font-family="Courier,Courier" font-size="27.0" fill="#000000" transform="matrix(1.00, 0.00, -0.00, -1.00, 524.6, 301.1)">’</text><text xml:space="preserve" font-family="Courier,Courier" font-size="27.0" fill="#000000" transform="matrix(1.00, 0.00, -0.00, -1.00, 540.8, 301.1)">,</text><text xml:space="preserve" font-family="Courier,Courier" font-size="27.0" fill="#000000" transform="matrix(1.00, 0.00, -0.00, -1.00, 557.0, 301.1)"> </text><text xml:space="preserve" font-family="Courier,Courier" font-size="27.0" fill="#000000" transform="matrix(1.00, 0.00, -0.00, -1.00, 573.2, 301.1)">f</text><text xml:space="preserve" font-family="Courier,Courier" font-size="27.0" fill="#000000" transform="matrix(1.00, 0.00, -0.00, -1.00, 589.4, 301.1)">u</text><text xml:space="preserve" font-family="Courier,Courier" font-size="27.0" fill="#000000" transform="matrix(1.00, 0.00, -0.00, -1.00, 605.6, 301.1)">n</text><text xml:space="preserve" font-family="Courier,Courier" font-size="27.0" fill="#000000" transform="matrix(1.00, 0.00, -0.00, -1.00, 621.8, 301.1)">c</text><text xml:space="preserve" font-family="Courier,Courier" font-size="27.0" fill="#000000" transform="matrix(1.00, 0.00, -0.00, -1.00, 638.0, 301.1)">t</text><text xml:space="preserve" font-family="Courier,Courier" font-size="27.0" fill="#000000" transform="matrix(1.00, 0.00, -0.00, -1.00, 654.2, 301.1)">i</text><text xml:space="preserve" font-family="Courier,Courier" font-size="27.0" fill="#000000" transform="matrix(1.00, 0.00, -0.00, -1.00, 670.4, 301.1)">o</text><text xml:space="preserve" font-family="Courier,Courier" font-size="27.0" fill="#000000" transform="matrix(1.00, 0.00, -0.00, -1.00, 686.7, 301.1)">n</text><text xml:space="preserve" font-family="Courier,Courier" font-size="27.0" fill="#000000" transform="matrix(1.00, 0.00, -0.00, -1.00, 702.9, 301.1)"> </text><text xml:space="preserve" font-family="Courier,Courier" font-size="27.0" fill="#000000" transform="matrix(1.00, 0.00, -0.00, -1.00, 719.1, 301.1)">(</text><text xml:space="preserve" font-family="Courier,Courier" font-size="27.0" fill="#000000" transform="matrix(1.00, 0.00, -0.00, -1.00, 735.3, 301.1)">$</text><text xml:space="preserve" font-family="Courier,Courier" font-size="27.0" fill="#000000" transform="matrix(1.00, 0.00, -0.00, -1.00, 751.5, 301.1)">s</text><text xml:space="preserve" font-family="Courier,Courier" font-size="27.0" fill="#000000" transform="matrix(1.00, 0.00, -0.00, -1.00, 767.7, 301.1)">c</text><text xml:space="preserve" font-family="Courier,Courier" font-size="27.0" fill="#000000" transform="matrix(1.00, 0.00, -0.00, -1.00, 783.9, 301.1)">o</text><text xml:space="preserve" font-family="Courier,Courier" font-size="27.0" fill="#000000" transform="matrix(1.00, 0.00, -0.00, -1.00, 800.1, 301.1)">p</text><text xml:space="preserve" font-family="Courier,Courier" font-size="27.0" fill="#000000" transform="matrix(1.00, 0.00, -0.00, -1.00, 816.3, 301.1)">e</text><text xml:space="preserve" font-family="Courier,Courier" font-size="27.0" fill="#000000" transform="matrix(1.00, 0.00, -0.00, -1.00, 832.5, 301.1)">)</text><text xml:space="preserve" font-family="Courier,Courier" font-size="27.0" fill="#000000" transform="matrix(1.00, 0.00, -0.00, -1.00, 848.7, 301.1)"> </text><text xml:space="preserve" font-family="Courier,Courier" font-size="27.0" fill="#000000" transform="matrix(1.00, 0.00, -0.00, -1.00, 864.9, 301.1)">{</text><text xml:space="preserve" font-family="Courier,Courier" font-size="27.0" fill="#000000" transform="matrix(1.00, 0.00, -0.00, -1.00, 6.1, 269.1)"> </text><text xml:space="preserve" font-family="Courier,Courier" font-size="27.0" fill="#000000" transform="matrix(1.00, 0.00, -0.00, -1.00, 22.3, 269.1)"> </text><text xml:space="preserve" font-family="Courier,Courier" font-size="27.0" fill="#000000" transform="matrix(1.00, 0.00, -0.00, -1.00, 38.5, 269.1)"> </text><text xml:space="preserve" font-family="Courier,Courier" font-size="27.0" fill="#000000" transform="matrix(1.00, 0.00, -0.00, -1.00, 54.7, 269.1)"> </text><text xml:space="preserve" font-family="Courier,Courier" font-size="27.0" fill="#000000" transform="matrix(1.00, 0.00, -0.00, -1.00, 71.0, 269.1)">r</text><text xml:space="preserve" font-family="Courier,Courier" font-size="27.0" fill="#000000" transform="matrix(1.00, 0.00, -0.00, -1.00, 87.2, 269.1)">e</text><text xml:space="preserve" font-family="Courier,Courier" font-size="27.0" fill="#000000" transform="matrix(1.00, 0.00, -0.00, -1.00, 103.4, 269.1)">t</text><text xml:space="preserve" font-family="Courier,Courier" font-size="27.0" fill="#000000" transform="matrix(1.00, 0.00, -0.00, -1.00, 119.6, 269.1)">u</text><text xml:space="preserve" font-family="Courier,Courier" font-size="27.0" fill="#000000" transform="matrix(1.00, 0.00, -0.00, -1.00, 135.8, 269.1)">r</text><text xml:space="preserve" font-family="Courier,Courier" font-size="27.0" fill="#000000" transform="matrix(1.00, 0.00, -0.00, -1.00, 152.0, 269.1)">n</text><text xml:space="preserve" font-family="Courier,Courier" font-size="27.0" fill="#000000" transform="matrix(1.00, 0.00, -0.00, -1.00, 168.2, 269.1)"> </text><text xml:space="preserve" font-family="Courier,Courier" font-size="27.0" fill="#000000" transform="matrix(1.00, 0.00, -0.00, -1.00, 184.4, 269.1)">{</text><text xml:space="preserve" font-family="Courier,Courier" font-size="27.0" fill="#000000" transform="matrix(1.00, 0.00, -0.00, -1.00, 6.1, 237.1)"> </text><text xml:space="preserve" font-family="Courier,Courier" font-size="27.0" fill="#000000" transform="matrix(1.00, 0.00, -0.00, -1.00, 22.3, 237.1)"> </text><text xml:space="preserve" font-family="Courier,Courier" font-size="27.0" fill="#000000" transform="matrix(1.00, 0.00, -0.00, -1.00, 38.5, 237.1)"> </text><text xml:space="preserve" font-family="Courier,Courier" font-size="27.0" fill="#000000" transform="matrix(1.00, 0.00, -0.00, -1.00, 54.7, 237.1)"> </text><text xml:space="preserve" font-family="Courier,Courier" font-size="27.0" fill="#000000" transform="matrix(1.00, 0.00, -0.00, -1.00, 71.0, 237.1)"> </text><text xml:space="preserve" font-family="Courier,Courier" font-size="27.0" fill="#000000" transform="matrix(1.00, 0.00, -0.00, -1.00, 87.2, 237.1)"> </text><text xml:space="preserve" font-family="Courier,Courier" font-size="27.0" fill="#000000" transform="matrix(1.00, 0.00, -0.00, -1.00, 103.4, 237.1)">s</text><text xml:space="preserve" font-family="Courier,Courier" font-size="27.0" fill="#000000" transform="matrix(1.00, 0.00, -0.00, -1.00, 119.6, 237.1)">c</text><text xml:space="preserve" font-family="Courier,Courier" font-size="27.0" fill="#000000" transform="matrix(1.00, 0.00, -0.00, -1.00, 135.8, 237.1)">o</text><text xml:space="preserve" font-family="Courier,Courier" font-size="27.0" fill="#000000" transform="matrix(1.00, 0.00, -0.00, -1.00, 152.0, 237.1)">p</text><text xml:space="preserve" font-family="Courier,Courier" font-size="27.0" fill="#000000" transform="matrix(1.00, 0.00, -0.00, -1.00, 168.2, 237.1)">e</text><text xml:space="preserve" font-family="Courier,Courier" font-size="27.0" fill="#000000" transform="matrix(1.00, 0.00, -0.00, -1.00, 184.4, 237.1)">:</text><text xml:space="preserve" font-family="Courier,Courier" font-size="27.0" fill="#000000" transform="matrix(1.00, 0.00, -0.00, -1.00, 200.6, 237.1)"> </text><text xml:space="preserve" font-family="Courier,Courier" font-size="27.0" fill="#000000" transform="matrix(1.00, 0.00, -0.00, -1.00, 216.8, 237.1)">{</text><text xml:space="preserve" font-family="Courier,Courier" font-size="27.0" fill="#000000" transform="matrix(1.00, 0.00, -0.00, -1.00, 6.1, 205.1)"> </text><text xml:space="preserve" font-family="Courier,Courier" font-size="27.0" fill="#000000" transform="matrix(1.00, 0.00, -0.00, -1.00, 22.3, 205.1)"> </text><text xml:space="preserve" font-family="Courier,Courier" font-size="27.0" fill="#000000" transform="matrix(1.00, 0.00, -0.00, -1.00, 38.5, 205.1)"> </text><text xml:space="preserve" font-family="Courier,Courier" font-size="27.0" fill="#000000" transform="matrix(1.00, 0.00, -0.00, -1.00, 54.7, 205.1)"> </text><text xml:space="preserve" font-family="Courier,Courier" font-size="27.0" fill="#000000" transform="matrix(1.00, 0.00, -0.00, -1.00, 71.0, 205.1)"> </text><text xml:space="preserve" font-family="Courier,Courier" font-size="27.0" fill="#000000" transform="matrix(1.00, 0.00, -0.00, -1.00, 87.2, 205.1)"> </text><text xml:space="preserve" font-family="Courier,Courier" font-size="27.0" fill="#000000" transform="matrix(1.00, 0.00, -0.00, -1.00, 103.4, 205.1)"> </text><text xml:space="preserve" font-family="Courier,Courier" font-size="27.0" fill="#000000" transform="matrix(1.00, 0.00, -0.00, -1.00, 119.6, 205.1)"> </text><text xml:space="preserve" font-family="Courier,Courier" font-size="27.0" fill="#000000" transform="matrix(1.00, 0.00, -0.00, -1.00, 135.8, 205.1)">m</text><text xml:space="preserve" font-family="Courier,Courier" font-size="27.0" fill="#000000" transform="matrix(1.00, 0.00, -0.00, -1.00, 152.0, 205.1)">y</text><text xml:space="preserve" font-family="Courier,Courier" font-size="27.0" fill="#000000" transform="matrix(1.00, 0.00, -0.00, -1.00, 168.2, 205.1)">A</text><text xml:space="preserve" font-family="Courier,Courier" font-size="27.0" fill="#000000" transform="matrix(1.00, 0.00, -0.00, -1.00, 184.4, 205.1)">p</text><text xml:space="preserve" font-family="Courier,Courier" font-size="27.0" fill="#000000" transform="matrix(1.00, 0.00, -0.00, -1.00, 200.6, 205.1)">p</text><text xml:space="preserve" font-family="Courier,Courier" font-size="27.0" fill="#000000" transform="matrix(1.00, 0.00, -0.00, -1.00, 216.8, 205.1)">S</text><text xml:space="preserve" font-family="Courier,Courier" font-size="27.0" fill="#000000" transform="matrix(1.00, 0.00, -0.00, -1.00, 233.0, 205.1)">t</text><text xml:space="preserve" font-family="Courier,Courier" font-size="27.0" fill="#000000" transform="matrix(1.00, 0.00, -0.00, -1.00, 249.2, 205.1)">a</text><text xml:space="preserve" font-family="Courier,Courier" font-size="27.0" fill="#000000" transform="matrix(1.00, 0.00, -0.00, -1.00, 265.4, 205.1)">t</text><text xml:space="preserve" font-family="Courier,Courier" font-size="27.0" fill="#000000" transform="matrix(1.00, 0.00, -0.00, -1.00, 281.6, 205.1)">e</text><text xml:space="preserve" font-family="Courier,Courier" font-size="27.0" fill="#000000" transform="matrix(1.00, 0.00, -0.00, -1.00, 297.8, 205.1)">:</text><text xml:space="preserve" font-family="Courier,Courier" font-size="27.0" fill="#000000" transform="matrix(1.00, 0.00, -0.00, -1.00, 314.0, 205.1)"> </text><text xml:space="preserve" font-family="Courier,Courier" font-size="27.0" fill="#000000" transform="matrix(1.00, 0.00, -0.00, -1.00, 330.2, 205.1)">‘</text><text xml:space="preserve" font-family="Courier,Courier" font-size="27.0" fill="#000000" transform="matrix(1.00, 0.00, -0.00, -1.00, 346.4, 205.1)">=</text><text xml:space="preserve" font-family="Courier,Courier" font-size="27.0" fill="#000000" transform="matrix(1.00, 0.00, -0.00, -1.00, 362.6, 205.1)">m</text><text xml:space="preserve" font-family="Courier,Courier" font-size="27.0" fill="#000000" transform="matrix(1.00, 0.00, -0.00, -1.00, 378.8, 205.1)">y</text><text xml:space="preserve" font-family="Courier,Courier" font-size="27.0" fill="#000000" transform="matrix(1.00, 0.00, -0.00, -1.00, 395.0, 205.1)">A</text><text xml:space="preserve" font-family="Courier,Courier" font-size="27.0" fill="#000000" transform="matrix(1.00, 0.00, -0.00, -1.00, 411.2, 205.1)">p</text><text xml:space="preserve" font-family="Courier,Courier" font-size="27.0" fill="#000000" transform="matrix(1.00, 0.00, -0.00, -1.00, 427.4, 205.1)">p</text><text xml:space="preserve" font-family="Courier,Courier" font-size="27.0" fill="#000000" transform="matrix(1.00, 0.00, -0.00, -1.00, 443.6, 205.1)">S</text><text xml:space="preserve" font-family="Courier,Courier" font-size="27.0" fill="#000000" transform="matrix(1.00, 0.00, -0.00, -1.00, 459.8, 205.1)">t</text><text xml:space="preserve" font-family="Courier,Courier" font-size="27.0" fill="#000000" transform="matrix(1.00, 0.00, -0.00, -1.00, 476.0, 205.1)">a</text><text xml:space="preserve" font-family="Courier,Courier" font-size="27.0" fill="#000000" transform="matrix(1.00, 0.00, -0.00, -1.00, 492.2, 205.1)">t</text><text xml:space="preserve" font-family="Courier,Courier" font-size="27.0" fill="#000000" transform="matrix(1.00, 0.00, -0.00, -1.00, 508.4, 205.1)">e</text><text xml:space="preserve" font-family="Courier,Courier" font-size="27.0" fill="#000000" transform="matrix(1.00, 0.00, -0.00, -1.00, 524.6, 205.1)">’</text><text xml:space="preserve" font-family="Courier,Courier" font-size="27.0" fill="#000000" transform="matrix(1.00, 0.00, -0.00, -1.00, 6.1, 173.1)"> </text><text xml:space="preserve" font-family="Courier,Courier" font-size="27.0" fill="#000000" transform="matrix(1.00, 0.00, -0.00, -1.00, 22.3, 173.1)"> </text><text xml:space="preserve" font-family="Courier,Courier" font-size="27.0" fill="#000000" transform="matrix(1.00, 0.00, -0.00, -1.00, 38.5, 173.1)"> </text><text xml:space="preserve" font-family="Courier,Courier" font-size="27.0" fill="#000000" transform="matrix(1.00, 0.00, -0.00, -1.00, 54.7, 173.1)"> </text><text xml:space="preserve" font-family="Courier,Courier" font-size="27.0" fill="#000000" transform="matrix(1.00, 0.00, -0.00, -1.00, 71.0, 173.1)"> </text><text xml:space="preserve" font-family="Courier,Courier" font-size="27.0" fill="#000000" transform="matrix(1.00, 0.00, -0.00, -1.00, 87.2, 173.1)"> </text><text xml:space="preserve" font-family="Courier,Courier" font-size="27.0" fill="#000000" transform="matrix(1.00, 0.00, -0.00, -1.00, 103.4, 173.1)">}</text><text xml:space="preserve" font-family="Courier,Courier" font-size="27.0" fill="#000000" transform="matrix(1.00, 0.00, -0.00, -1.00, 119.6, 173.1)">,</text><text xml:space="preserve" font-family="Courier,Courier" font-size="27.0" fill="#000000" transform="matrix(1.00, 0.00, -0.00, -1.00, 6.1, 141.1)"> </text><text xml:space="preserve" font-family="Courier,Courier" font-size="27.0" fill="#000000" transform="matrix(1.00, 0.00, -0.00, -1.00, 22.3, 141.1)"> </text><text xml:space="preserve" font-family="Courier,Courier" font-size="27.0" fill="#000000" transform="matrix(1.00, 0.00, -0.00, -1.00, 38.5, 141.1)"> </text><text xml:space="preserve" font-family="Courier,Courier" font-size="27.0" fill="#000000" transform="matrix(1.00, 0.00, -0.00, -1.00, 54.7, 141.1)"> </text><text xml:space="preserve" font-family="Courier,Courier" font-size="27.0" fill="#000000" transform="matrix(1.00, 0.00, -0.00, -1.00, 71.0, 141.1)"> </text><text xml:space="preserve" font-family="Courier,Courier" font-size="27.0" fill="#000000" transform="matrix(1.00, 0.00, -0.00, -1.00, 87.2, 141.1)"> </text><text xml:space="preserve" font-family="Courier,Courier" font-size="27.0" fill="#000000" transform="matrix(1.00, 0.00, -0.00, -1.00, 103.4, 141.1)">c</text><text xml:space="preserve" font-family="Courier,Courier" font-size="27.0" fill="#000000" transform="matrix(1.00, 0.00, -0.00, -1.00, 119.6, 141.1)">o</text><text xml:space="preserve" font-family="Courier,Courier" font-size="27.0" fill="#000000" transform="matrix(1.00, 0.00, -0.00, -1.00, 135.8, 141.1)">n</text><text xml:space="preserve" font-family="Courier,Courier" font-size="27.0" fill="#000000" transform="matrix(1.00, 0.00, -0.00, -1.00, 152.0, 141.1)">t</text><text xml:space="preserve" font-family="Courier,Courier" font-size="27.0" fill="#000000" transform="matrix(1.00, 0.00, -0.00, -1.00, 168.2, 141.1)">r</text><text xml:space="preserve" font-family="Courier,Courier" font-size="27.0" fill="#000000" transform="matrix(1.00, 0.00, -0.00, -1.00, 184.4, 141.1)">o</text><text xml:space="preserve" font-family="Courier,Courier" font-size="27.0" fill="#000000" transform="matrix(1.00, 0.00, -0.00, -1.00, 200.6, 141.1)">l</text><text xml:space="preserve" font-family="Courier,Courier" font-size="27.0" fill="#000000" transform="matrix(1.00, 0.00, -0.00, -1.00, 216.8, 141.1)">l</text><text xml:space="preserve" font-family="Courier,Courier" font-size="27.0" fill="#000000" transform="matrix(1.00, 0.00, -0.00, -1.00, 233.0, 141.1)">e</text><text xml:space="preserve" font-family="Courier,Courier" font-size="27.0" fill="#000000" transform="matrix(1.00, 0.00, -0.00, -1.00, 249.2, 141.1)">r</text><text xml:space="preserve" font-family="Courier,Courier" font-size="27.0" fill="#000000" transform="matrix(1.00, 0.00, -0.00, -1.00, 265.4, 141.1)">:</text><text xml:space="preserve" font-family="Courier,Courier" font-size="27.0" fill="#000000" transform="matrix(1.00, 0.00, -0.00, -1.00, 281.6, 141.1)"> </text><text xml:space="preserve" font-family="Courier,Courier" font-size="27.0" fill="#000000" transform="matrix(1.00, 0.00, -0.00, -1.00, 297.8, 141.1)">f</text><text xml:space="preserve" font-family="Courier,Courier" font-size="27.0" fill="#000000" transform="matrix(1.00, 0.00, -0.00, -1.00, 314.0, 141.1)">u</text><text xml:space="preserve" font-family="Courier,Courier" font-size="27.0" fill="#000000" transform="matrix(1.00, 0.00, -0.00, -1.00, 330.2, 141.1)">n</text><text xml:space="preserve" font-family="Courier,Courier" font-size="27.0" fill="#000000" transform="matrix(1.00, 0.00, -0.00, -1.00, 346.4, 141.1)">c</text><text xml:space="preserve" font-family="Courier,Courier" font-size="27.0" fill="#000000" transform="matrix(1.00, 0.00, -0.00, -1.00, 362.6, 141.1)">t</text><text xml:space="preserve" font-family="Courier,Courier" font-size="27.0" fill="#000000" transform="matrix(1.00, 0.00, -0.00, -1.00, 378.8, 141.1)">i</text><text xml:space="preserve" font-family="Courier,Courier" font-size="27.0" fill="#000000" transform="matrix(1.00, 0.00, -0.00, -1.00, 395.0, 141.1)">o</text><text xml:space="preserve" font-family="Courier,Courier" font-size="27.0" fill="#000000" transform="matrix(1.00, 0.00, -0.00, -1.00, 411.2, 141.1)">n</text><text xml:space="preserve" font-family="Courier,Courier" font-size="27.0" fill="#000000" transform="matrix(1.00, 0.00, -0.00, -1.00, 427.4, 141.1)"> </text><text xml:space="preserve" font-family="Courier,Courier" font-size="27.0" fill="#000000" transform="matrix(1.00, 0.00, -0.00, -1.00, 443.6, 141.1)">(</text><text xml:space="preserve" font-family="Courier,Courier" font-size="27.0" fill="#000000" transform="matrix(1.00, 0.00, -0.00, -1.00, 459.8, 141.1)">)</text><text xml:space="preserve" font-family="Courier,Courier" font-size="27.0" fill="#000000" transform="matrix(1.00, 0.00, -0.00, -1.00, 476.0, 141.1)"> </text><text xml:space="preserve" font-family="Courier,Courier" font-size="27.0" fill="#000000" transform="matrix(1.00, 0.00, -0.00, -1.00, 492.2, 141.1)">{</text><text xml:space="preserve" font-family="Courier,Courier" font-size="27.0" fill="#000000" transform="matrix(1.00, 0.00, -0.00, -1.00, 6.1, 109.1)"> </text><text xml:space="preserve" font-family="Courier,Courier" font-size="27.0" fill="#000000" transform="matrix(1.00, 0.00, -0.00, -1.00, 22.3, 109.1)"> </text><text xml:space="preserve" font-family="Courier,Courier" font-size="27.0" fill="#000000" transform="matrix(1.00, 0.00, -0.00, -1.00, 38.5, 109.1)"> </text><text xml:space="preserve" font-family="Courier,Courier" font-size="27.0" fill="#000000" transform="matrix(1.00, 0.00, -0.00, -1.00, 54.7, 109.1)"> </text><text xml:space="preserve" font-family="Courier,Courier" font-size="27.0" fill="#000000" transform="matrix(1.00, 0.00, -0.00, -1.00, 71.0, 109.1)"> </text><text xml:space="preserve" font-family="Courier,Courier" font-size="27.0" fill="#000000" transform="matrix(1.00, 0.00, -0.00, -1.00, 87.2, 109.1)"> </text><text xml:space="preserve" font-family="Courier,Courier" font-size="27.0" fill="#000000" transform="matrix(1.00, 0.00, -0.00, -1.00, 103.4, 109.1)"> </text><text xml:space="preserve" font-family="Courier,Courier" font-size="27.0" fill="#000000" transform="matrix(1.00, 0.00, -0.00, -1.00, 119.6, 109.1)"> </text><text xml:space="preserve" font-family="Courier,Courier" font-size="27.0" fill="#000000" transform="matrix(1.00, 0.00, -0.00, -1.00, 135.8, 109.1)">i</text><text xml:space="preserve" font-family="Courier,Courier" font-size="27.0" fill="#000000" transform="matrix(1.00, 0.00, -0.00, -1.00, 152.0, 109.1)">f</text><text xml:space="preserve" font-family="Courier,Courier" font-size="27.0" fill="#000000" transform="matrix(1.00, 0.00, -0.00, -1.00, 6.1, 77.1)"> </text><text xml:space="preserve" font-family="Courier,Courier" font-size="27.0" fill="#000000" transform="matrix(1.00, 0.00, -0.00, -1.00, 22.3, 77.1)"> </text><text xml:space="preserve" font-family="Courier,Courier" font-size="27.0" fill="#000000" transform="matrix(1.00, 0.00, -0.00, -1.00, 38.5, 77.1)"> </text><text xml:space="preserve" font-family="Courier,Courier" font-size="27.0" fill="#000000" transform="matrix(1.00, 0.00, -0.00, -1.00, 54.7, 77.1)"> </text><text xml:space="preserve" font-family="Courier,Courier" font-size="27.0" fill="#000000" transform="matrix(1.00, 0.00, -0.00, -1.00, 71.0, 77.1)"> </text><text xml:space="preserve" font-family="Courier,Courier" font-size="27.0" fill="#000000" transform="matrix(1.00, 0.00, -0.00, -1.00, 87.2, 77.1)"> </text><text xml:space="preserve" font-family="Courier,Courier" font-size="27.0" fill="#000000" transform="matrix(1.00, 0.00, -0.00, -1.00, 103.4, 77.1)">}</text><text xml:space="preserve" font-family="Courier,Courier" font-size="27.0" fill="#000000" transform="matrix(1.00, 0.00, -0.00, -1.00, 6.1, 45.1)"> </text><text xml:space="preserve" font-family="Courier,Courier" font-size="27.0" fill="#000000" transform="matrix(1.00, 0.00, -0.00, -1.00, 22.3, 45.1)"> </text><text xml:space="preserve" font-family="Courier,Courier" font-size="27.0" fill="#000000" transform="matrix(1.00, 0.00, -0.00, -1.00, 38.5, 45.1)"> </text><text xml:space="preserve" font-family="Courier,Courier" font-size="27.0" fill="#000000" transform="matrix(1.00, 0.00, -0.00, -1.00, 54.7, 45.1)"> </text><text xml:space="preserve" font-family="Courier,Courier" font-size="27.0" fill="#000000" transform="matrix(1.00, 0.00, -0.00, -1.00, 71.0, 45.1)">}</text><text xml:space="preserve" font-family="Courier,Courier" font-size="27.0" fill="#000000" transform="matrix(1.00, 0.00, -0.00, -1.00, 87.2, 45.1)">;</text><text xml:space="preserve" font-family="Courier,Courier" font-size="27.0" fill="#000000" transform="matrix(1.00, 0.00, -0.00, -1.00, 6.1, 13.1)"> </text><text xml:space="preserve" font-family="Courier,Courier" font-size="27.0" fill="#000000" transform="matrix(1.00, 0.00, -0.00, -1.00, 22.3, 13.1)"> </text><text xml:space="preserve" font-family="Courier,Courier" font-size="27.0" fill="#000000" transform="matrix(1.00, 0.00, -0.00, -1.00, 38.5, 13.1)">}</text><text xml:space="preserve" font-family="Courier,Courier" font-size="27.0" fill="#000000" transform="matrix(1.00, 0.00, -0.00, -1.00, 54.7, 13.1)">)</text><text xml:space="preserve" font-family="Courier,Courier" font-size="27.0" fill="#000000" transform="matrix(1.00, 0.00, -0.00, -1.00, 70.9, 13.1)">;</text></g></g></g></svg>