<?xml version="1.0" encoding="UTF-8" standalone="no"?><svg xmlns="http://www.w3.org/2000/svg" xmlns:xlink="http://www.w3.org/1999/xlink" clip-rule="evenodd" stroke-miterlimit="10" viewBox="0 0 741 141"><desc>SVG generated by Keynote</desc><defs></defs><g transform="matrix(1.00, 0.00, -0.00, -1.00, 0.0, 141.0)"><text xml:space="preserve" font-family="Helvetica-Light,Helvetica" font-size="64.0" fill="#FEFFFE" transform="matrix(1.00, 0.00, -0.00, -1.00, -3.7, 91.7)">B</text><text xml:space="preserve" font-family="Helvetica-Light,Helvetica" font-size="64.0" fill="#FEFFFE" transform="matrix(1.00, 0.00, -0.00, -1.00, 39.0, 91.7)">u</text><text xml:space="preserve" font-family="Helvetica-Light,Helvetica" font-size="64.0" fill="#FEFFFE" transform="matrix(1.00, 0.00, -0.00, -1.00, 74.6, 91.7)">t</text><text xml:space="preserve" font-family="Helvetica-Light,Helvetica" font-size="64.0" fill="#FEFFFE" transform="matrix(1.00, 0.00, -0.00, -1.00, 92.4, 91.7)"> </text><text xml:space="preserve" font-family="Helvetica-Light,Helvetica" font-size="64.0" fill="#FEFFFE" transform="matrix(1.00, 0.00, -0.00, -1.00, 110.1, 91.7)">I</text><text xml:space="preserve" font-family="Helvetica-Light,Helvetica" font-size="64.0" fill="#FEFFFE" transform="matrix(1.00, 0.00, -0.00, -1.00, 127.9, 91.7)"> </text><text xml:space="preserve" font-family="Helvetica-Light,Helvetica" font-size="64.0" fill="#FEFFFE" transform="matrix(1.00, 0.00, -0.00, -1.00, 145.7, 91.7)">r</text><text xml:space="preserve" font-family="Helvetica-Light,Helvetica" font-size="64.0" fill="#FEFFFE" transform="matrix(1.00, 0.00, -0.00, -1.00, 165.9, 91.7)">e</text><text xml:space="preserve" font-family="Helvetica-Light,Helvetica" font-size="64.0" fill="#FEFFFE" transform="matrix(1.00, 0.00, -0.00, -1.00, 201.5, 91.7)">a</text><text xml:space="preserve" font-family="Helvetica-Light,Helvetica" font-size="64.0" fill="#FEFFFE" transform="matrix(1.00, 0.00, -0.00, -1.00, 237.1, 91.7)">l</text><text xml:space="preserve" font-family="Helvetica-Light,Helvetica" font-size="64.0" fill="#FEFFFE" transform="matrix(1.00, 0.00, -0.00, -1.00, 251.3, 91.7)">l</text><text xml:space="preserve" font-family="Helvetica-Light,Helvetica" font-size="64.0" fill="#FEFFFE" transform="matrix(1.00, 0.00, -0.00, -1.00, 265.5, 91.7)">y</text><text xml:space="preserve" font-family="Helvetica-Light,Helvetica" font-size="64.0" fill="#FEFFFE" transform="matrix(1.00, 0.00, -0.00, -1.00, 297.5, 91.7)"> </text><text xml:space="preserve" font-family="Helvetica-Light,Helvetica" font-size="64.0" fill="#FEFFFE" transform="matrix(1.00, 0.00, -0.00, -1.00, 315.3, 91.7)">n</text><text xml:space="preserve" font-family="Helvetica-Light,Helvetica" font-size="64.0" fill="#FEFFFE" transform="matrix(1.00, 0.00, -0.00, -1.00, 350.8, 91.7)">e</text><text xml:space="preserve" font-family="Helvetica-Light,Helvetica" font-size="64.0" fill="#FEFFFE" transform="matrix(1.00, 0.00, -0.00, -1.00, 386.4, 91.7)">e</text><text xml:space="preserve" font-family="Helvetica-Light,Helvetica" font-size="64.0" fill="#FEFFFE" transform="matrix(1.00, 0.00, -0.00, -1.00, 422.0, 91.7)">d</text><text xml:space="preserve" font-family="Helvetica-Light,Helvetica" font-size="64.0" fill="#FEFFFE" transform="matrix(1.00, 0.00, -0.00, -1.00, 461.1, 91.7)"> </text><text xml:space="preserve" font-family="Helvetica-Light,Helvetica" font-size="64.0" fill="#FEFFFE" transform="matrix(1.00, 0.00, -0.00, -1.00, 478.9, 91.7)">t</text><text xml:space="preserve" font-family="Helvetica-Light,Helvetica" font-size="64.0" fill="#FEFFFE" transform="matrix(1.00, 0.00, -0.00, -1.00, 496.7, 91.7)">o</text><text xml:space="preserve" font-family="Helvetica-Light,Helvetica" font-size="64.0" fill="#FEFFFE" transform="matrix(1.00, 0.00, -0.00, -1.00, 532.3, 91.7)"> </text><text xml:space="preserve" font-family="Helvetica-Light,Helvetica" font-size="64.0" fill="#FEFFFE" transform="matrix(1.00, 0.00, -0.00, -1.00, 550.1, 91.7)">j</text><text xml:space="preserve" font-family="Helvetica-Light,Helvetica" font-size="64.0" fill="#FEFFFE" transform="matrix(1.00, 0.00, -0.00, -1.00, 564.3, 91.7)">Q</text><text xml:space="preserve" font-family="Helvetica-Light,Helvetica" font-size="64.0" fill="#FEFFFE" transform="matrix(1.00, 0.00, -0.00, -1.00, 614.1, 91.7)">u</text><text xml:space="preserve" font-family="Helvetica-Light,Helvetica" font-size="64.0" fill="#FEFFFE" transform="matrix(1.00, 0.00, -0.00, -1.00, 649.7, 91.7)">e</text><text xml:space="preserve" font-family="Helvetica-Light,Helvetica" font-size="64.0" fill="#FEFFFE" transform="matrix(1.00, 0.00, -0.00, -1.00, 685.2, 91.7)">r</text><text xml:space="preserve" font-family="Helvetica-Light,Helvetica" font-size="64.0" fill="#FEFFFE" transform="matrix(1.00, 0.00, -0.00, -1.00, 707.7, 91.7)">y</text><text xml:space="preserve" font-family="Helvetica-Light,Helvetica" font-size="64.0" fill="#FEFFFE" transform="matrix(1.00, 0.00, -0.00, -1.00, 739.7, 91.7)"> </text><text xml:space="preserve" font-family="Helvetica-Light,Helvetica" font-size="64.0" fill="#FEFFFE" transform="matrix(1.00, 0.00, -0.00, -1.00, 208.0, 14.7)">s</text><text xml:space="preserve" font-family="Helvetica-Light,Helvetica" font-size="64.0" fill="#FEFFFE" transform="matrix(1.00, 0.00, -0.00, -1.00, 240.0, 14.7)">o</text><text xml:space="preserve" font-family="Helvetica-Light,Helvetica" font-size="64.0" fill="#FEFFFE" transform="matrix(1.00, 0.00, -0.00, -1.00, 275.6, 14.7)">m</text><text xml:space="preserve" font-family="Helvetica-Light,Helvetica" font-size="64.0" fill="#FEFFFE" transform="matrix(1.00, 0.00, -0.00, -1.00, 328.9, 14.7)">e</text><text xml:space="preserve" font-family="Helvetica-Light,Helvetica" font-size="64.0" fill="#FEFFFE" transform="matrix(1.00, 0.00, -0.00, -1.00, 364.4, 14.7)">t</text><text xml:space="preserve" font-family="Helvetica-Light,Helvetica" font-size="64.0" fill="#FEFFFE" transform="matrix(1.00, 0.00, -0.00, -1.00, 382.2, 14.7)">h</text><text xml:space="preserve" font-family="Helvetica-Light,Helvetica" font-size="64.0" fill="#FEFFFE" transform="matrix(1.00, 0.00, -0.00, -1.00, 417.8, 14.7)">i</text><text xml:space="preserve" font-family="Helvetica-Light,Helvetica" font-size="64.0" fill="#FEFFFE" transform="matrix(1.00, 0.00, -0.00, -1.00, 432.0, 14.7)">n</text><text xml:space="preserve" font-family="Helvetica-Light,Helvetica" font-size="64.0" fill="#FEFFFE" transform="matrix(1.00, 0.00, -0.00, -1.00, 467.6, 14.7)">g</text><text xml:space="preserve" font-family="Helvetica-Light,Helvetica" font-size="64.0" fill="#FEFFFE" transform="matrix(1.00, 0.00, -0.00, -1.00, 506.7, 14.7)">!</text></g></svg>