<?xml version="1.0" encoding="UTF-8" standalone="no"?><svg xmlns="http://www.w3.org/2000/svg" xmlns:xlink="http://www.w3.org/1999/xlink" clip-rule="evenodd" stroke-miterlimit="10" viewBox="0 0 510 50"><desc>SVG generated by Keynote</desc><defs></defs><g transform="matrix(1.00, 0.00, -0.00, -1.00, 0.0, 50.0)"><text xml:space="preserve" font-family="Helvetica-Light,Helvetica" font-size="64.0" fill="#FEFFFE" transform="matrix(1.00, 0.00, -0.00, -1.00, 1.1, 2.7)">W</text><text xml:space="preserve" font-family="Helvetica-Light,Helvetica" font-size="64.0" fill="#FEFFFE" transform="matrix(1.00, 0.00, -0.00, -1.00, 58.0, 2.7)">h</text><text xml:space="preserve" font-family="Helvetica-Light,Helvetica" font-size="64.0" fill="#FEFFFE" transform="matrix(1.00, 0.00, -0.00, -1.00, 93.6, 2.7)">a</text><text xml:space="preserve" font-family="Helvetica-Light,Helvetica" font-size="64.0" fill="#FEFFFE" transform="matrix(1.00, 0.00, -0.00, -1.00, 129.2, 2.7)">t</text><text xml:space="preserve" font-family="Helvetica-Light,Helvetica" font-size="64.0" fill="#FEFFFE" transform="matrix(1.00, 0.00, -0.00, -1.00, 146.9, 2.7)">’</text><text xml:space="preserve" font-family="Helvetica-Light,Helvetica" font-size="64.0" fill="#FEFFFE" transform="matrix(1.00, 0.00, -0.00, -1.00, 156.4, 2.7)">s</text><text xml:space="preserve" font-family="Helvetica-Light,Helvetica" font-size="64.0" fill="#FEFFFE" transform="matrix(1.00, 0.00, -0.00, -1.00, 188.4, 2.7)"> </text><text xml:space="preserve" font-family="Helvetica-Light,Helvetica" font-size="64.0" fill="#FEFFFE" transform="matrix(1.00, 0.00, -0.00, -1.00, 206.2, 2.7)">a</text><text xml:space="preserve" font-family="Helvetica-Light,Helvetica" font-size="64.0" fill="#FEFFFE" transform="matrix(1.00, 0.00, -0.00, -1.00, 241.8, 2.7)"> </text><text xml:space="preserve" font-family="Helvetica-Light,Helvetica" font-size="64.0" fill="#FEFFFE" transform="matrix(1.00, 0.00, -0.00, -1.00, 259.6, 2.7)">D</text><text xml:space="preserve" font-family="Helvetica-Light,Helvetica" font-size="64.0" fill="#FEFFFE" transform="matrix(1.00, 0.00, -0.00, -1.00, 305.8, 2.7)">i</text><text xml:space="preserve" font-family="Helvetica-Light,Helvetica" font-size="64.0" fill="#FEFFFE" transform="matrix(1.00, 0.00, -0.00, -1.00, 320.0, 2.7)">r</text><text xml:space="preserve" font-family="Helvetica-Light,Helvetica" font-size="64.0" fill="#FEFFFE" transform="matrix(1.00, 0.00, -0.00, -1.00, 340.2, 2.7)">e</text><text xml:space="preserve" font-family="Helvetica-Light,Helvetica" font-size="64.0" fill="#FEFFFE" transform="matrix(1.00, 0.00, -0.00, -1.00, 375.7, 2.7)">c</text><text xml:space="preserve" font-family="Helvetica-Light,Helvetica" font-size="64.0" fill="#FEFFFE" transform="matrix(1.00, 0.00, -0.00, -1.00, 411.3, 2.7)">t</text><text xml:space="preserve" font-family="Helvetica-Light,Helvetica" font-size="64.0" fill="#FEFFFE" transform="matrix(1.00, 0.00, -0.00, -1.00, 429.1, 2.7)">i</text><text xml:space="preserve" font-family="Helvetica-Light,Helvetica" font-size="64.0" fill="#FEFFFE" transform="matrix(1.00, 0.00, -0.00, -1.00, 443.3, 2.7)">v</text><text xml:space="preserve" font-family="Helvetica-Light,Helvetica" font-size="64.0" fill="#FEFFFE" transform="matrix(1.00, 0.00, -0.00, -1.00, 475.3, 2.7)">e</text></g></svg>