<?xml version="1.0" encoding="UTF-8" standalone="no"?><svg xmlns="http://www.w3.org/2000/svg" xmlns:xlink="http://www.w3.org/1999/xlink" clip-rule="evenodd" stroke-miterlimit="10" viewBox="0 0 709 77"><desc>SVG generated by Keynote</desc><defs></defs><g transform="matrix(1.00, 0.00, -0.00, -1.00, 0.0, 77.0)"><text xml:space="preserve" font-family="Helvetica-Light,Helvetica" font-size="25.1" fill="#000000" transform="matrix(1.00, 0.00, -0.00, -1.00, 0.0, 53.2)">•</text><text xml:space="preserve" font-family="Helvetica-Light,Helvetica" font-size="33.5" fill="#000000" transform="matrix(1.00, 0.00, -0.00, -1.00, 32.5, 49.6)">A</text><text xml:space="preserve" font-family="Helvetica-Light,Helvetica" font-size="33.5" fill="#000000" transform="matrix(1.00, 0.00, -0.00, -1.00, 54.9, 49.6)">l</text><text xml:space="preserve" font-family="Helvetica-Light,Helvetica" font-size="33.5" fill="#000000" transform="matrix(1.00, 0.00, -0.00, -1.00, 62.3, 49.6)">l</text><text xml:space="preserve" font-family="Helvetica-Light,Helvetica" font-size="33.5" fill="#000000" transform="matrix(1.00, 0.00, -0.00, -1.00, 69.7, 49.6)"> </text><text xml:space="preserve" font-family="Helvetica-Light,Helvetica" font-size="33.5" fill="#000000" transform="matrix(1.00, 0.00, -0.00, -1.00, 79.1, 49.6)">v</text><text xml:space="preserve" font-family="Helvetica-Light,Helvetica" font-size="33.5" fill="#000000" transform="matrix(1.00, 0.00, -0.00, -1.00, 95.8, 49.6)">a</text><text xml:space="preserve" font-family="Helvetica-Light,Helvetica" font-size="33.5" fill="#000000" transform="matrix(1.00, 0.00, -0.00, -1.00, 114.4, 49.6)">l</text><text xml:space="preserve" font-family="Helvetica-Light,Helvetica" font-size="33.5" fill="#000000" transform="matrix(1.00, 0.00, -0.00, -1.00, 121.8, 49.6)">u</text><text xml:space="preserve" font-family="Helvetica-Light,Helvetica" font-size="33.5" fill="#000000" transform="matrix(1.00, 0.00, -0.00, -1.00, 140.5, 49.6)">e</text><text xml:space="preserve" font-family="Helvetica-Light,Helvetica" font-size="33.5" fill="#000000" transform="matrix(1.00, 0.00, -0.00, -1.00, 159.1, 49.6)">s</text><text xml:space="preserve" font-family="Helvetica-Light,Helvetica" font-size="33.5" fill="#000000" transform="matrix(1.00, 0.00, -0.00, -1.00, 175.8, 49.6)"> </text><text xml:space="preserve" font-family="Helvetica-Light,Helvetica" font-size="33.5" fill="#000000" transform="matrix(1.00, 0.00, -0.00, -1.00, 185.1, 49.6)">s</text><text xml:space="preserve" font-family="Helvetica-Light,Helvetica" font-size="33.5" fill="#000000" transform="matrix(1.00, 0.00, -0.00, -1.00, 201.9, 49.6)">e</text><text xml:space="preserve" font-family="Helvetica-Light,Helvetica" font-size="33.5" fill="#000000" transform="matrix(1.00, 0.00, -0.00, -1.00, 220.5, 49.6)">t</text><text xml:space="preserve" font-family="Helvetica-Light,Helvetica" font-size="33.5" fill="#000000" transform="matrix(1.00, 0.00, -0.00, -1.00, 229.8, 49.6)"> </text><text xml:space="preserve" font-family="Helvetica-Light,Helvetica" font-size="33.5" fill="#000000" transform="matrix(1.00, 0.00, -0.00, -1.00, 239.1, 49.6)">o</text><text xml:space="preserve" font-family="Helvetica-Light,Helvetica" font-size="33.5" fill="#000000" transform="matrix(1.00, 0.00, -0.00, -1.00, 257.7, 49.6)">n</text><text xml:space="preserve" font-family="Helvetica-Light,Helvetica" font-size="33.5" fill="#000000" transform="matrix(1.00, 0.00, -0.00, -1.00, 276.3, 49.6)"> </text><text xml:space="preserve" font-family="Helvetica-Light,Helvetica" font-size="33.5" fill="#000000" transform="matrix(1.00, 0.00, -0.00, -1.00, 285.6, 49.6)">$</text><text xml:space="preserve" font-family="Helvetica-Light,Helvetica" font-size="33.5" fill="#000000" transform="matrix(1.00, 0.00, -0.00, -1.00, 304.2, 49.6)">s</text><text xml:space="preserve" font-family="Helvetica-Light,Helvetica" font-size="33.5" fill="#000000" transform="matrix(1.00, 0.00, -0.00, -1.00, 321.0, 49.6)">c</text><text xml:space="preserve" font-family="Helvetica-Light,Helvetica" font-size="33.5" fill="#000000" transform="matrix(1.00, 0.00, -0.00, -1.00, 339.6, 49.6)">o</text><text xml:space="preserve" font-family="Helvetica-Light,Helvetica" font-size="33.5" fill="#000000" transform="matrix(1.00, 0.00, -0.00, -1.00, 358.2, 49.6)">p</text><text xml:space="preserve" font-family="Helvetica-Light,Helvetica" font-size="33.5" fill="#000000" transform="matrix(1.00, 0.00, -0.00, -1.00, 378.7, 49.6)">e</text><text xml:space="preserve" font-family="Helvetica-Light,Helvetica" font-size="33.5" fill="#000000" transform="matrix(1.00, 0.00, -0.00, -1.00, 397.3, 49.6)"> </text><text xml:space="preserve" font-family="Helvetica-Light,Helvetica" font-size="33.5" fill="#000000" transform="matrix(1.00, 0.00, -0.00, -1.00, 406.6, 49.6)">a</text><text xml:space="preserve" font-family="Helvetica-Light,Helvetica" font-size="33.5" fill="#000000" transform="matrix(1.00, 0.00, -0.00, -1.00, 425.2, 49.6)">r</text><text xml:space="preserve" font-family="Helvetica-Light,Helvetica" font-size="33.5" fill="#000000" transform="matrix(1.00, 0.00, -0.00, -1.00, 435.7, 49.6)">e</text><text xml:space="preserve" font-family="Helvetica-Light,Helvetica" font-size="33.5" fill="#000000" transform="matrix(1.00, 0.00, -0.00, -1.00, 454.4, 49.6)"> </text><text xml:space="preserve" font-family="Helvetica-Light,Helvetica" font-size="33.5" fill="#000000" transform="matrix(1.00, 0.00, -0.00, -1.00, 463.7, 49.6)">a</text><text xml:space="preserve" font-family="Helvetica-Light,Helvetica" font-size="33.5" fill="#000000" transform="matrix(1.00, 0.00, -0.00, -1.00, 482.3, 49.6)">v</text><text xml:space="preserve" font-family="Helvetica-Light,Helvetica" font-size="33.5" fill="#000000" transform="matrix(1.00, 0.00, -0.00, -1.00, 499.0, 49.6)">a</text><text xml:space="preserve" font-family="Helvetica-Light,Helvetica" font-size="33.5" fill="#000000" transform="matrix(1.00, 0.00, -0.00, -1.00, 517.6, 49.6)">i</text><text xml:space="preserve" font-family="Helvetica-Light,Helvetica" font-size="33.5" fill="#000000" transform="matrix(1.00, 0.00, -0.00, -1.00, 525.1, 49.6)">l</text><text xml:space="preserve" font-family="Helvetica-Light,Helvetica" font-size="33.5" fill="#000000" transform="matrix(1.00, 0.00, -0.00, -1.00, 532.5, 49.6)">a</text><text xml:space="preserve" font-family="Helvetica-Light,Helvetica" font-size="33.5" fill="#000000" transform="matrix(1.00, 0.00, -0.00, -1.00, 551.1, 49.6)">b</text><text xml:space="preserve" font-family="Helvetica-Light,Helvetica" font-size="33.5" fill="#000000" transform="matrix(1.00, 0.00, -0.00, -1.00, 571.6, 49.6)">l</text><text xml:space="preserve" font-family="Helvetica-Light,Helvetica" font-size="33.5" fill="#000000" transform="matrix(1.00, 0.00, -0.00, -1.00, 579.0, 49.6)">e</text><text xml:space="preserve" font-family="Helvetica-Light,Helvetica" font-size="33.5" fill="#000000" transform="matrix(1.00, 0.00, -0.00, -1.00, 597.6, 49.6)"> </text><text xml:space="preserve" font-family="Helvetica-Light,Helvetica" font-size="33.5" fill="#000000" transform="matrix(1.00, 0.00, -0.00, -1.00, 606.9, 49.6)">i</text><text xml:space="preserve" font-family="Helvetica-Light,Helvetica" font-size="33.5" fill="#000000" transform="matrix(1.00, 0.00, -0.00, -1.00, 614.4, 49.6)">n</text><text xml:space="preserve" font-family="Helvetica-Light,Helvetica" font-size="33.5" fill="#000000" transform="matrix(1.00, 0.00, -0.00, -1.00, 633.0, 49.6)"> </text><text xml:space="preserve" font-family="Helvetica-Light,Helvetica" font-size="33.5" fill="#000000" transform="matrix(1.00, 0.00, -0.00, -1.00, 642.3, 49.6)">y</text><text xml:space="preserve" font-family="Helvetica-Light,Helvetica" font-size="33.5" fill="#000000" transform="matrix(1.00, 0.00, -0.00, -1.00, 659.0, 49.6)">o</text><text xml:space="preserve" font-family="Helvetica-Light,Helvetica" font-size="33.5" fill="#000000" transform="matrix(1.00, 0.00, -0.00, -1.00, 677.6, 49.6)">u</text><text xml:space="preserve" font-family="Helvetica-Light,Helvetica" font-size="33.5" fill="#000000" transform="matrix(1.00, 0.00, -0.00, -1.00, 696.3, 49.6)">r</text><text xml:space="preserve" font-family="Helvetica-Light,Helvetica" font-size="33.5" fill="#000000" transform="matrix(1.00, 0.00, -0.00, -1.00, 707.4, 49.6)"> </text><text xml:space="preserve" font-family="Helvetica-Light,Helvetica" font-size="33.5" fill="#000000" transform="matrix(1.00, 0.00, -0.00, -1.00, 32.5, 8.6)">t</text><text xml:space="preserve" font-family="Helvetica-Light,Helvetica" font-size="33.5" fill="#000000" transform="matrix(1.00, 0.00, -0.00, -1.00, 41.9, 8.6)">e</text><text xml:space="preserve" font-family="Helvetica-Light,Helvetica" font-size="33.5" fill="#000000" transform="matrix(1.00, 0.00, -0.00, -1.00, 60.5, 8.6)">m</text><text xml:space="preserve" font-family="Helvetica-Light,Helvetica" font-size="33.5" fill="#000000" transform="matrix(1.00, 0.00, -0.00, -1.00, 88.4, 8.6)">p</text><text xml:space="preserve" font-family="Helvetica-Light,Helvetica" font-size="33.5" fill="#000000" transform="matrix(1.00, 0.00, -0.00, -1.00, 108.8, 8.6)">l</text><text xml:space="preserve" font-family="Helvetica-Light,Helvetica" font-size="33.5" fill="#000000" transform="matrix(1.00, 0.00, -0.00, -1.00, 116.2, 8.6)">a</text><text xml:space="preserve" font-family="Helvetica-Light,Helvetica" font-size="33.5" fill="#000000" transform="matrix(1.00, 0.00, -0.00, -1.00, 134.9, 8.6)">t</text><text xml:space="preserve" font-family="Helvetica-Light,Helvetica" font-size="33.5" fill="#000000" transform="matrix(1.00, 0.00, -0.00, -1.00, 144.2, 8.6)">e</text><text xml:space="preserve" font-family="Helvetica-Light,Helvetica" font-size="33.5" fill="#000000" transform="matrix(1.00, 0.00, -0.00, -1.00, 162.8, 8.6)">s</text><text xml:space="preserve" font-family="Helvetica-Light,Helvetica" font-size="33.5" fill="#000000" transform="matrix(1.00, 0.00, -0.00, -1.00, 179.5, 8.6)">.</text></g></svg>