<?xml version="1.0" encoding="UTF-8" standalone="no"?><svg xmlns="http://www.w3.org/2000/svg" xmlns:xlink="http://www.w3.org/1999/xlink" clip-rule="evenodd" stroke-miterlimit="10" viewBox="0 0 860 76"><desc>SVG generated by Keynote</desc><defs></defs><g transform="matrix(1.00, 0.00, -0.00, -1.00, 0.0, 76.0)"><text xml:space="preserve" font-family="Helvetica-Light,Helvetica" font-size="25.1" fill="#000000" transform="matrix(1.00, 0.00, -0.00, -1.00, 0.0, 53.3)">•</text><text xml:space="preserve" font-family="Helvetica-Light,Helvetica" font-size="33.5" fill="#000000" transform="matrix(1.00, 0.00, -0.00, -1.00, 32.5, 49.7)">B</text><text xml:space="preserve" font-family="Helvetica-Light,Helvetica" font-size="33.5" fill="#000000" transform="matrix(1.00, 0.00, -0.00, -1.00, 54.9, 49.7)">u</text><text xml:space="preserve" font-family="Helvetica-Light,Helvetica" font-size="33.5" fill="#000000" transform="matrix(1.00, 0.00, -0.00, -1.00, 73.5, 49.7)">i</text><text xml:space="preserve" font-family="Helvetica-Light,Helvetica" font-size="33.5" fill="#000000" transform="matrix(1.00, 0.00, -0.00, -1.00, 80.9, 49.7)">l</text><text xml:space="preserve" font-family="Helvetica-Light,Helvetica" font-size="33.5" fill="#000000" transform="matrix(1.00, 0.00, -0.00, -1.00, 88.4, 49.7)">t</text><text xml:space="preserve" font-family="Helvetica-Light,Helvetica" font-size="33.5" fill="#000000" transform="matrix(1.00, 0.00, -0.00, -1.00, 97.7, 49.7)"> </text><text xml:space="preserve" font-family="Helvetica-Light,Helvetica" font-size="33.5" fill="#000000" transform="matrix(1.00, 0.00, -0.00, -1.00, 107.0, 49.7)">i</text><text xml:space="preserve" font-family="Helvetica-Light,Helvetica" font-size="33.5" fill="#000000" transform="matrix(1.00, 0.00, -0.00, -1.00, 114.4, 49.7)">n</text><text xml:space="preserve" font-family="Helvetica-Light,Helvetica" font-size="33.5" fill="#000000" transform="matrix(1.00, 0.00, -0.00, -1.00, 133.0, 49.7)"> </text><text xml:space="preserve" font-family="Helvetica-Light,Helvetica" font-size="33.5" fill="#000000" transform="matrix(1.00, 0.00, -0.00, -1.00, 142.3, 49.7)">A</text><text xml:space="preserve" font-family="Helvetica-Light,Helvetica" font-size="33.5" fill="#000000" transform="matrix(1.00, 0.00, -0.00, -1.00, 164.7, 49.7)">n</text><text xml:space="preserve" font-family="Helvetica-Light,Helvetica" font-size="33.5" fill="#000000" transform="matrix(1.00, 0.00, -0.00, -1.00, 183.3, 49.7)">g</text><text xml:space="preserve" font-family="Helvetica-Light,Helvetica" font-size="33.5" fill="#000000" transform="matrix(1.00, 0.00, -0.00, -1.00, 203.7, 49.7)">u</text><text xml:space="preserve" font-family="Helvetica-Light,Helvetica" font-size="33.5" fill="#000000" transform="matrix(1.00, 0.00, -0.00, -1.00, 222.3, 49.7)">l</text><text xml:space="preserve" font-family="Helvetica-Light,Helvetica" font-size="33.5" fill="#000000" transform="matrix(1.00, 0.00, -0.00, -1.00, 229.8, 49.7)">a</text><text xml:space="preserve" font-family="Helvetica-Light,Helvetica" font-size="33.5" fill="#000000" transform="matrix(1.00, 0.00, -0.00, -1.00, 248.4, 49.7)">r</text><text xml:space="preserve" font-family="Helvetica-Light,Helvetica" font-size="33.5" fill="#000000" transform="matrix(1.00, 0.00, -0.00, -1.00, 259.5, 49.7)"> </text><text xml:space="preserve" font-family="Helvetica-Light,Helvetica" font-size="33.5" fill="#000000" transform="matrix(1.00, 0.00, -0.00, -1.00, 268.9, 49.7)">P</text><text xml:space="preserve" font-family="Helvetica-Light,Helvetica" font-size="33.5" fill="#000000" transform="matrix(1.00, 0.00, -0.00, -1.00, 289.3, 49.7)">r</text><text xml:space="preserve" font-family="Helvetica-Light,Helvetica" font-size="33.5" fill="#000000" transform="matrix(1.00, 0.00, -0.00, -1.00, 299.9, 49.7)">o</text><text xml:space="preserve" font-family="Helvetica-Light,Helvetica" font-size="33.5" fill="#000000" transform="matrix(1.00, 0.00, -0.00, -1.00, 318.5, 49.7)">v</text><text xml:space="preserve" font-family="Helvetica-Light,Helvetica" font-size="33.5" fill="#000000" transform="matrix(1.00, 0.00, -0.00, -1.00, 335.2, 49.7)">i</text><text xml:space="preserve" font-family="Helvetica-Light,Helvetica" font-size="33.5" fill="#000000" transform="matrix(1.00, 0.00, -0.00, -1.00, 342.6, 49.7)">d</text><text xml:space="preserve" font-family="Helvetica-Light,Helvetica" font-size="33.5" fill="#000000" transform="matrix(1.00, 0.00, -0.00, -1.00, 363.1, 49.7)">e</text><text xml:space="preserve" font-family="Helvetica-Light,Helvetica" font-size="33.5" fill="#000000" transform="matrix(1.00, 0.00, -0.00, -1.00, 381.7, 49.7)">r</text><text xml:space="preserve" font-family="Helvetica-Light,Helvetica" font-size="33.5" fill="#000000" transform="matrix(1.00, 0.00, -0.00, -1.00, 392.9, 49.7)"> </text><text xml:space="preserve" font-family="Helvetica-Light,Helvetica" font-size="33.5" fill="#000000" transform="matrix(1.00, 0.00, -0.00, -1.00, 402.2, 49.7)">f</text><text xml:space="preserve" font-family="Helvetica-Light,Helvetica" font-size="33.5" fill="#000000" transform="matrix(1.00, 0.00, -0.00, -1.00, 411.5, 49.7)">o</text><text xml:space="preserve" font-family="Helvetica-Light,Helvetica" font-size="33.5" fill="#000000" transform="matrix(1.00, 0.00, -0.00, -1.00, 430.1, 49.7)">r</text><text xml:space="preserve" font-family="Helvetica-Light,Helvetica" font-size="33.5" fill="#000000" transform="matrix(1.00, 0.00, -0.00, -1.00, 441.2, 49.7)"> </text><text xml:space="preserve" font-family="Helvetica-Light,Helvetica" font-size="33.5" fill="#000000" transform="matrix(1.00, 0.00, -0.00, -1.00, 450.5, 49.7)">h</text><text xml:space="preserve" font-family="Helvetica-Light,Helvetica" font-size="33.5" fill="#000000" transform="matrix(1.00, 0.00, -0.00, -1.00, 469.2, 49.7)">a</text><text xml:space="preserve" font-family="Helvetica-Light,Helvetica" font-size="33.5" fill="#000000" transform="matrix(1.00, 0.00, -0.00, -1.00, 487.8, 49.7)">n</text><text xml:space="preserve" font-family="Helvetica-Light,Helvetica" font-size="33.5" fill="#000000" transform="matrix(1.00, 0.00, -0.00, -1.00, 506.4, 49.7)">d</text><text xml:space="preserve" font-family="Helvetica-Light,Helvetica" font-size="33.5" fill="#000000" transform="matrix(1.00, 0.00, -0.00, -1.00, 526.8, 49.7)">l</text><text xml:space="preserve" font-family="Helvetica-Light,Helvetica" font-size="33.5" fill="#000000" transform="matrix(1.00, 0.00, -0.00, -1.00, 534.3, 49.7)">i</text><text xml:space="preserve" font-family="Helvetica-Light,Helvetica" font-size="33.5" fill="#000000" transform="matrix(1.00, 0.00, -0.00, -1.00, 541.7, 49.7)">n</text><text xml:space="preserve" font-family="Helvetica-Light,Helvetica" font-size="33.5" fill="#000000" transform="matrix(1.00, 0.00, -0.00, -1.00, 560.3, 49.7)">g</text><text xml:space="preserve" font-family="Helvetica-Light,Helvetica" font-size="33.5" fill="#000000" transform="matrix(1.00, 0.00, -0.00, -1.00, 580.8, 49.7)"> </text><text xml:space="preserve" font-family="Helvetica-Light,Helvetica" font-size="33.5" fill="#000000" transform="matrix(1.00, 0.00, -0.00, -1.00, 590.1, 49.7)">a</text><text xml:space="preserve" font-family="Helvetica-Light,Helvetica" font-size="33.5" fill="#000000" transform="matrix(1.00, 0.00, -0.00, -1.00, 608.7, 49.7)">p</text><text xml:space="preserve" font-family="Helvetica-Light,Helvetica" font-size="33.5" fill="#000000" transform="matrix(1.00, 0.00, -0.00, -1.00, 629.2, 49.7)">p</text><text xml:space="preserve" font-family="Helvetica-Light,Helvetica" font-size="33.5" fill="#000000" transform="matrix(1.00, 0.00, -0.00, -1.00, 649.6, 49.7)">l</text><text xml:space="preserve" font-family="Helvetica-Light,Helvetica" font-size="33.5" fill="#000000" transform="matrix(1.00, 0.00, -0.00, -1.00, 657.1, 49.7)">i</text><text xml:space="preserve" font-family="Helvetica-Light,Helvetica" font-size="33.5" fill="#000000" transform="matrix(1.00, 0.00, -0.00, -1.00, 664.5, 49.7)">c</text><text xml:space="preserve" font-family="Helvetica-Light,Helvetica" font-size="33.5" fill="#000000" transform="matrix(1.00, 0.00, -0.00, -1.00, 683.1, 49.7)">a</text><text xml:space="preserve" font-family="Helvetica-Light,Helvetica" font-size="33.5" fill="#000000" transform="matrix(1.00, 0.00, -0.00, -1.00, 701.7, 49.7)">t</text><text xml:space="preserve" font-family="Helvetica-Light,Helvetica" font-size="33.5" fill="#000000" transform="matrix(1.00, 0.00, -0.00, -1.00, 711.0, 49.7)">i</text><text xml:space="preserve" font-family="Helvetica-Light,Helvetica" font-size="33.5" fill="#000000" transform="matrix(1.00, 0.00, -0.00, -1.00, 718.5, 49.7)">o</text><text xml:space="preserve" font-family="Helvetica-Light,Helvetica" font-size="33.5" fill="#000000" transform="matrix(1.00, 0.00, -0.00, -1.00, 737.1, 49.7)">n</text><text xml:space="preserve" font-family="Helvetica-Light,Helvetica" font-size="33.5" fill="#000000" transform="matrix(1.00, 0.00, -0.00, -1.00, 755.7, 49.7)"> </text><text xml:space="preserve" font-family="Helvetica-Light,Helvetica" font-size="33.5" fill="#000000" transform="matrix(1.00, 0.00, -0.00, -1.00, 765.0, 49.7)">s</text><text xml:space="preserve" font-family="Helvetica-Light,Helvetica" font-size="33.5" fill="#000000" transform="matrix(1.00, 0.00, -0.00, -1.00, 781.7, 49.7)">c</text><text xml:space="preserve" font-family="Helvetica-Light,Helvetica" font-size="33.5" fill="#000000" transform="matrix(1.00, 0.00, -0.00, -1.00, 800.3, 49.7)">o</text><text xml:space="preserve" font-family="Helvetica-Light,Helvetica" font-size="33.5" fill="#000000" transform="matrix(1.00, 0.00, -0.00, -1.00, 819.0, 49.7)">p</text><text xml:space="preserve" font-family="Helvetica-Light,Helvetica" font-size="33.5" fill="#000000" transform="matrix(1.00, 0.00, -0.00, -1.00, 839.4, 49.7)">e</text><text xml:space="preserve" font-family="Helvetica-Light,Helvetica" font-size="33.5" fill="#000000" transform="matrix(1.00, 0.00, -0.00, -1.00, 858.0, 49.7)"> </text><text xml:space="preserve" font-family="Helvetica-Light,Helvetica" font-size="33.5" fill="#000000" transform="matrix(1.00, 0.00, -0.00, -1.00, 32.5, 8.7)">i</text><text xml:space="preserve" font-family="Helvetica-Light,Helvetica" font-size="33.5" fill="#000000" transform="matrix(1.00, 0.00, -0.00, -1.00, 40.0, 8.7)">n</text><text xml:space="preserve" font-family="Helvetica-Light,Helvetica" font-size="33.5" fill="#000000" transform="matrix(1.00, 0.00, -0.00, -1.00, 58.6, 8.7)"> </text><text xml:space="preserve" font-family="Helvetica-Light,Helvetica" font-size="33.5" fill="#000000" transform="matrix(1.00, 0.00, -0.00, -1.00, 67.9, 8.7)">y</text><text xml:space="preserve" font-family="Helvetica-Light,Helvetica" font-size="33.5" fill="#000000" transform="matrix(1.00, 0.00, -0.00, -1.00, 84.6, 8.7)">o</text><text xml:space="preserve" font-family="Helvetica-Light,Helvetica" font-size="33.5" fill="#000000" transform="matrix(1.00, 0.00, -0.00, -1.00, 103.3, 8.7)">u</text><text xml:space="preserve" font-family="Helvetica-Light,Helvetica" font-size="33.5" fill="#000000" transform="matrix(1.00, 0.00, -0.00, -1.00, 121.9, 8.7)">r</text><text xml:space="preserve" font-family="Helvetica-Light,Helvetica" font-size="33.5" fill="#000000" transform="matrix(1.00, 0.00, -0.00, -1.00, 133.0, 8.7)"> </text><text xml:space="preserve" font-family="Helvetica-Light,Helvetica" font-size="33.5" fill="#000000" transform="matrix(1.00, 0.00, -0.00, -1.00, 142.3, 8.7)">c</text><text xml:space="preserve" font-family="Helvetica-Light,Helvetica" font-size="33.5" fill="#000000" transform="matrix(1.00, 0.00, -0.00, -1.00, 160.9, 8.7)">o</text><text xml:space="preserve" font-family="Helvetica-Light,Helvetica" font-size="33.5" fill="#000000" transform="matrix(1.00, 0.00, -0.00, -1.00, 179.6, 8.7)">n</text><text xml:space="preserve" font-family="Helvetica-Light,Helvetica" font-size="33.5" fill="#000000" transform="matrix(1.00, 0.00, -0.00, -1.00, 198.2, 8.7)">t</text><text xml:space="preserve" font-family="Helvetica-Light,Helvetica" font-size="33.5" fill="#000000" transform="matrix(1.00, 0.00, -0.00, -1.00, 207.5, 8.7)">r</text><text xml:space="preserve" font-family="Helvetica-Light,Helvetica" font-size="33.5" fill="#000000" transform="matrix(1.00, 0.00, -0.00, -1.00, 218.0, 8.7)">o</text><text xml:space="preserve" font-family="Helvetica-Light,Helvetica" font-size="33.5" fill="#000000" transform="matrix(1.00, 0.00, -0.00, -1.00, 236.6, 8.7)">l</text><text xml:space="preserve" font-family="Helvetica-Light,Helvetica" font-size="33.5" fill="#000000" transform="matrix(1.00, 0.00, -0.00, -1.00, 244.1, 8.7)">l</text><text xml:space="preserve" font-family="Helvetica-Light,Helvetica" font-size="33.5" fill="#000000" transform="matrix(1.00, 0.00, -0.00, -1.00, 251.5, 8.7)">e</text><text xml:space="preserve" font-family="Helvetica-Light,Helvetica" font-size="33.5" fill="#000000" transform="matrix(1.00, 0.00, -0.00, -1.00, 270.1, 8.7)">r</text><text xml:space="preserve" font-family="Helvetica-Light,Helvetica" font-size="33.5" fill="#000000" transform="matrix(1.00, 0.00, -0.00, -1.00, 281.3, 8.7)">s</text><text xml:space="preserve" font-family="Helvetica-Light,Helvetica" font-size="33.5" fill="#000000" transform="matrix(1.00, 0.00, -0.00, -1.00, 298.0, 8.7)"> </text><text xml:space="preserve" font-family="Helvetica-Light,Helvetica" font-size="33.5" fill="#000000" transform="matrix(1.00, 0.00, -0.00, -1.00, 307.3, 8.7)">(</text><text xml:space="preserve" font-family="Helvetica-Light,Helvetica" font-size="33.5" fill="#000000" transform="matrix(1.00, 0.00, -0.00, -1.00, 318.5, 8.7)">a</text><text xml:space="preserve" font-family="Helvetica-Light,Helvetica" font-size="33.5" fill="#000000" transform="matrix(1.00, 0.00, -0.00, -1.00, 337.1, 8.7)">n</text><text xml:space="preserve" font-family="Helvetica-Light,Helvetica" font-size="33.5" fill="#000000" transform="matrix(1.00, 0.00, -0.00, -1.00, 355.7, 8.7)">d</text><text xml:space="preserve" font-family="Helvetica-Light,Helvetica" font-size="33.5" fill="#000000" transform="matrix(1.00, 0.00, -0.00, -1.00, 376.2, 8.7)"> </text><text xml:space="preserve" font-family="Helvetica-Light,Helvetica" font-size="33.5" fill="#000000" transform="matrix(1.00, 0.00, -0.00, -1.00, 385.5, 8.7)">l</text><text xml:space="preserve" font-family="Helvetica-Light,Helvetica" font-size="33.5" fill="#000000" transform="matrix(1.00, 0.00, -0.00, -1.00, 392.9, 8.7)">i</text><text xml:space="preserve" font-family="Helvetica-Light,Helvetica" font-size="33.5" fill="#000000" transform="matrix(1.00, 0.00, -0.00, -1.00, 400.3, 8.7)">n</text><text xml:space="preserve" font-family="Helvetica-Light,Helvetica" font-size="33.5" fill="#000000" transform="matrix(1.00, 0.00, -0.00, -1.00, 418.9, 8.7)">k</text><text xml:space="preserve" font-family="Helvetica-Light,Helvetica" font-size="33.5" fill="#000000" transform="matrix(1.00, 0.00, -0.00, -1.00, 435.7, 8.7)"> </text><text xml:space="preserve" font-family="Helvetica-Light,Helvetica" font-size="33.5" fill="#000000" transform="matrix(1.00, 0.00, -0.00, -1.00, 445.0, 8.7)">f</text><text xml:space="preserve" font-family="Helvetica-Light,Helvetica" font-size="33.5" fill="#000000" transform="matrix(1.00, 0.00, -0.00, -1.00, 454.3, 8.7)">u</text><text xml:space="preserve" font-family="Helvetica-Light,Helvetica" font-size="33.5" fill="#000000" transform="matrix(1.00, 0.00, -0.00, -1.00, 472.9, 8.7)">n</text><text xml:space="preserve" font-family="Helvetica-Light,Helvetica" font-size="33.5" fill="#000000" transform="matrix(1.00, 0.00, -0.00, -1.00, 491.5, 8.7)">c</text><text xml:space="preserve" font-family="Helvetica-Light,Helvetica" font-size="33.5" fill="#000000" transform="matrix(1.00, 0.00, -0.00, -1.00, 510.1, 8.7)">t</text><text xml:space="preserve" font-family="Helvetica-Light,Helvetica" font-size="33.5" fill="#000000" transform="matrix(1.00, 0.00, -0.00, -1.00, 519.4, 8.7)">i</text><text xml:space="preserve" font-family="Helvetica-Light,Helvetica" font-size="33.5" fill="#000000" transform="matrix(1.00, 0.00, -0.00, -1.00, 526.9, 8.7)">o</text><text xml:space="preserve" font-family="Helvetica-Light,Helvetica" font-size="33.5" fill="#000000" transform="matrix(1.00, 0.00, -0.00, -1.00, 545.5, 8.7)">n</text><text xml:space="preserve" font-family="Helvetica-Light,Helvetica" font-size="33.5" fill="#000000" transform="matrix(1.00, 0.00, -0.00, -1.00, 564.1, 8.7)">s</text><text xml:space="preserve" font-family="Helvetica-Light,Helvetica" font-size="33.5" fill="#000000" transform="matrix(1.00, 0.00, -0.00, -1.00, 580.9, 8.7)">)</text><text xml:space="preserve" font-family="Helvetica-Light,Helvetica" font-size="33.5" fill="#000000" transform="matrix(1.00, 0.00, -0.00, -1.00, 592.0, 8.7)">.</text></g></svg>