<?xml version="1.0" encoding="UTF-8" standalone="no"?><svg xmlns="http://www.w3.org/2000/svg" xmlns:xlink="http://www.w3.org/1999/xlink" clip-rule="evenodd" stroke-miterlimit="10" viewBox="0 0 336 32"><desc>SVG generated by Keynote</desc><defs></defs><g transform="matrix(1.00, 0.00, -0.00, -1.00, 0.0, 32.0)"><text xml:space="preserve" font-family="Helvetica-Light,Helvetica" font-size="27.0" fill="#000000" transform="matrix(1.00, 0.00, -0.00, -1.00, 0.0, 7.7)">•</text><text xml:space="preserve" font-family="Helvetica-Light,Helvetica" font-size="36.0" fill="#000000" transform="matrix(1.00, 0.00, -0.00, -1.00, 35.0, 4.3)">D</text><text xml:space="preserve" font-family="Helvetica-Light,Helvetica" font-size="36.0" fill="#000000" transform="matrix(1.00, 0.00, -0.00, -1.00, 61.0, 4.3)">o</text><text xml:space="preserve" font-family="Helvetica-Light,Helvetica" font-size="36.0" fill="#000000" transform="matrix(1.00, 0.00, -0.00, -1.00, 81.0, 4.3)"> </text><text xml:space="preserve" font-family="Helvetica-Light,Helvetica" font-size="36.0" fill="#000000" transform="matrix(1.00, 0.00, -0.00, -1.00, 91.0, 4.3)">i</text><text xml:space="preserve" font-family="Helvetica-Light,Helvetica" font-size="36.0" fill="#000000" transform="matrix(1.00, 0.00, -0.00, -1.00, 99.0, 4.3)">t</text><text xml:space="preserve" font-family="Helvetica-Light,Helvetica" font-size="36.0" fill="#000000" transform="matrix(1.00, 0.00, -0.00, -1.00, 109.0, 4.3)"> </text><text xml:space="preserve" font-family="Helvetica-Light,Helvetica" font-size="36.0" fill="#000000" transform="matrix(1.00, 0.00, -0.00, -1.00, 119.0, 4.3)">i</text><text xml:space="preserve" font-family="Helvetica-Light,Helvetica" font-size="36.0" fill="#000000" transform="matrix(1.00, 0.00, -0.00, -1.00, 127.0, 4.3)">n</text><text xml:space="preserve" font-family="Helvetica-Light,Helvetica" font-size="36.0" fill="#000000" transform="matrix(1.00, 0.00, -0.00, -1.00, 147.0, 4.3)"> </text><text xml:space="preserve" font-family="Helvetica-Light,Helvetica" font-size="36.0" fill="#000000" transform="matrix(1.00, 0.00, -0.00, -1.00, 157.0, 4.3)">a</text><text xml:space="preserve" font-family="Helvetica-Light,Helvetica" font-size="36.0" fill="#000000" transform="matrix(1.00, 0.00, -0.00, -1.00, 177.1, 4.3)"> </text><text xml:space="preserve" font-family="Helvetica-Light,Helvetica" font-size="36.0" fill="#000000" transform="matrix(1.00, 0.00, -0.00, -1.00, 187.1, 4.3)">D</text><text xml:space="preserve" font-family="Helvetica-Light,Helvetica" font-size="36.0" fill="#000000" transform="matrix(1.00, 0.00, -0.00, -1.00, 213.1, 4.3)">i</text><text xml:space="preserve" font-family="Helvetica-Light,Helvetica" font-size="36.0" fill="#000000" transform="matrix(1.00, 0.00, -0.00, -1.00, 221.0, 4.3)">r</text><text xml:space="preserve" font-family="Helvetica-Light,Helvetica" font-size="36.0" fill="#000000" transform="matrix(1.00, 0.00, -0.00, -1.00, 232.4, 4.3)">e</text><text xml:space="preserve" font-family="Helvetica-Light,Helvetica" font-size="36.0" fill="#000000" transform="matrix(1.00, 0.00, -0.00, -1.00, 252.4, 4.3)">c</text><text xml:space="preserve" font-family="Helvetica-Light,Helvetica" font-size="36.0" fill="#000000" transform="matrix(1.00, 0.00, -0.00, -1.00, 272.4, 4.3)">t</text><text xml:space="preserve" font-family="Helvetica-Light,Helvetica" font-size="36.0" fill="#000000" transform="matrix(1.00, 0.00, -0.00, -1.00, 282.4, 4.3)">i</text><text xml:space="preserve" font-family="Helvetica-Light,Helvetica" font-size="36.0" fill="#000000" transform="matrix(1.00, 0.00, -0.00, -1.00, 290.4, 4.3)">v</text><text xml:space="preserve" font-family="Helvetica-Light,Helvetica" font-size="36.0" fill="#000000" transform="matrix(1.00, 0.00, -0.00, -1.00, 308.4, 4.3)">e</text><text xml:space="preserve" font-family="Helvetica-Light,Helvetica" font-size="36.0" fill="#000000" transform="matrix(1.00, 0.00, -0.00, -1.00, 328.4, 4.3)">.</text></g></svg>