<?xml version="1.0" encoding="UTF-8" standalone="no"?><svg xmlns="http://www.w3.org/2000/svg" xmlns:xlink="http://www.w3.org/1999/xlink" clip-rule="evenodd" stroke-miterlimit="10" viewBox="0 0 932 108"><desc>SVG generated by Keynote</desc><defs></defs><g transform="matrix(1.00, 0.00, -0.00, -1.00, 0.0, 108.0)"><path d="M 1.5 106.5 L 930.5 106.5 L 930.5 1.5 L 1.5 1.5 Z M 1.6 106.5 " fill="#DCDDE0"></path><path d="M -0.1 -0.0 L 928.9 -0.0 L 928.9 105.0 L -0.1 105.0 Z M 0.0 0.0 " fill="none" stroke="#000000" stroke-width="1.00" transform="matrix(1.00, 0.00, 0.00, -1.00, 1.6, 106.5)"></path><g><clipPath id="clip0x6080018a94e0"><path d="M -0.6 -0.8 L 932.6 -0.8 L 932.6 108.7 L -0.6 108.7 Z M -0.6 -0.8 "></path></clipPath><g clip-path="url(#clip0x6080018a94e0)"><text xml:space="preserve" font-family="Courier,Courier" font-size="27.0" fill="#000000" transform="matrix(1.00, 0.00, -0.00, -1.00, 6.1, 76.6)">&lt;</text><text xml:space="preserve" font-family="Courier,Courier" font-size="27.0" fill="#000000" transform="matrix(1.00, 0.00, -0.00, -1.00, 22.3, 76.6)">d</text><text xml:space="preserve" font-family="Courier,Courier" font-size="27.0" fill="#000000" transform="matrix(1.00, 0.00, -0.00, -1.00, 38.5, 76.6)">i</text><text xml:space="preserve" font-family="Courier,Courier" font-size="27.0" fill="#000000" transform="matrix(1.00, 0.00, -0.00, -1.00, 54.7, 76.6)">v</text><text xml:space="preserve" font-family="Courier,Courier" font-size="27.0" fill="#000000" transform="matrix(1.00, 0.00, -0.00, -1.00, 70.9, 76.6)"> </text><text xml:space="preserve" font-family="Courier,Courier" font-size="27.0" fill="#000000" transform="matrix(1.00, 0.00, -0.00, -1.00, 87.1, 76.6)">n</text><text xml:space="preserve" font-family="Courier,Courier" font-size="27.0" fill="#000000" transform="matrix(1.00, 0.00, -0.00, -1.00, 103.4, 76.6)">g</text><text xml:space="preserve" font-family="Courier,Courier" font-size="27.0" fill="#000000" transform="matrix(1.00, 0.00, -0.00, -1.00, 119.6, 76.6)">-</text><text xml:space="preserve" font-family="Courier,Courier" font-size="27.0" fill="#000000" transform="matrix(1.00, 0.00, -0.00, -1.00, 135.8, 76.6)">c</text><text xml:space="preserve" font-family="Courier,Courier" font-size="27.0" fill="#000000" transform="matrix(1.00, 0.00, -0.00, -1.00, 152.0, 76.6)">o</text><text xml:space="preserve" font-family="Courier,Courier" font-size="27.0" fill="#000000" transform="matrix(1.00, 0.00, -0.00, -1.00, 168.2, 76.6)">n</text><text xml:space="preserve" font-family="Courier,Courier" font-size="27.0" fill="#000000" transform="matrix(1.00, 0.00, -0.00, -1.00, 184.4, 76.6)">t</text><text xml:space="preserve" font-family="Courier,Courier" font-size="27.0" fill="#000000" transform="matrix(1.00, 0.00, -0.00, -1.00, 200.6, 76.6)">r</text><text xml:space="preserve" font-family="Courier,Courier" font-size="27.0" fill="#000000" transform="matrix(1.00, 0.00, -0.00, -1.00, 216.8, 76.6)">o</text><text xml:space="preserve" font-family="Courier,Courier" font-size="27.0" fill="#000000" transform="matrix(1.00, 0.00, -0.00, -1.00, 233.0, 76.6)">l</text><text xml:space="preserve" font-family="Courier,Courier" font-size="27.0" fill="#000000" transform="matrix(1.00, 0.00, -0.00, -1.00, 249.2, 76.6)">l</text><text xml:space="preserve" font-family="Courier,Courier" font-size="27.0" fill="#000000" transform="matrix(1.00, 0.00, -0.00, -1.00, 265.4, 76.6)">e</text><text xml:space="preserve" font-family="Courier,Courier" font-size="27.0" fill="#000000" transform="matrix(1.00, 0.00, -0.00, -1.00, 281.6, 76.6)">r</text><text xml:space="preserve" font-family="Courier,Courier" font-size="27.0" fill="#000000" transform="matrix(1.00, 0.00, -0.00, -1.00, 297.8, 76.6)">=</text><text xml:space="preserve" font-family="Courier,Courier" font-size="27.0" fill="#000000" transform="matrix(1.00, 0.00, -0.00, -1.00, 314.0, 76.6)">“</text><text xml:space="preserve" font-family="Courier,Courier" font-size="27.0" fill="#000000" transform="matrix(1.00, 0.00, -0.00, -1.00, 330.2, 76.6)">M</text><text xml:space="preserve" font-family="Courier,Courier" font-size="27.0" fill="#000000" transform="matrix(1.00, 0.00, -0.00, -1.00, 346.4, 76.6)">y</text><text xml:space="preserve" font-family="Courier,Courier" font-size="27.0" fill="#000000" transform="matrix(1.00, 0.00, -0.00, -1.00, 362.6, 76.6)">R</text><text xml:space="preserve" font-family="Courier,Courier" font-size="27.0" fill="#000000" transform="matrix(1.00, 0.00, -0.00, -1.00, 378.8, 76.6)">a</text><text xml:space="preserve" font-family="Courier,Courier" font-size="27.0" fill="#000000" transform="matrix(1.00, 0.00, -0.00, -1.00, 395.0, 76.6)">n</text><text xml:space="preserve" font-family="Courier,Courier" font-size="27.0" fill="#000000" transform="matrix(1.00, 0.00, -0.00, -1.00, 411.2, 76.6)">d</text><text xml:space="preserve" font-family="Courier,Courier" font-size="27.0" fill="#000000" transform="matrix(1.00, 0.00, -0.00, -1.00, 427.4, 76.6)">o</text><text xml:space="preserve" font-family="Courier,Courier" font-size="27.0" fill="#000000" transform="matrix(1.00, 0.00, -0.00, -1.00, 443.6, 76.6)">m</text><text xml:space="preserve" font-family="Courier,Courier" font-size="27.0" fill="#000000" transform="matrix(1.00, 0.00, -0.00, -1.00, 459.8, 76.6)">C</text><text xml:space="preserve" font-family="Courier,Courier" font-size="27.0" fill="#000000" transform="matrix(1.00, 0.00, -0.00, -1.00, 476.0, 76.6)">o</text><text xml:space="preserve" font-family="Courier,Courier" font-size="27.0" fill="#000000" transform="matrix(1.00, 0.00, -0.00, -1.00, 492.2, 76.6)">n</text><text xml:space="preserve" font-family="Courier,Courier" font-size="27.0" fill="#000000" transform="matrix(1.00, 0.00, -0.00, -1.00, 508.4, 76.6)">t</text><text xml:space="preserve" font-family="Courier,Courier" font-size="27.0" fill="#000000" transform="matrix(1.00, 0.00, -0.00, -1.00, 524.6, 76.6)">r</text><text xml:space="preserve" font-family="Courier,Courier" font-size="27.0" fill="#000000" transform="matrix(1.00, 0.00, -0.00, -1.00, 540.8, 76.6)">o</text><text xml:space="preserve" font-family="Courier,Courier" font-size="27.0" fill="#000000" transform="matrix(1.00, 0.00, -0.00, -1.00, 557.0, 76.6)">l</text><text xml:space="preserve" font-family="Courier,Courier" font-size="27.0" fill="#000000" transform="matrix(1.00, 0.00, -0.00, -1.00, 573.2, 76.6)">l</text><text xml:space="preserve" font-family="Courier,Courier" font-size="27.0" fill="#000000" transform="matrix(1.00, 0.00, -0.00, -1.00, 589.4, 76.6)">e</text><text xml:space="preserve" font-family="Courier,Courier" font-size="27.0" fill="#000000" transform="matrix(1.00, 0.00, -0.00, -1.00, 605.6, 76.6)">r</text><text xml:space="preserve" font-family="Courier,Courier" font-size="27.0" fill="#000000" transform="matrix(1.00, 0.00, -0.00, -1.00, 621.8, 76.6)">”</text><text xml:space="preserve" font-family="Courier,Courier" font-size="27.0" fill="#000000" transform="matrix(1.00, 0.00, -0.00, -1.00, 638.0, 76.6)">&gt;</text><text xml:space="preserve" font-family="Courier,Courier" font-size="27.0" fill="#000000" transform="matrix(1.00, 0.00, -0.00, -1.00, 6.1, 44.6)"> </text><text xml:space="preserve" font-family="Courier,Courier" font-size="27.0" fill="#000000" transform="matrix(1.00, 0.00, -0.00, -1.00, 22.3, 44.6)"> </text><text xml:space="preserve" font-family="Courier,Courier" font-size="27.0" fill="#000000" transform="matrix(1.00, 0.00, -0.00, -1.00, 38.5, 44.6)">&lt;</text><text xml:space="preserve" font-family="Courier,Courier" font-size="27.0" fill="#000000" transform="matrix(1.00, 0.00, -0.00, -1.00, 54.7, 44.6)">j</text><text xml:space="preserve" font-family="Courier,Courier" font-size="27.0" fill="#000000" transform="matrix(1.00, 0.00, -0.00, -1.00, 70.9, 44.6)">h</text><text xml:space="preserve" font-family="Courier,Courier" font-size="27.0" fill="#000000" transform="matrix(1.00, 0.00, -0.00, -1.00, 87.2, 44.6)">-</text><text xml:space="preserve" font-family="Courier,Courier" font-size="27.0" fill="#000000" transform="matrix(1.00, 0.00, -0.00, -1.00, 103.4, 44.6)">m</text><text xml:space="preserve" font-family="Courier,Courier" font-size="27.0" fill="#000000" transform="matrix(1.00, 0.00, -0.00, -1.00, 119.6, 44.6)">y</text><text xml:space="preserve" font-family="Courier,Courier" font-size="27.0" fill="#000000" transform="matrix(1.00, 0.00, -0.00, -1.00, 135.8, 44.6)">s</text><text xml:space="preserve" font-family="Courier,Courier" font-size="27.0" fill="#000000" transform="matrix(1.00, 0.00, -0.00, -1.00, 152.0, 44.6)">u</text><text xml:space="preserve" font-family="Courier,Courier" font-size="27.0" fill="#000000" transform="matrix(1.00, 0.00, -0.00, -1.00, 168.2, 44.6)">p</text><text xml:space="preserve" font-family="Courier,Courier" font-size="27.0" fill="#000000" transform="matrix(1.00, 0.00, -0.00, -1.00, 184.4, 44.6)">e</text><text xml:space="preserve" font-family="Courier,Courier" font-size="27.0" fill="#000000" transform="matrix(1.00, 0.00, -0.00, -1.00, 200.6, 44.6)">r</text><text xml:space="preserve" font-family="Courier,Courier" font-size="27.0" fill="#000000" transform="matrix(1.00, 0.00, -0.00, -1.00, 216.8, 44.6)">d</text><text xml:space="preserve" font-family="Courier,Courier" font-size="27.0" fill="#000000" transform="matrix(1.00, 0.00, -0.00, -1.00, 233.0, 44.6)">i</text><text xml:space="preserve" font-family="Courier,Courier" font-size="27.0" fill="#000000" transform="matrix(1.00, 0.00, -0.00, -1.00, 249.2, 44.6)">r</text><text xml:space="preserve" font-family="Courier,Courier" font-size="27.0" fill="#000000" transform="matrix(1.00, 0.00, -0.00, -1.00, 265.4, 44.6)">e</text><text xml:space="preserve" font-family="Courier,Courier" font-size="27.0" fill="#000000" transform="matrix(1.00, 0.00, -0.00, -1.00, 281.6, 44.6)">c</text><text xml:space="preserve" font-family="Courier,Courier" font-size="27.0" fill="#000000" transform="matrix(1.00, 0.00, -0.00, -1.00, 297.8, 44.6)">t</text><text xml:space="preserve" font-family="Courier,Courier" font-size="27.0" fill="#000000" transform="matrix(1.00, 0.00, -0.00, -1.00, 314.0, 44.6)">i</text><text xml:space="preserve" font-family="Courier,Courier" font-size="27.0" fill="#000000" transform="matrix(1.00, 0.00, -0.00, -1.00, 330.2, 44.6)">v</text><text xml:space="preserve" font-family="Courier,Courier" font-size="27.0" fill="#000000" transform="matrix(1.00, 0.00, -0.00, -1.00, 346.4, 44.6)">e</text><text xml:space="preserve" font-family="Courier,Courier" font-size="27.0" fill="#000000" transform="matrix(1.00, 0.00, -0.00, -1.00, 362.6, 44.6)"> </text><text xml:space="preserve" font-family="Courier,Courier" font-size="27.0" fill="#000000" transform="matrix(1.00, 0.00, -0.00, -1.00, 378.8, 44.6)">m</text><text xml:space="preserve" font-family="Courier,Courier" font-size="27.0" fill="#000000" transform="matrix(1.00, 0.00, -0.00, -1.00, 395.0, 44.6)">y</text><text xml:space="preserve" font-family="Courier,Courier" font-size="27.0" fill="#000000" transform="matrix(1.00, 0.00, -0.00, -1.00, 411.2, 44.6)">-</text><text xml:space="preserve" font-family="Courier,Courier" font-size="27.0" fill="#000000" transform="matrix(1.00, 0.00, -0.00, -1.00, 427.4, 44.6)">a</text><text xml:space="preserve" font-family="Courier,Courier" font-size="27.0" fill="#000000" transform="matrix(1.00, 0.00, -0.00, -1.00, 443.6, 44.6)">p</text><text xml:space="preserve" font-family="Courier,Courier" font-size="27.0" fill="#000000" transform="matrix(1.00, 0.00, -0.00, -1.00, 459.8, 44.6)">p</text><text xml:space="preserve" font-family="Courier,Courier" font-size="27.0" fill="#000000" transform="matrix(1.00, 0.00, -0.00, -1.00, 476.0, 44.6)">-</text><text xml:space="preserve" font-family="Courier,Courier" font-size="27.0" fill="#000000" transform="matrix(1.00, 0.00, -0.00, -1.00, 492.2, 44.6)">s</text><text xml:space="preserve" font-family="Courier,Courier" font-size="27.0" fill="#000000" transform="matrix(1.00, 0.00, -0.00, -1.00, 508.4, 44.6)">t</text><text xml:space="preserve" font-family="Courier,Courier" font-size="27.0" fill="#000000" transform="matrix(1.00, 0.00, -0.00, -1.00, 524.6, 44.6)">a</text><text xml:space="preserve" font-family="Courier,Courier" font-size="27.0" fill="#000000" transform="matrix(1.00, 0.00, -0.00, -1.00, 540.8, 44.6)">t</text><text xml:space="preserve" font-family="Courier,Courier" font-size="27.0" fill="#000000" transform="matrix(1.00, 0.00, -0.00, -1.00, 557.0, 44.6)">e</text><text xml:space="preserve" font-family="Courier,Courier" font-size="27.0" fill="#000000" transform="matrix(1.00, 0.00, -0.00, -1.00, 573.2, 44.6)">=</text><text xml:space="preserve" font-family="Courier,Courier" font-size="27.0" fill="#000000" transform="matrix(1.00, 0.00, -0.00, -1.00, 589.4, 44.6)">“</text><text xml:space="preserve" font-family="Courier,Courier" font-size="27.0" fill="#000000" transform="matrix(1.00, 0.00, -0.00, -1.00, 605.6, 44.6)">a</text><text xml:space="preserve" font-family="Courier,Courier" font-size="27.0" fill="#000000" transform="matrix(1.00, 0.00, -0.00, -1.00, 621.8, 44.6)">p</text><text xml:space="preserve" font-family="Courier,Courier" font-size="27.0" fill="#000000" transform="matrix(1.00, 0.00, -0.00, -1.00, 638.0, 44.6)">p</text><text xml:space="preserve" font-family="Courier,Courier" font-size="27.0" fill="#000000" transform="matrix(1.00, 0.00, -0.00, -1.00, 654.2, 44.6)">S</text><text xml:space="preserve" font-family="Courier,Courier" font-size="27.0" fill="#000000" transform="matrix(1.00, 0.00, -0.00, -1.00, 670.4, 44.6)">t</text><text xml:space="preserve" font-family="Courier,Courier" font-size="27.0" fill="#000000" transform="matrix(1.00, 0.00, -0.00, -1.00, 686.7, 44.6)">a</text><text xml:space="preserve" font-family="Courier,Courier" font-size="27.0" fill="#000000" transform="matrix(1.00, 0.00, -0.00, -1.00, 702.9, 44.6)">t</text><text xml:space="preserve" font-family="Courier,Courier" font-size="27.0" fill="#000000" transform="matrix(1.00, 0.00, -0.00, -1.00, 719.1, 44.6)">e</text><text xml:space="preserve" font-family="Courier,Courier" font-size="27.0" fill="#000000" transform="matrix(1.00, 0.00, -0.00, -1.00, 735.3, 44.6)">”</text><text xml:space="preserve" font-family="Courier,Courier" font-size="27.0" fill="#000000" transform="matrix(1.00, 0.00, -0.00, -1.00, 751.5, 44.6)"> </text><text xml:space="preserve" font-family="Courier,Courier" font-size="27.0" fill="#000000" transform="matrix(1.00, 0.00, -0.00, -1.00, 767.7, 44.6)">/</text><text xml:space="preserve" font-family="Courier,Courier" font-size="27.0" fill="#000000" transform="matrix(1.00, 0.00, -0.00, -1.00, 783.9, 44.6)">&gt;</text><text xml:space="preserve" font-family="Courier,Courier" font-size="27.0" fill="#000000" transform="matrix(1.00, 0.00, -0.00, -1.00, 6.1, 12.6)">&lt;</text><text xml:space="preserve" font-family="Courier,Courier" font-size="27.0" fill="#000000" transform="matrix(1.00, 0.00, -0.00, -1.00, 22.3, 12.6)">/</text><text xml:space="preserve" font-family="Courier,Courier" font-size="27.0" fill="#000000" transform="matrix(1.00, 0.00, -0.00, -1.00, 38.5, 12.6)">d</text><text xml:space="preserve" font-family="Courier,Courier" font-size="27.0" fill="#000000" transform="matrix(1.00, 0.00, -0.00, -1.00, 54.7, 12.6)">i</text><text xml:space="preserve" font-family="Courier,Courier" font-size="27.0" fill="#000000" transform="matrix(1.00, 0.00, -0.00, -1.00, 70.9, 12.6)">v</text><text xml:space="preserve" font-family="Courier,Courier" font-size="27.0" fill="#000000" transform="matrix(1.00, 0.00, -0.00, -1.00, 87.1, 12.6)">&gt;</text></g></g></g></svg>