<?xml version="1.0" encoding="UTF-8" standalone="no"?><svg xmlns="http://www.w3.org/2000/svg" xmlns:xlink="http://www.w3.org/1999/xlink" clip-rule="evenodd" stroke-miterlimit="10" viewBox="0 0 847 142"><desc>SVG generated by Keynote</desc><defs></defs><g transform="matrix(1.00, 0.00, -0.00, -1.00, 0.0, 142.0)"><path d="M 2.5 139.5 L 844.5 139.5 L 844.5 2.5 L 2.5 2.5 Z M 2.3 139.5 " fill="#DCDDE0"></path><path d="M 0.2 0.0 L 842.2 0.0 L 842.2 137.0 L 0.2 137.0 Z M 0.0 0.0 " fill="none" stroke="#000000" stroke-width="1.00" transform="matrix(1.00, 0.00, 0.00, -1.00, 2.3, 139.5)"></path><g><clipPath id="clip0x6000016bd280"><path d="M 0.1 0.3 L 846.9 0.3 L 846.9 141.8 L 0.1 141.8 Z M 0.1 0.3 "></path></clipPath><g clip-path="url(#clip0x6000016bd280)"><text xml:space="preserve" font-family="Courier,Courier" font-size="27.0" fill="#000000" transform="matrix(1.00, 0.00, -0.00, -1.00, 6.8, 109.6)">&lt;</text><text xml:space="preserve" font-family="Courier,Courier" font-size="27.0" fill="#000000" transform="matrix(1.00, 0.00, -0.00, -1.00, 23.0, 109.6)">d</text><text xml:space="preserve" font-family="Courier,Courier" font-size="27.0" fill="#000000" transform="matrix(1.00, 0.00, -0.00, -1.00, 39.3, 109.6)">i</text><text xml:space="preserve" font-family="Courier,Courier" font-size="27.0" fill="#000000" transform="matrix(1.00, 0.00, -0.00, -1.00, 55.5, 109.6)">v</text><text xml:space="preserve" font-family="Courier,Courier" font-size="27.0" fill="#000000" transform="matrix(1.00, 0.00, -0.00, -1.00, 71.7, 109.6)"> </text><text xml:space="preserve" font-family="Courier,Courier" font-size="27.0" fill="#000000" transform="matrix(1.00, 0.00, -0.00, -1.00, 87.9, 109.6)">n</text><text xml:space="preserve" font-family="Courier,Courier" font-size="27.0" fill="#000000" transform="matrix(1.00, 0.00, -0.00, -1.00, 104.1, 109.6)">g</text><text xml:space="preserve" font-family="Courier,Courier" font-size="27.0" fill="#000000" transform="matrix(1.00, 0.00, -0.00, -1.00, 120.3, 109.6)">-</text><text xml:space="preserve" font-family="Courier,Courier" font-size="27.0" fill="#000000" transform="matrix(1.00, 0.00, -0.00, -1.00, 136.5, 109.6)">c</text><text xml:space="preserve" font-family="Courier,Courier" font-size="27.0" fill="#000000" transform="matrix(1.00, 0.00, -0.00, -1.00, 152.7, 109.6)">o</text><text xml:space="preserve" font-family="Courier,Courier" font-size="27.0" fill="#000000" transform="matrix(1.00, 0.00, -0.00, -1.00, 168.9, 109.6)">n</text><text xml:space="preserve" font-family="Courier,Courier" font-size="27.0" fill="#000000" transform="matrix(1.00, 0.00, -0.00, -1.00, 185.1, 109.6)">t</text><text xml:space="preserve" font-family="Courier,Courier" font-size="27.0" fill="#000000" transform="matrix(1.00, 0.00, -0.00, -1.00, 201.3, 109.6)">r</text><text xml:space="preserve" font-family="Courier,Courier" font-size="27.0" fill="#000000" transform="matrix(1.00, 0.00, -0.00, -1.00, 217.5, 109.6)">o</text><text xml:space="preserve" font-family="Courier,Courier" font-size="27.0" fill="#000000" transform="matrix(1.00, 0.00, -0.00, -1.00, 233.7, 109.6)">l</text><text xml:space="preserve" font-family="Courier,Courier" font-size="27.0" fill="#000000" transform="matrix(1.00, 0.00, -0.00, -1.00, 249.9, 109.6)">l</text><text xml:space="preserve" font-family="Courier,Courier" font-size="27.0" fill="#000000" transform="matrix(1.00, 0.00, -0.00, -1.00, 266.1, 109.6)">e</text><text xml:space="preserve" font-family="Courier,Courier" font-size="27.0" fill="#000000" transform="matrix(1.00, 0.00, -0.00, -1.00, 282.3, 109.6)">r</text><text xml:space="preserve" font-family="Courier,Courier" font-size="27.0" fill="#000000" transform="matrix(1.00, 0.00, -0.00, -1.00, 298.5, 109.6)">=</text><text xml:space="preserve" font-family="Courier,Courier" font-size="27.0" fill="#000000" transform="matrix(1.00, 0.00, -0.00, -1.00, 314.7, 109.6)">“</text><text xml:space="preserve" font-family="Courier,Courier" font-size="27.0" fill="#000000" transform="matrix(1.00, 0.00, -0.00, -1.00, 330.9, 109.6)">M</text><text xml:space="preserve" font-family="Courier,Courier" font-size="27.0" fill="#000000" transform="matrix(1.00, 0.00, -0.00, -1.00, 347.1, 109.6)">y</text><text xml:space="preserve" font-family="Courier,Courier" font-size="27.0" fill="#000000" transform="matrix(1.00, 0.00, -0.00, -1.00, 363.3, 109.6)">C</text><text xml:space="preserve" font-family="Courier,Courier" font-size="27.0" fill="#000000" transform="matrix(1.00, 0.00, -0.00, -1.00, 379.5, 109.6)">o</text><text xml:space="preserve" font-family="Courier,Courier" font-size="27.0" fill="#000000" transform="matrix(1.00, 0.00, -0.00, -1.00, 395.7, 109.6)">n</text><text xml:space="preserve" font-family="Courier,Courier" font-size="27.0" fill="#000000" transform="matrix(1.00, 0.00, -0.00, -1.00, 411.9, 109.6)">t</text><text xml:space="preserve" font-family="Courier,Courier" font-size="27.0" fill="#000000" transform="matrix(1.00, 0.00, -0.00, -1.00, 428.1, 109.6)">r</text><text xml:space="preserve" font-family="Courier,Courier" font-size="27.0" fill="#000000" transform="matrix(1.00, 0.00, -0.00, -1.00, 444.3, 109.6)">o</text><text xml:space="preserve" font-family="Courier,Courier" font-size="27.0" fill="#000000" transform="matrix(1.00, 0.00, -0.00, -1.00, 460.5, 109.6)">l</text><text xml:space="preserve" font-family="Courier,Courier" font-size="27.0" fill="#000000" transform="matrix(1.00, 0.00, -0.00, -1.00, 476.7, 109.6)">l</text><text xml:space="preserve" font-family="Courier,Courier" font-size="27.0" fill="#000000" transform="matrix(1.00, 0.00, -0.00, -1.00, 492.9, 109.6)">e</text><text xml:space="preserve" font-family="Courier,Courier" font-size="27.0" fill="#000000" transform="matrix(1.00, 0.00, -0.00, -1.00, 509.1, 109.6)">r</text><text xml:space="preserve" font-family="Courier,Courier" font-size="27.0" fill="#000000" transform="matrix(1.00, 0.00, -0.00, -1.00, 525.3, 109.6)">”</text><text xml:space="preserve" font-family="Courier,Courier" font-size="27.0" fill="#000000" transform="matrix(1.00, 0.00, -0.00, -1.00, 541.5, 109.6)">&gt;</text><text xml:space="preserve" font-family="Courier,Courier" font-size="27.0" fill="#000000" transform="matrix(1.00, 0.00, -0.00, -1.00, 6.8, 77.6)"> </text><text xml:space="preserve" font-family="Courier,Courier" font-size="27.0" fill="#000000" transform="matrix(1.00, 0.00, -0.00, -1.00, 23.1, 77.6)"> </text><text xml:space="preserve" font-family="Courier,Courier" font-size="27.0" fill="#000000" transform="matrix(1.00, 0.00, -0.00, -1.00, 39.3, 77.6)">&lt;</text><text xml:space="preserve" font-family="Courier,Courier" font-size="27.0" fill="#000000" transform="matrix(1.00, 0.00, -0.00, -1.00, 55.5, 77.6)">j</text><text xml:space="preserve" font-family="Courier,Courier" font-size="27.0" fill="#000000" transform="matrix(1.00, 0.00, -0.00, -1.00, 71.7, 77.6)">h</text><text xml:space="preserve" font-family="Courier,Courier" font-size="27.0" fill="#000000" transform="matrix(1.00, 0.00, -0.00, -1.00, 87.9, 77.6)">-</text><text xml:space="preserve" font-family="Courier,Courier" font-size="27.0" fill="#000000" transform="matrix(1.00, 0.00, -0.00, -1.00, 104.1, 77.6)">m</text><text xml:space="preserve" font-family="Courier,Courier" font-size="27.0" fill="#000000" transform="matrix(1.00, 0.00, -0.00, -1.00, 120.3, 77.6)">y</text><text xml:space="preserve" font-family="Courier,Courier" font-size="27.0" fill="#000000" transform="matrix(1.00, 0.00, -0.00, -1.00, 136.5, 77.6)">s</text><text xml:space="preserve" font-family="Courier,Courier" font-size="27.0" fill="#000000" transform="matrix(1.00, 0.00, -0.00, -1.00, 152.7, 77.6)">u</text><text xml:space="preserve" font-family="Courier,Courier" font-size="27.0" fill="#000000" transform="matrix(1.00, 0.00, -0.00, -1.00, 168.9, 77.6)">p</text><text xml:space="preserve" font-family="Courier,Courier" font-size="27.0" fill="#000000" transform="matrix(1.00, 0.00, -0.00, -1.00, 185.1, 77.6)">e</text><text xml:space="preserve" font-family="Courier,Courier" font-size="27.0" fill="#000000" transform="matrix(1.00, 0.00, -0.00, -1.00, 201.3, 77.6)">r</text><text xml:space="preserve" font-family="Courier,Courier" font-size="27.0" fill="#000000" transform="matrix(1.00, 0.00, -0.00, -1.00, 217.5, 77.6)">d</text><text xml:space="preserve" font-family="Courier,Courier" font-size="27.0" fill="#000000" transform="matrix(1.00, 0.00, -0.00, -1.00, 233.7, 77.6)">i</text><text xml:space="preserve" font-family="Courier,Courier" font-size="27.0" fill="#000000" transform="matrix(1.00, 0.00, -0.00, -1.00, 249.9, 77.6)">r</text><text xml:space="preserve" font-family="Courier,Courier" font-size="27.0" fill="#000000" transform="matrix(1.00, 0.00, -0.00, -1.00, 266.1, 77.6)">e</text><text xml:space="preserve" font-family="Courier,Courier" font-size="27.0" fill="#000000" transform="matrix(1.00, 0.00, -0.00, -1.00, 282.3, 77.6)">c</text><text xml:space="preserve" font-family="Courier,Courier" font-size="27.0" fill="#000000" transform="matrix(1.00, 0.00, -0.00, -1.00, 298.5, 77.6)">t</text><text xml:space="preserve" font-family="Courier,Courier" font-size="27.0" fill="#000000" transform="matrix(1.00, 0.00, -0.00, -1.00, 314.7, 77.6)">i</text><text xml:space="preserve" font-family="Courier,Courier" font-size="27.0" fill="#000000" transform="matrix(1.00, 0.00, -0.00, -1.00, 330.9, 77.6)">v</text><text xml:space="preserve" font-family="Courier,Courier" font-size="27.0" fill="#000000" transform="matrix(1.00, 0.00, -0.00, -1.00, 347.1, 77.6)">e</text><text xml:space="preserve" font-family="Courier,Courier" font-size="27.0" fill="#000000" transform="matrix(1.00, 0.00, -0.00, -1.00, 363.3, 77.6)"> </text><text xml:space="preserve" font-family="Courier,Courier" font-size="27.0" fill="#000000" transform="matrix(1.00, 0.00, -0.00, -1.00, 379.5, 77.6)">m</text><text xml:space="preserve" font-family="Courier,Courier" font-size="27.0" fill="#000000" transform="matrix(1.00, 0.00, -0.00, -1.00, 395.7, 77.6)">y</text><text xml:space="preserve" font-family="Courier,Courier" font-size="27.0" fill="#000000" transform="matrix(1.00, 0.00, -0.00, -1.00, 411.9, 77.6)">-</text><text xml:space="preserve" font-family="Courier,Courier" font-size="27.0" fill="#000000" transform="matrix(1.00, 0.00, -0.00, -1.00, 428.1, 77.6)">i</text><text xml:space="preserve" font-family="Courier,Courier" font-size="27.0" fill="#000000" transform="matrix(1.00, 0.00, -0.00, -1.00, 444.3, 77.6)">n</text><text xml:space="preserve" font-family="Courier,Courier" font-size="27.0" fill="#000000" transform="matrix(1.00, 0.00, -0.00, -1.00, 460.5, 77.6)">p</text><text xml:space="preserve" font-family="Courier,Courier" font-size="27.0" fill="#000000" transform="matrix(1.00, 0.00, -0.00, -1.00, 476.7, 77.6)">u</text><text xml:space="preserve" font-family="Courier,Courier" font-size="27.0" fill="#000000" transform="matrix(1.00, 0.00, -0.00, -1.00, 492.9, 77.6)">t</text><text xml:space="preserve" font-family="Courier,Courier" font-size="27.0" fill="#000000" transform="matrix(1.00, 0.00, -0.00, -1.00, 509.1, 77.6)">-</text><text xml:space="preserve" font-family="Courier,Courier" font-size="27.0" fill="#000000" transform="matrix(1.00, 0.00, -0.00, -1.00, 525.3, 77.6)">v</text><text xml:space="preserve" font-family="Courier,Courier" font-size="27.0" fill="#000000" transform="matrix(1.00, 0.00, -0.00, -1.00, 541.5, 77.6)">a</text><text xml:space="preserve" font-family="Courier,Courier" font-size="27.0" fill="#000000" transform="matrix(1.00, 0.00, -0.00, -1.00, 557.7, 77.6)">l</text><text xml:space="preserve" font-family="Courier,Courier" font-size="27.0" fill="#000000" transform="matrix(1.00, 0.00, -0.00, -1.00, 573.9, 77.6)">u</text><text xml:space="preserve" font-family="Courier,Courier" font-size="27.0" fill="#000000" transform="matrix(1.00, 0.00, -0.00, -1.00, 590.1, 77.6)">e</text><text xml:space="preserve" font-family="Courier,Courier" font-size="27.0" fill="#000000" transform="matrix(1.00, 0.00, -0.00, -1.00, 606.4, 77.6)">=</text><text xml:space="preserve" font-family="Courier,Courier" font-size="27.0" fill="#000000" transform="matrix(1.00, 0.00, -0.00, -1.00, 622.6, 77.6)">“</text><text xml:space="preserve" font-family="Courier,Courier" font-size="27.0" fill="#000000" transform="matrix(1.00, 0.00, -0.00, -1.00, 638.8, 77.6)">b</text><text xml:space="preserve" font-family="Courier,Courier" font-size="27.0" fill="#000000" transform="matrix(1.00, 0.00, -0.00, -1.00, 655.0, 77.6)">l</text><text xml:space="preserve" font-family="Courier,Courier" font-size="27.0" fill="#000000" transform="matrix(1.00, 0.00, -0.00, -1.00, 671.2, 77.6)">a</text><text xml:space="preserve" font-family="Courier,Courier" font-size="27.0" fill="#000000" transform="matrix(1.00, 0.00, -0.00, -1.00, 687.4, 77.6)">r</text><text xml:space="preserve" font-family="Courier,Courier" font-size="27.0" fill="#000000" transform="matrix(1.00, 0.00, -0.00, -1.00, 703.6, 77.6)">g</text><text xml:space="preserve" font-family="Courier,Courier" font-size="27.0" fill="#000000" transform="matrix(1.00, 0.00, -0.00, -1.00, 719.8, 77.6)">!</text><text xml:space="preserve" font-family="Courier,Courier" font-size="27.0" fill="#000000" transform="matrix(1.00, 0.00, -0.00, -1.00, 736.0, 77.6)">”</text><text xml:space="preserve" font-family="Courier,Courier" font-size="27.0" fill="#000000" transform="matrix(1.00, 0.00, -0.00, -1.00, 752.2, 77.6)">&gt;</text><text xml:space="preserve" font-family="Courier,Courier" font-size="27.0" fill="#000000" transform="matrix(1.00, 0.00, -0.00, -1.00, 6.8, 45.6)"> </text><text xml:space="preserve" font-family="Courier,Courier" font-size="27.0" fill="#000000" transform="matrix(1.00, 0.00, -0.00, -1.00, 23.1, 45.6)"> </text><text xml:space="preserve" font-family="Courier,Courier" font-size="27.0" fill="#000000" transform="matrix(1.00, 0.00, -0.00, -1.00, 39.3, 45.6)">&lt;</text><text xml:space="preserve" font-family="Courier,Courier" font-size="27.0" fill="#000000" transform="matrix(1.00, 0.00, -0.00, -1.00, 55.5, 45.6)">/</text><text xml:space="preserve" font-family="Courier,Courier" font-size="27.0" fill="#000000" transform="matrix(1.00, 0.00, -0.00, -1.00, 71.7, 45.6)">j</text><text xml:space="preserve" font-family="Courier,Courier" font-size="27.0" fill="#000000" transform="matrix(1.00, 0.00, -0.00, -1.00, 87.9, 45.6)">h</text><text xml:space="preserve" font-family="Courier,Courier" font-size="27.0" fill="#000000" transform="matrix(1.00, 0.00, -0.00, -1.00, 104.1, 45.6)">-</text><text xml:space="preserve" font-family="Courier,Courier" font-size="27.0" fill="#000000" transform="matrix(1.00, 0.00, -0.00, -1.00, 120.3, 45.6)">m</text><text xml:space="preserve" font-family="Courier,Courier" font-size="27.0" fill="#000000" transform="matrix(1.00, 0.00, -0.00, -1.00, 136.5, 45.6)">y</text><text xml:space="preserve" font-family="Courier,Courier" font-size="27.0" fill="#000000" transform="matrix(1.00, 0.00, -0.00, -1.00, 152.7, 45.6)">s</text><text xml:space="preserve" font-family="Courier,Courier" font-size="27.0" fill="#000000" transform="matrix(1.00, 0.00, -0.00, -1.00, 168.9, 45.6)">u</text><text xml:space="preserve" font-family="Courier,Courier" font-size="27.0" fill="#000000" transform="matrix(1.00, 0.00, -0.00, -1.00, 185.1, 45.6)">p</text><text xml:space="preserve" font-family="Courier,Courier" font-size="27.0" fill="#000000" transform="matrix(1.00, 0.00, -0.00, -1.00, 201.3, 45.6)">e</text><text xml:space="preserve" font-family="Courier,Courier" font-size="27.0" fill="#000000" transform="matrix(1.00, 0.00, -0.00, -1.00, 217.5, 45.6)">r</text><text xml:space="preserve" font-family="Courier,Courier" font-size="27.0" fill="#000000" transform="matrix(1.00, 0.00, -0.00, -1.00, 233.7, 45.6)">d</text><text xml:space="preserve" font-family="Courier,Courier" font-size="27.0" fill="#000000" transform="matrix(1.00, 0.00, -0.00, -1.00, 249.9, 45.6)">i</text><text xml:space="preserve" font-family="Courier,Courier" font-size="27.0" fill="#000000" transform="matrix(1.00, 0.00, -0.00, -1.00, 266.1, 45.6)">r</text><text xml:space="preserve" font-family="Courier,Courier" font-size="27.0" fill="#000000" transform="matrix(1.00, 0.00, -0.00, -1.00, 282.3, 45.6)">e</text><text xml:space="preserve" font-family="Courier,Courier" font-size="27.0" fill="#000000" transform="matrix(1.00, 0.00, -0.00, -1.00, 298.5, 45.6)">c</text><text xml:space="preserve" font-family="Courier,Courier" font-size="27.0" fill="#000000" transform="matrix(1.00, 0.00, -0.00, -1.00, 314.7, 45.6)">t</text><text xml:space="preserve" font-family="Courier,Courier" font-size="27.0" fill="#000000" transform="matrix(1.00, 0.00, -0.00, -1.00, 330.9, 45.6)">i</text><text xml:space="preserve" font-family="Courier,Courier" font-size="27.0" fill="#000000" transform="matrix(1.00, 0.00, -0.00, -1.00, 347.1, 45.6)">v</text><text xml:space="preserve" font-family="Courier,Courier" font-size="27.0" fill="#000000" transform="matrix(1.00, 0.00, -0.00, -1.00, 363.3, 45.6)">e</text><text xml:space="preserve" font-family="Courier,Courier" font-size="27.0" fill="#000000" transform="matrix(1.00, 0.00, -0.00, -1.00, 379.5, 45.6)">&gt;</text><text xml:space="preserve" font-family="Courier,Courier" font-size="27.0" fill="#000000" transform="matrix(1.00, 0.00, -0.00, -1.00, 6.8, 13.6)">&lt;</text><text xml:space="preserve" font-family="Courier,Courier" font-size="27.0" fill="#000000" transform="matrix(1.00, 0.00, -0.00, -1.00, 23.0, 13.6)">/</text><text xml:space="preserve" font-family="Courier,Courier" font-size="27.0" fill="#000000" transform="matrix(1.00, 0.00, -0.00, -1.00, 39.3, 13.6)">d</text><text xml:space="preserve" font-family="Courier,Courier" font-size="27.0" fill="#000000" transform="matrix(1.00, 0.00, -0.00, -1.00, 55.5, 13.6)">i</text><text xml:space="preserve" font-family="Courier,Courier" font-size="27.0" fill="#000000" transform="matrix(1.00, 0.00, -0.00, -1.00, 71.7, 13.6)">v</text><text xml:space="preserve" font-family="Courier,Courier" font-size="27.0" fill="#000000" transform="matrix(1.00, 0.00, -0.00, -1.00, 87.9, 13.6)">&gt;</text></g></g></g></svg>