<?xml version="1.0" encoding="UTF-8" standalone="no"?><svg xmlns="http://www.w3.org/2000/svg" xmlns:xlink="http://www.w3.org/1999/xlink" clip-rule="evenodd" stroke-miterlimit="10" viewBox="0 0 166 25"><desc>SVG generated by Keynote</desc><defs></defs><g transform="matrix(1.00, 0.00, -0.00, -1.00, 0.0, 25.0)"><text xml:space="preserve" font-family="Helvetica-Light,Helvetica" font-size="20.8" fill="#000000" transform="matrix(1.00, 0.00, -0.00, -1.00, 0.0, 5.3)">•</text><text xml:space="preserve" font-family="Helvetica-Light,Helvetica" font-size="27.7" fill="#000000" transform="matrix(1.00, 0.00, -0.00, -1.00, 26.9, 3.4)">Q</text><text xml:space="preserve" font-family="Helvetica-Light,Helvetica" font-size="27.7" fill="#000000" transform="matrix(1.00, 0.00, -0.00, -1.00, 48.5, 3.4)">u</text><text xml:space="preserve" font-family="Helvetica-Light,Helvetica" font-size="27.7" fill="#000000" transform="matrix(1.00, 0.00, -0.00, -1.00, 63.9, 3.4)">e</text><text xml:space="preserve" font-family="Helvetica-Light,Helvetica" font-size="27.7" fill="#000000" transform="matrix(1.00, 0.00, -0.00, -1.00, 79.3, 3.4)">s</text><text xml:space="preserve" font-family="Helvetica-Light,Helvetica" font-size="27.7" fill="#000000" transform="matrix(1.00, 0.00, -0.00, -1.00, 93.2, 3.4)">t</text><text xml:space="preserve" font-family="Helvetica-Light,Helvetica" font-size="27.7" fill="#000000" transform="matrix(1.00, 0.00, -0.00, -1.00, 100.9, 3.4)">i</text><text xml:space="preserve" font-family="Helvetica-Light,Helvetica" font-size="27.7" fill="#000000" transform="matrix(1.00, 0.00, -0.00, -1.00, 107.1, 3.4)">o</text><text xml:space="preserve" font-family="Helvetica-Light,Helvetica" font-size="27.7" fill="#000000" transform="matrix(1.00, 0.00, -0.00, -1.00, 122.5, 3.4)">n</text><text xml:space="preserve" font-family="Helvetica-Light,Helvetica" font-size="27.7" fill="#000000" transform="matrix(1.00, 0.00, -0.00, -1.00, 137.9, 3.4)">s</text><text xml:space="preserve" font-family="Helvetica-Light,Helvetica" font-size="27.7" fill="#000000" transform="matrix(1.00, 0.00, -0.00, -1.00, 151.7, 3.4)">?</text></g></svg>