<?xml version="1.0" encoding="UTF-8" standalone="no"?><svg xmlns="http://www.w3.org/2000/svg" xmlns:xlink="http://www.w3.org/1999/xlink" clip-rule="evenodd" stroke-miterlimit="10" viewBox="0 0 554 24"><desc>SVG generated by Keynote</desc><defs></defs><g transform="matrix(1.00, 0.00, -0.00, -1.00, 0.0, 24.0)"><text xml:space="preserve" font-family="Helvetica-Light,Helvetica" font-size="20.8" fill="#000000" transform="matrix(1.00, 0.00, -0.00, -1.00, 0.0, 4.9)">•</text><text xml:space="preserve" font-family="Helvetica-Light,Helvetica" font-size="27.7" fill="#000000" transform="matrix(1.00, 0.00, -0.00, -1.00, 26.9, 3.0)">L</text><text xml:space="preserve" font-family="Helvetica-Light,Helvetica" font-size="27.7" fill="#000000" transform="matrix(1.00, 0.00, -0.00, -1.00, 42.4, 3.0)">3</text><text xml:space="preserve" font-family="Helvetica-Light,Helvetica" font-size="27.7" fill="#000000" transform="matrix(1.00, 0.00, -0.00, -1.00, 57.8, 3.0)">4</text><text xml:space="preserve" font-family="Helvetica-Light,Helvetica" font-size="27.7" fill="#000000" transform="matrix(1.00, 0.00, -0.00, -1.00, 73.2, 3.0)">r</text><text xml:space="preserve" font-family="Helvetica-Light,Helvetica" font-size="27.7" fill="#000000" transform="matrix(1.00, 0.00, -0.00, -1.00, 82.9, 3.0)">n</text><text xml:space="preserve" font-family="Helvetica-Light,Helvetica" font-size="27.7" fill="#000000" transform="matrix(1.00, 0.00, -0.00, -1.00, 98.3, 3.0)">2</text><text xml:space="preserve" font-family="Helvetica-Light,Helvetica" font-size="27.7" fill="#000000" transform="matrix(1.00, 0.00, -0.00, -1.00, 113.7, 3.0)">T</text><text xml:space="preserve" font-family="Helvetica-Light,Helvetica" font-size="27.7" fill="#000000" transform="matrix(1.00, 0.00, -0.00, -1.00, 129.2, 3.0)">3</text><text xml:space="preserve" font-family="Helvetica-Light,Helvetica" font-size="27.7" fill="#000000" transform="matrix(1.00, 0.00, -0.00, -1.00, 144.6, 3.0)">5</text><text xml:space="preserve" font-family="Helvetica-Light,Helvetica" font-size="27.7" fill="#000000" transform="matrix(1.00, 0.00, -0.00, -1.00, 160.0, 3.0)">t</text><text xml:space="preserve" font-family="Helvetica-Light,Helvetica" font-size="27.7" fill="#000000" transform="matrix(1.00, 0.00, -0.00, -1.00, 167.7, 3.0)"> </text><text xml:space="preserve" font-family="Helvetica-Light,Helvetica" font-size="27.7" fill="#000000" transform="matrix(1.00, 0.00, -0.00, -1.00, 175.4, 3.0)">n</text><text xml:space="preserve" font-family="Helvetica-Light,Helvetica" font-size="27.7" fill="#000000" transform="matrix(1.00, 0.00, -0.00, -1.00, 190.8, 3.0)">0</text><text xml:space="preserve" font-family="Helvetica-Light,Helvetica" font-size="27.7" fill="#000000" transform="matrix(1.00, 0.00, -0.00, -1.00, 206.2, 3.0)">0</text><text xml:space="preserve" font-family="Helvetica-Light,Helvetica" font-size="27.7" fill="#000000" transform="matrix(1.00, 0.00, -0.00, -1.00, 221.6, 3.0)">b</text><text xml:space="preserve" font-family="Helvetica-Light,Helvetica" font-size="27.7" fill="#000000" transform="matrix(1.00, 0.00, -0.00, -1.00, 238.6, 3.0)">!</text><text xml:space="preserve" font-family="Helvetica-Light,Helvetica" font-size="27.7" fill="#000000" transform="matrix(1.00, 0.00, -0.00, -1.00, 247.8, 3.0)"> </text><text xml:space="preserve" font-family="Helvetica-Light,Helvetica" font-size="27.7" fill="#000000" transform="matrix(1.00, 0.00, -0.00, -1.00, 255.5, 3.0)">Y</text><text xml:space="preserve" font-family="Helvetica-Light,Helvetica" font-size="27.7" fill="#000000" transform="matrix(1.00, 0.00, -0.00, -1.00, 269.9, 3.0)">o</text><text xml:space="preserve" font-family="Helvetica-Light,Helvetica" font-size="27.7" fill="#000000" transform="matrix(1.00, 0.00, -0.00, -1.00, 285.3, 3.0)">u</text><text xml:space="preserve" font-family="Helvetica-Light,Helvetica" font-size="27.7" fill="#000000" transform="matrix(1.00, 0.00, -0.00, -1.00, 300.7, 3.0)">r</text><text xml:space="preserve" font-family="Helvetica-Light,Helvetica" font-size="27.7" fill="#000000" transform="matrix(1.00, 0.00, -0.00, -1.00, 309.9, 3.0)"> </text><text xml:space="preserve" font-family="Helvetica-Light,Helvetica" font-size="27.7" fill="#000000" transform="matrix(1.00, 0.00, -0.00, -1.00, 317.6, 3.0)">c</text><text xml:space="preserve" font-family="Helvetica-Light,Helvetica" font-size="27.7" fill="#000000" transform="matrix(1.00, 0.00, -0.00, -1.00, 333.1, 3.0)">o</text><text xml:space="preserve" font-family="Helvetica-Light,Helvetica" font-size="27.7" fill="#000000" transform="matrix(1.00, 0.00, -0.00, -1.00, 348.5, 3.0)">d</text><text xml:space="preserve" font-family="Helvetica-Light,Helvetica" font-size="27.7" fill="#000000" transform="matrix(1.00, 0.00, -0.00, -1.00, 365.4, 3.0)">e</text><text xml:space="preserve" font-family="Helvetica-Light,Helvetica" font-size="27.7" fill="#000000" transform="matrix(1.00, 0.00, -0.00, -1.00, 380.8, 3.0)"> </text><text xml:space="preserve" font-family="Helvetica-Light,Helvetica" font-size="27.7" fill="#000000" transform="matrix(1.00, 0.00, -0.00, -1.00, 388.5, 3.0)">w</text><text xml:space="preserve" font-family="Helvetica-Light,Helvetica" font-size="27.7" fill="#000000" transform="matrix(1.00, 0.00, -0.00, -1.00, 408.5, 3.0)">i</text><text xml:space="preserve" font-family="Helvetica-Light,Helvetica" font-size="27.7" fill="#000000" transform="matrix(1.00, 0.00, -0.00, -1.00, 414.7, 3.0)">l</text><text xml:space="preserve" font-family="Helvetica-Light,Helvetica" font-size="27.7" fill="#000000" transform="matrix(1.00, 0.00, -0.00, -1.00, 420.9, 3.0)">l</text><text xml:space="preserve" font-family="Helvetica-Light,Helvetica" font-size="27.7" fill="#000000" transform="matrix(1.00, 0.00, -0.00, -1.00, 427.0, 3.0)"> </text><text xml:space="preserve" font-family="Helvetica-Light,Helvetica" font-size="27.7" fill="#000000" transform="matrix(1.00, 0.00, -0.00, -1.00, 434.7, 3.0)">b</text><text xml:space="preserve" font-family="Helvetica-Light,Helvetica" font-size="27.7" fill="#000000" transform="matrix(1.00, 0.00, -0.00, -1.00, 451.6, 3.0)">e</text><text xml:space="preserve" font-family="Helvetica-Light,Helvetica" font-size="27.7" fill="#000000" transform="matrix(1.00, 0.00, -0.00, -1.00, 467.1, 3.0)"> </text><text xml:space="preserve" font-family="Helvetica-Light,Helvetica" font-size="27.7" fill="#000000" transform="matrix(1.00, 0.00, -0.00, -1.00, 474.8, 3.0)">b</text><text xml:space="preserve" font-family="Helvetica-Light,Helvetica" font-size="27.7" fill="#000000" transform="matrix(1.00, 0.00, -0.00, -1.00, 491.7, 3.0)">e</text><text xml:space="preserve" font-family="Helvetica-Light,Helvetica" font-size="27.7" fill="#000000" transform="matrix(1.00, 0.00, -0.00, -1.00, 507.1, 3.0)">t</text><text xml:space="preserve" font-family="Helvetica-Light,Helvetica" font-size="27.7" fill="#000000" transform="matrix(1.00, 0.00, -0.00, -1.00, 514.8, 3.0)">t</text><text xml:space="preserve" font-family="Helvetica-Light,Helvetica" font-size="27.7" fill="#000000" transform="matrix(1.00, 0.00, -0.00, -1.00, 522.5, 3.0)">e</text><text xml:space="preserve" font-family="Helvetica-Light,Helvetica" font-size="27.7" fill="#000000" transform="matrix(1.00, 0.00, -0.00, -1.00, 537.9, 3.0)">r</text><text xml:space="preserve" font-family="Helvetica-Light,Helvetica" font-size="27.7" fill="#000000" transform="matrix(1.00, 0.00, -0.00, -1.00, 547.2, 3.0)">!</text></g></svg>