<?xml version="1.0" encoding="UTF-8" standalone="no"?><svg xmlns="http://www.w3.org/2000/svg" xmlns:xlink="http://www.w3.org/1999/xlink" clip-rule="evenodd" stroke-miterlimit="10" viewBox="0 0 342 65"><desc>SVG generated by Keynote</desc><defs></defs><g transform="matrix(1.00, 0.00, -0.00, -1.00, 0.0, 65.0)"><text xml:space="preserve" font-family="Helvetica-Light,Helvetica" font-size="20.8" fill="#000000" transform="matrix(1.00, 0.00, -0.00, -1.00, 0.0, 8.9)">•</text><text xml:space="preserve" font-family="Helvetica-Light,Helvetica" font-size="27.7" fill="#000000" transform="matrix(1.00, 0.00, -0.00, -1.00, 26.9, 7.0)">g</text><text xml:space="preserve" font-family="Helvetica-Light,Helvetica" font-size="27.7" fill="#000000" transform="matrix(1.00, 0.00, -0.00, -1.00, 43.9, 7.0)">i</text><text xml:space="preserve" font-family="Helvetica-Light,Helvetica" font-size="27.7" fill="#000000" transform="matrix(1.00, 0.00, -0.00, -1.00, 50.0, 7.0)">t</text><text xml:space="preserve" font-family="Helvetica-Light,Helvetica" font-size="27.7" fill="#000000" transform="matrix(1.00, 0.00, -0.00, -1.00, 57.7, 7.0)">h</text><text xml:space="preserve" font-family="Helvetica-Light,Helvetica" font-size="27.7" fill="#000000" transform="matrix(1.00, 0.00, -0.00, -1.00, 73.2, 7.0)">u</text><text xml:space="preserve" font-family="Helvetica-Light,Helvetica" font-size="27.7" fill="#000000" transform="matrix(1.00, 0.00, -0.00, -1.00, 88.6, 7.0)">b</text><text xml:space="preserve" font-family="Helvetica-Light,Helvetica" font-size="27.7" fill="#000000" transform="matrix(1.00, 0.00, -0.00, -1.00, 105.5, 7.0)">.</text><text xml:space="preserve" font-family="Helvetica-Light,Helvetica" font-size="27.7" fill="#000000" transform="matrix(1.00, 0.00, -0.00, -1.00, 113.2, 7.0)">c</text><text xml:space="preserve" font-family="Helvetica-Light,Helvetica" font-size="27.7" fill="#000000" transform="matrix(1.00, 0.00, -0.00, -1.00, 128.6, 7.0)">o</text><text xml:space="preserve" font-family="Helvetica-Light,Helvetica" font-size="27.7" fill="#000000" transform="matrix(1.00, 0.00, -0.00, -1.00, 144.0, 7.0)">m</text><text xml:space="preserve" font-family="Helvetica-Light,Helvetica" font-size="27.7" fill="#000000" transform="matrix(1.00, 0.00, -0.00, -1.00, 167.1, 7.0)">/</text><text xml:space="preserve" font-family="Helvetica-Light,Helvetica" font-size="27.7" fill="#000000" transform="matrix(1.00, 0.00, -0.00, -1.00, 174.8, 7.0)">j</text><text xml:space="preserve" font-family="Helvetica-Light,Helvetica" font-size="27.7" fill="#000000" transform="matrix(1.00, 0.00, -0.00, -1.00, 181.0, 7.0)">a</text><text xml:space="preserve" font-family="Helvetica-Light,Helvetica" font-size="27.7" fill="#000000" transform="matrix(1.00, 0.00, -0.00, -1.00, 196.4, 7.0)">m</text><text xml:space="preserve" font-family="Helvetica-Light,Helvetica" font-size="27.7" fill="#000000" transform="matrix(1.00, 0.00, -0.00, -1.00, 219.5, 7.0)">e</text><text xml:space="preserve" font-family="Helvetica-Light,Helvetica" font-size="27.7" fill="#000000" transform="matrix(1.00, 0.00, -0.00, -1.00, 234.9, 7.0)">s</text><text xml:space="preserve" font-family="Helvetica-Light,Helvetica" font-size="27.7" fill="#000000" transform="matrix(1.00, 0.00, -0.00, -1.00, 248.8, 7.0)">-</text><text xml:space="preserve" font-family="Helvetica-Light,Helvetica" font-size="27.7" fill="#000000" transform="matrix(1.00, 0.00, -0.00, -1.00, 258.0, 7.0)">h</text><text xml:space="preserve" font-family="Helvetica-Light,Helvetica" font-size="27.7" fill="#000000" transform="matrix(1.00, 0.00, -0.00, -1.00, 273.4, 7.0)">u</text><text xml:space="preserve" font-family="Helvetica-Light,Helvetica" font-size="27.7" fill="#000000" transform="matrix(1.00, 0.00, -0.00, -1.00, 288.8, 7.0)">s</text><text xml:space="preserve" font-family="Helvetica-Light,Helvetica" font-size="27.7" fill="#000000" transform="matrix(1.00, 0.00, -0.00, -1.00, 302.7, 7.0)">t</text><text xml:space="preserve" font-family="Helvetica-Light,Helvetica" font-size="27.7" fill="#000000" transform="matrix(1.00, 0.00, -0.00, -1.00, 310.4, 7.0)">o</text><text xml:space="preserve" font-family="Helvetica-Light,Helvetica" font-size="27.7" fill="#000000" transform="matrix(1.00, 0.00, -0.00, -1.00, 325.8, 7.0)">n</text><g><clipPath id="clip0x600001aa6120"><path d="M 25.9 3.2 L 341.2 3.2 L 341.2 6.6 L 25.9 6.6 Z M 25.9 3.2 "></path></clipPath><g clip-path="url(#clip0x600001aa6120)"><path d="M 66.0 484.1 L 380.2 484.1 " fill="none" stroke="#000000" stroke-width="1.39" transform="matrix(1.00, 0.00, 0.00, -1.00, -39.0, 489.0)"></path></g></g></g></svg>