<?xml version="1.0" encoding="UTF-8" standalone="no"?><svg xmlns="http://www.w3.org/2000/svg" xmlns:xlink="http://www.w3.org/1999/xlink" clip-rule="evenodd" stroke-miterlimit="10" viewBox="0 0 862 77"><desc>SVG generated by Keynote</desc><defs></defs><g transform="matrix(1.00, 0.00, -0.00, -1.00, 0.0, 77.0)"><text xml:space="preserve" font-family="Helvetica-Light,Helvetica" font-size="25.1" fill="#000000" transform="matrix(1.00, 0.00, -0.00, -1.00, 0.0, 53.2)">•</text><text xml:space="preserve" font-family="Helvetica-Light,Helvetica" font-size="33.5" fill="#000000" transform="matrix(1.00, 0.00, -0.00, -1.00, 32.5, 49.6)">$</text><text xml:space="preserve" font-family="Helvetica-Light,Helvetica" font-size="33.5" fill="#000000" transform="matrix(1.00, 0.00, -0.00, -1.00, 51.2, 49.6)">r</text><text xml:space="preserve" font-family="Helvetica-Light,Helvetica" font-size="33.5" fill="#000000" transform="matrix(1.00, 0.00, -0.00, -1.00, 61.7, 49.6)">o</text><text xml:space="preserve" font-family="Helvetica-Light,Helvetica" font-size="33.5" fill="#000000" transform="matrix(1.00, 0.00, -0.00, -1.00, 80.3, 49.6)">o</text><text xml:space="preserve" font-family="Helvetica-Light,Helvetica" font-size="33.5" fill="#000000" transform="matrix(1.00, 0.00, -0.00, -1.00, 98.9, 49.6)">t</text><text xml:space="preserve" font-family="Helvetica-Light,Helvetica" font-size="33.5" fill="#000000" transform="matrix(1.00, 0.00, -0.00, -1.00, 108.2, 49.6)">S</text><text xml:space="preserve" font-family="Helvetica-Light,Helvetica" font-size="33.5" fill="#000000" transform="matrix(1.00, 0.00, -0.00, -1.00, 128.7, 49.6)">c</text><text xml:space="preserve" font-family="Helvetica-Light,Helvetica" font-size="33.5" fill="#000000" transform="matrix(1.00, 0.00, -0.00, -1.00, 147.3, 49.6)">o</text><text xml:space="preserve" font-family="Helvetica-Light,Helvetica" font-size="33.5" fill="#000000" transform="matrix(1.00, 0.00, -0.00, -1.00, 165.9, 49.6)">p</text><text xml:space="preserve" font-family="Helvetica-Light,Helvetica" font-size="33.5" fill="#000000" transform="matrix(1.00, 0.00, -0.00, -1.00, 186.4, 49.6)">e</text><text xml:space="preserve" font-family="Helvetica-Light,Helvetica" font-size="33.5" fill="#000000" transform="matrix(1.00, 0.00, -0.00, -1.00, 205.0, 49.6)"> </text><text xml:space="preserve" font-family="Helvetica-Light,Helvetica" font-size="33.5" fill="#000000" transform="matrix(1.00, 0.00, -0.00, -1.00, 214.3, 49.6)">i</text><text xml:space="preserve" font-family="Helvetica-Light,Helvetica" font-size="33.5" fill="#000000" transform="matrix(1.00, 0.00, -0.00, -1.00, 221.7, 49.6)">s</text><text xml:space="preserve" font-family="Helvetica-Light,Helvetica" font-size="33.5" fill="#000000" transform="matrix(1.00, 0.00, -0.00, -1.00, 238.5, 49.6)"> </text><text xml:space="preserve" font-family="Helvetica-Light,Helvetica" font-size="33.5" fill="#000000" transform="matrix(1.00, 0.00, -0.00, -1.00, 247.8, 49.6)">t</text><text xml:space="preserve" font-family="Helvetica-Light,Helvetica" font-size="33.5" fill="#000000" transform="matrix(1.00, 0.00, -0.00, -1.00, 257.1, 49.6)">h</text><text xml:space="preserve" font-family="Helvetica-Light,Helvetica" font-size="33.5" fill="#000000" transform="matrix(1.00, 0.00, -0.00, -1.00, 275.7, 49.6)">e</text><text xml:space="preserve" font-family="Helvetica-Light,Helvetica" font-size="33.5" fill="#000000" transform="matrix(1.00, 0.00, -0.00, -1.00, 294.3, 49.6)"> </text><text xml:space="preserve" font-family="Helvetica-Light,Helvetica" font-size="33.5" fill="#000000" transform="matrix(1.00, 0.00, -0.00, -1.00, 303.6, 49.6)">t</text><text xml:space="preserve" font-family="Helvetica-Light,Helvetica" font-size="33.5" fill="#000000" transform="matrix(1.00, 0.00, -0.00, -1.00, 312.9, 49.6)">o</text><text xml:space="preserve" font-family="Helvetica-Light,Helvetica" font-size="33.5" fill="#000000" transform="matrix(1.00, 0.00, -0.00, -1.00, 331.6, 49.6)">p</text><text xml:space="preserve" font-family="Helvetica-Light,Helvetica" font-size="33.5" fill="#000000" transform="matrix(1.00, 0.00, -0.00, -1.00, 352.0, 49.6)"> </text><text xml:space="preserve" font-family="Helvetica-Light,Helvetica" font-size="33.5" fill="#000000" transform="matrix(1.00, 0.00, -0.00, -1.00, 361.3, 49.6)">l</text><text xml:space="preserve" font-family="Helvetica-Light,Helvetica" font-size="33.5" fill="#000000" transform="matrix(1.00, 0.00, -0.00, -1.00, 368.8, 49.6)">e</text><text xml:space="preserve" font-family="Helvetica-Light,Helvetica" font-size="33.5" fill="#000000" transform="matrix(1.00, 0.00, -0.00, -1.00, 387.4, 49.6)">v</text><text xml:space="preserve" font-family="Helvetica-Light,Helvetica" font-size="33.5" fill="#000000" transform="matrix(1.00, 0.00, -0.00, -1.00, 404.1, 49.6)">e</text><text xml:space="preserve" font-family="Helvetica-Light,Helvetica" font-size="33.5" fill="#000000" transform="matrix(1.00, 0.00, -0.00, -1.00, 422.7, 49.6)">l</text><text xml:space="preserve" font-family="Helvetica-Light,Helvetica" font-size="33.5" fill="#000000" transform="matrix(1.00, 0.00, -0.00, -1.00, 430.2, 49.6)"> </text><text xml:space="preserve" font-family="Helvetica-Light,Helvetica" font-size="33.5" fill="#000000" transform="matrix(1.00, 0.00, -0.00, -1.00, 439.5, 49.6)">s</text><text xml:space="preserve" font-family="Helvetica-Light,Helvetica" font-size="33.5" fill="#000000" transform="matrix(1.00, 0.00, -0.00, -1.00, 456.2, 49.6)">c</text><text xml:space="preserve" font-family="Helvetica-Light,Helvetica" font-size="33.5" fill="#000000" transform="matrix(1.00, 0.00, -0.00, -1.00, 474.8, 49.6)">o</text><text xml:space="preserve" font-family="Helvetica-Light,Helvetica" font-size="33.5" fill="#000000" transform="matrix(1.00, 0.00, -0.00, -1.00, 493.4, 49.6)">p</text><text xml:space="preserve" font-family="Helvetica-Light,Helvetica" font-size="33.5" fill="#000000" transform="matrix(1.00, 0.00, -0.00, -1.00, 513.9, 49.6)">e</text><text xml:space="preserve" font-family="Helvetica-Light,Helvetica" font-size="33.5" fill="#000000" transform="matrix(1.00, 0.00, -0.00, -1.00, 532.5, 49.6)"> </text><text xml:space="preserve" font-family="Helvetica-Light,Helvetica" font-size="33.5" fill="#000000" transform="matrix(1.00, 0.00, -0.00, -1.00, 541.8, 49.6)">o</text><text xml:space="preserve" font-family="Helvetica-Light,Helvetica" font-size="33.5" fill="#000000" transform="matrix(1.00, 0.00, -0.00, -1.00, 560.4, 49.6)">f</text><text xml:space="preserve" font-family="Helvetica-Light,Helvetica" font-size="33.5" fill="#000000" transform="matrix(1.00, 0.00, -0.00, -1.00, 569.7, 49.6)"> </text><text xml:space="preserve" font-family="Helvetica-Light,Helvetica" font-size="33.5" fill="#000000" transform="matrix(1.00, 0.00, -0.00, -1.00, 579.0, 49.6)">y</text><text xml:space="preserve" font-family="Helvetica-Light,Helvetica" font-size="33.5" fill="#000000" transform="matrix(1.00, 0.00, -0.00, -1.00, 595.8, 49.6)">o</text><text xml:space="preserve" font-family="Helvetica-Light,Helvetica" font-size="33.5" fill="#000000" transform="matrix(1.00, 0.00, -0.00, -1.00, 614.4, 49.6)">u</text><text xml:space="preserve" font-family="Helvetica-Light,Helvetica" font-size="33.5" fill="#000000" transform="matrix(1.00, 0.00, -0.00, -1.00, 633.0, 49.6)"> </text><text xml:space="preserve" font-family="Helvetica-Light,Helvetica" font-size="33.5" fill="#000000" transform="matrix(1.00, 0.00, -0.00, -1.00, 642.3, 49.6)">a</text><text xml:space="preserve" font-family="Helvetica-Light,Helvetica" font-size="33.5" fill="#000000" transform="matrix(1.00, 0.00, -0.00, -1.00, 660.9, 49.6)">p</text><text xml:space="preserve" font-family="Helvetica-Light,Helvetica" font-size="33.5" fill="#000000" transform="matrix(1.00, 0.00, -0.00, -1.00, 681.4, 49.6)">p</text><text xml:space="preserve" font-family="Helvetica-Light,Helvetica" font-size="33.5" fill="#000000" transform="matrix(1.00, 0.00, -0.00, -1.00, 701.8, 49.6)">l</text><text xml:space="preserve" font-family="Helvetica-Light,Helvetica" font-size="33.5" fill="#000000" transform="matrix(1.00, 0.00, -0.00, -1.00, 709.3, 49.6)">i</text><text xml:space="preserve" font-family="Helvetica-Light,Helvetica" font-size="33.5" fill="#000000" transform="matrix(1.00, 0.00, -0.00, -1.00, 716.7, 49.6)">c</text><text xml:space="preserve" font-family="Helvetica-Light,Helvetica" font-size="33.5" fill="#000000" transform="matrix(1.00, 0.00, -0.00, -1.00, 735.3, 49.6)">a</text><text xml:space="preserve" font-family="Helvetica-Light,Helvetica" font-size="33.5" fill="#000000" transform="matrix(1.00, 0.00, -0.00, -1.00, 753.9, 49.6)">t</text><text xml:space="preserve" font-family="Helvetica-Light,Helvetica" font-size="33.5" fill="#000000" transform="matrix(1.00, 0.00, -0.00, -1.00, 763.3, 49.6)">i</text><text xml:space="preserve" font-family="Helvetica-Light,Helvetica" font-size="33.5" fill="#000000" transform="matrix(1.00, 0.00, -0.00, -1.00, 770.7, 49.6)">o</text><text xml:space="preserve" font-family="Helvetica-Light,Helvetica" font-size="33.5" fill="#000000" transform="matrix(1.00, 0.00, -0.00, -1.00, 789.3, 49.6)">n</text><text xml:space="preserve" font-family="Helvetica-Light,Helvetica" font-size="33.5" fill="#000000" transform="matrix(1.00, 0.00, -0.00, -1.00, 807.9, 49.6)">,</text><text xml:space="preserve" font-family="Helvetica-Light,Helvetica" font-size="33.5" fill="#000000" transform="matrix(1.00, 0.00, -0.00, -1.00, 817.2, 49.6)"> </text><text xml:space="preserve" font-family="Helvetica-Light,Helvetica" font-size="33.5" fill="#000000" transform="matrix(1.00, 0.00, -0.00, -1.00, 826.5, 49.6)">a</text><text xml:space="preserve" font-family="Helvetica-Light,Helvetica" font-size="33.5" fill="#000000" transform="matrix(1.00, 0.00, -0.00, -1.00, 845.1, 49.6)">l</text><text xml:space="preserve" font-family="Helvetica-Light,Helvetica" font-size="33.5" fill="#000000" transform="matrix(1.00, 0.00, -0.00, -1.00, 852.6, 49.6)">l</text><text xml:space="preserve" font-family="Helvetica-Light,Helvetica" font-size="33.5" fill="#000000" transform="matrix(1.00, 0.00, -0.00, -1.00, 860.0, 49.6)"> </text><text xml:space="preserve" font-family="Helvetica-Light,Helvetica" font-size="33.5" fill="#000000" transform="matrix(1.00, 0.00, -0.00, -1.00, 32.5, 8.6)">c</text><text xml:space="preserve" font-family="Helvetica-Light,Helvetica" font-size="33.5" fill="#000000" transform="matrix(1.00, 0.00, -0.00, -1.00, 51.2, 8.6)">h</text><text xml:space="preserve" font-family="Helvetica-Light,Helvetica" font-size="33.5" fill="#000000" transform="matrix(1.00, 0.00, -0.00, -1.00, 69.8, 8.6)">i</text><text xml:space="preserve" font-family="Helvetica-Light,Helvetica" font-size="33.5" fill="#000000" transform="matrix(1.00, 0.00, -0.00, -1.00, 77.2, 8.6)">l</text><text xml:space="preserve" font-family="Helvetica-Light,Helvetica" font-size="33.5" fill="#000000" transform="matrix(1.00, 0.00, -0.00, -1.00, 84.6, 8.6)">d</text><text xml:space="preserve" font-family="Helvetica-Light,Helvetica" font-size="33.5" fill="#000000" transform="matrix(1.00, 0.00, -0.00, -1.00, 105.1, 8.6)">r</text><text xml:space="preserve" font-family="Helvetica-Light,Helvetica" font-size="33.5" fill="#000000" transform="matrix(1.00, 0.00, -0.00, -1.00, 115.6, 8.6)">e</text><text xml:space="preserve" font-family="Helvetica-Light,Helvetica" font-size="33.5" fill="#000000" transform="matrix(1.00, 0.00, -0.00, -1.00, 134.3, 8.6)">n</text><text xml:space="preserve" font-family="Helvetica-Light,Helvetica" font-size="33.5" fill="#000000" transform="matrix(1.00, 0.00, -0.00, -1.00, 152.9, 8.6)"> </text><text xml:space="preserve" font-family="Helvetica-Light,Helvetica" font-size="33.5" fill="#000000" transform="matrix(1.00, 0.00, -0.00, -1.00, 162.2, 8.6)">i</text><text xml:space="preserve" font-family="Helvetica-Light,Helvetica" font-size="33.5" fill="#000000" transform="matrix(1.00, 0.00, -0.00, -1.00, 169.6, 8.6)">n</text><text xml:space="preserve" font-family="Helvetica-Light,Helvetica" font-size="33.5" fill="#000000" transform="matrix(1.00, 0.00, -0.00, -1.00, 188.2, 8.6)">s</text><text xml:space="preserve" font-family="Helvetica-Light,Helvetica" font-size="33.5" fill="#000000" transform="matrix(1.00, 0.00, -0.00, -1.00, 205.0, 8.6)">t</text><text xml:space="preserve" font-family="Helvetica-Light,Helvetica" font-size="33.5" fill="#000000" transform="matrix(1.00, 0.00, -0.00, -1.00, 214.3, 8.6)">a</text><text xml:space="preserve" font-family="Helvetica-Light,Helvetica" font-size="33.5" fill="#000000" transform="matrix(1.00, 0.00, -0.00, -1.00, 232.9, 8.6)">n</text><text xml:space="preserve" font-family="Helvetica-Light,Helvetica" font-size="33.5" fill="#000000" transform="matrix(1.00, 0.00, -0.00, -1.00, 251.5, 8.6)">c</text><text xml:space="preserve" font-family="Helvetica-Light,Helvetica" font-size="33.5" fill="#000000" transform="matrix(1.00, 0.00, -0.00, -1.00, 270.1, 8.6)">e</text><text xml:space="preserve" font-family="Helvetica-Light,Helvetica" font-size="33.5" fill="#000000" transform="matrix(1.00, 0.00, -0.00, -1.00, 288.7, 8.6)">s</text><text xml:space="preserve" font-family="Helvetica-Light,Helvetica" font-size="33.5" fill="#000000" transform="matrix(1.00, 0.00, -0.00, -1.00, 305.5, 8.6)"> </text><text xml:space="preserve" font-family="Helvetica-Light,Helvetica" font-size="33.5" fill="#000000" transform="matrix(1.00, 0.00, -0.00, -1.00, 314.8, 8.6)">o</text><text xml:space="preserve" font-family="Helvetica-Light,Helvetica" font-size="33.5" fill="#000000" transform="matrix(1.00, 0.00, -0.00, -1.00, 333.4, 8.6)">f</text><text xml:space="preserve" font-family="Helvetica-Light,Helvetica" font-size="33.5" fill="#000000" transform="matrix(1.00, 0.00, -0.00, -1.00, 342.7, 8.6)"> </text><text xml:space="preserve" font-family="Helvetica-Light,Helvetica" font-size="33.5" fill="#000000" transform="matrix(1.00, 0.00, -0.00, -1.00, 352.0, 8.6)">$</text><text xml:space="preserve" font-family="Helvetica-Light,Helvetica" font-size="33.5" fill="#000000" transform="matrix(1.00, 0.00, -0.00, -1.00, 370.6, 8.6)">s</text><text xml:space="preserve" font-family="Helvetica-Light,Helvetica" font-size="33.5" fill="#000000" transform="matrix(1.00, 0.00, -0.00, -1.00, 387.4, 8.6)">c</text><text xml:space="preserve" font-family="Helvetica-Light,Helvetica" font-size="33.5" fill="#000000" transform="matrix(1.00, 0.00, -0.00, -1.00, 406.0, 8.6)">o</text><text xml:space="preserve" font-family="Helvetica-Light,Helvetica" font-size="33.5" fill="#000000" transform="matrix(1.00, 0.00, -0.00, -1.00, 424.6, 8.6)">p</text><text xml:space="preserve" font-family="Helvetica-Light,Helvetica" font-size="33.5" fill="#000000" transform="matrix(1.00, 0.00, -0.00, -1.00, 445.1, 8.6)">e</text><text xml:space="preserve" font-family="Helvetica-Light,Helvetica" font-size="33.5" fill="#000000" transform="matrix(1.00, 0.00, -0.00, -1.00, 463.7, 8.6)"> </text><text xml:space="preserve" font-family="Helvetica-Light,Helvetica" font-size="33.5" fill="#000000" transform="matrix(1.00, 0.00, -0.00, -1.00, 473.0, 8.6)">i</text><text xml:space="preserve" font-family="Helvetica-Light,Helvetica" font-size="33.5" fill="#000000" transform="matrix(1.00, 0.00, -0.00, -1.00, 480.4, 8.6)">n</text><text xml:space="preserve" font-family="Helvetica-Light,Helvetica" font-size="33.5" fill="#000000" transform="matrix(1.00, 0.00, -0.00, -1.00, 499.0, 8.6)">h</text><text xml:space="preserve" font-family="Helvetica-Light,Helvetica" font-size="33.5" fill="#000000" transform="matrix(1.00, 0.00, -0.00, -1.00, 517.6, 8.6)">e</text><text xml:space="preserve" font-family="Helvetica-Light,Helvetica" font-size="33.5" fill="#000000" transform="matrix(1.00, 0.00, -0.00, -1.00, 536.3, 8.6)">r</text><text xml:space="preserve" font-family="Helvetica-Light,Helvetica" font-size="33.5" fill="#000000" transform="matrix(1.00, 0.00, -0.00, -1.00, 547.4, 8.6)">i</text><text xml:space="preserve" font-family="Helvetica-Light,Helvetica" font-size="33.5" fill="#000000" transform="matrix(1.00, 0.00, -0.00, -1.00, 554.8, 8.6)">t</text><text xml:space="preserve" font-family="Helvetica-Light,Helvetica" font-size="33.5" fill="#000000" transform="matrix(1.00, 0.00, -0.00, -1.00, 564.1, 8.6)"> </text><text xml:space="preserve" font-family="Helvetica-Light,Helvetica" font-size="33.5" fill="#000000" transform="matrix(1.00, 0.00, -0.00, -1.00, 573.5, 8.6)">f</text><text xml:space="preserve" font-family="Helvetica-Light,Helvetica" font-size="33.5" fill="#000000" transform="matrix(1.00, 0.00, -0.00, -1.00, 582.8, 8.6)">r</text><text xml:space="preserve" font-family="Helvetica-Light,Helvetica" font-size="33.5" fill="#000000" transform="matrix(1.00, 0.00, -0.00, -1.00, 593.3, 8.6)">o</text><text xml:space="preserve" font-family="Helvetica-Light,Helvetica" font-size="33.5" fill="#000000" transform="matrix(1.00, 0.00, -0.00, -1.00, 611.9, 8.6)">m</text><text xml:space="preserve" font-family="Helvetica-Light,Helvetica" font-size="33.5" fill="#000000" transform="matrix(1.00, 0.00, -0.00, -1.00, 639.8, 8.6)"> </text><text xml:space="preserve" font-family="Helvetica-Light,Helvetica" font-size="33.5" fill="#000000" transform="matrix(1.00, 0.00, -0.00, -1.00, 649.1, 8.6)">i</text><text xml:space="preserve" font-family="Helvetica-Light,Helvetica" font-size="33.5" fill="#000000" transform="matrix(1.00, 0.00, -0.00, -1.00, 656.6, 8.6)">t</text><text xml:space="preserve" font-family="Helvetica-Light,Helvetica" font-size="33.5" fill="#000000" transform="matrix(1.00, 0.00, -0.00, -1.00, 665.9, 8.6)"> </text><text xml:space="preserve" font-family="Helvetica-Light,Helvetica" font-size="33.5" fill="#000000" transform="matrix(1.00, 0.00, -0.00, -1.00, 675.2, 8.6)">b</text><text xml:space="preserve" font-family="Helvetica-Light,Helvetica" font-size="33.5" fill="#000000" transform="matrix(1.00, 0.00, -0.00, -1.00, 695.6, 8.6)">y</text><text xml:space="preserve" font-family="Helvetica-Light,Helvetica" font-size="33.5" fill="#000000" transform="matrix(1.00, 0.00, -0.00, -1.00, 712.4, 8.6)"> </text><text xml:space="preserve" font-family="Helvetica-Light,Helvetica" font-size="33.5" fill="#000000" transform="matrix(1.00, 0.00, -0.00, -1.00, 721.7, 8.6)">d</text><text xml:space="preserve" font-family="Helvetica-Light,Helvetica" font-size="33.5" fill="#000000" transform="matrix(1.00, 0.00, -0.00, -1.00, 742.1, 8.6)">e</text><text xml:space="preserve" font-family="Helvetica-Light,Helvetica" font-size="33.5" fill="#000000" transform="matrix(1.00, 0.00, -0.00, -1.00, 760.7, 8.6)">f</text><text xml:space="preserve" font-family="Helvetica-Light,Helvetica" font-size="33.5" fill="#000000" transform="matrix(1.00, 0.00, -0.00, -1.00, 770.0, 8.6)">a</text><text xml:space="preserve" font-family="Helvetica-Light,Helvetica" font-size="33.5" fill="#000000" transform="matrix(1.00, 0.00, -0.00, -1.00, 788.7, 8.6)">u</text><text xml:space="preserve" font-family="Helvetica-Light,Helvetica" font-size="33.5" fill="#000000" transform="matrix(1.00, 0.00, -0.00, -1.00, 807.3, 8.6)">l</text><text xml:space="preserve" font-family="Helvetica-Light,Helvetica" font-size="33.5" fill="#000000" transform="matrix(1.00, 0.00, -0.00, -1.00, 814.7, 8.6)">t</text><text xml:space="preserve" font-family="Helvetica-Light,Helvetica" font-size="33.5" fill="#000000" transform="matrix(1.00, 0.00, -0.00, -1.00, 824.0, 8.6)">.</text></g></svg>