<?xml version="1.0" encoding="UTF-8" standalone="no"?><svg xmlns="http://www.w3.org/2000/svg" xmlns:xlink="http://www.w3.org/1999/xlink" clip-rule="evenodd" stroke-miterlimit="10" viewBox="0 0 847 141"><desc>SVG generated by Keynote</desc><defs></defs><g transform="matrix(1.00, 0.00, -0.00, -1.00, 0.0, 141.0)"><path d="M 2.5 138.5 L 844.5 138.5 L 844.5 1.5 L 2.5 1.5 Z M 2.3 138.5 " fill="#DCDDE0"></path><path d="M 0.2 0.0 L 842.2 0.0 L 842.2 137.0 L 0.2 137.0 Z M 0.0 0.0 " fill="none" stroke="#000000" stroke-width="1.00" transform="matrix(1.00, 0.00, 0.00, -1.00, 2.3, 138.5)"></path><g><clipPath id="clip0x6080016a69c0"><path d="M 0.1 -0.7 L 846.9 -0.7 L 846.9 140.8 L 0.1 140.8 Z M 0.1 -0.7 "></path></clipPath><g clip-path="url(#clip0x6080016a69c0)"><text xml:space="preserve" font-family="Courier,Courier" font-size="27.0" fill="#000000" transform="matrix(1.00, 0.00, -0.00, -1.00, 6.8, 108.6)">a</text><text xml:space="preserve" font-family="Courier,Courier" font-size="27.0" fill="#000000" transform="matrix(1.00, 0.00, -0.00, -1.00, 23.0, 108.6)">n</text><text xml:space="preserve" font-family="Courier,Courier" font-size="27.0" fill="#000000" transform="matrix(1.00, 0.00, -0.00, -1.00, 39.3, 108.6)">g</text><text xml:space="preserve" font-family="Courier,Courier" font-size="27.0" fill="#000000" transform="matrix(1.00, 0.00, -0.00, -1.00, 55.5, 108.6)">u</text><text xml:space="preserve" font-family="Courier,Courier" font-size="27.0" fill="#000000" transform="matrix(1.00, 0.00, -0.00, -1.00, 71.7, 108.6)">l</text><text xml:space="preserve" font-family="Courier,Courier" font-size="27.0" fill="#000000" transform="matrix(1.00, 0.00, -0.00, -1.00, 87.9, 108.6)">a</text><text xml:space="preserve" font-family="Courier,Courier" font-size="27.0" fill="#000000" transform="matrix(1.00, 0.00, -0.00, -1.00, 104.1, 108.6)">r</text><text xml:space="preserve" font-family="Courier,Courier" font-size="27.0" fill="#000000" transform="matrix(1.00, 0.00, -0.00, -1.00, 120.3, 108.6)">.</text><text xml:space="preserve" font-family="Courier,Courier" font-size="27.0" fill="#000000" transform="matrix(1.00, 0.00, -0.00, -1.00, 136.5, 108.6)">m</text><text xml:space="preserve" font-family="Courier,Courier" font-size="27.0" fill="#000000" transform="matrix(1.00, 0.00, -0.00, -1.00, 152.7, 108.6)">o</text><text xml:space="preserve" font-family="Courier,Courier" font-size="27.0" fill="#000000" transform="matrix(1.00, 0.00, -0.00, -1.00, 168.9, 108.6)">d</text><text xml:space="preserve" font-family="Courier,Courier" font-size="27.0" fill="#000000" transform="matrix(1.00, 0.00, -0.00, -1.00, 185.1, 108.6)">u</text><text xml:space="preserve" font-family="Courier,Courier" font-size="27.0" fill="#000000" transform="matrix(1.00, 0.00, -0.00, -1.00, 201.3, 108.6)">l</text><text xml:space="preserve" font-family="Courier,Courier" font-size="27.0" fill="#000000" transform="matrix(1.00, 0.00, -0.00, -1.00, 217.5, 108.6)">e</text><text xml:space="preserve" font-family="Courier,Courier" font-size="27.0" fill="#000000" transform="matrix(1.00, 0.00, -0.00, -1.00, 233.7, 108.6)">(</text><text xml:space="preserve" font-family="Courier,Courier" font-size="27.0" fill="#000000" transform="matrix(1.00, 0.00, -0.00, -1.00, 249.9, 108.6)">‘</text><text xml:space="preserve" font-family="Courier,Courier" font-size="27.0" fill="#000000" transform="matrix(1.00, 0.00, -0.00, -1.00, 266.1, 108.6)">M</text><text xml:space="preserve" font-family="Courier,Courier" font-size="27.0" fill="#000000" transform="matrix(1.00, 0.00, -0.00, -1.00, 282.3, 108.6)">y</text><text xml:space="preserve" font-family="Courier,Courier" font-size="27.0" fill="#000000" transform="matrix(1.00, 0.00, -0.00, -1.00, 298.5, 108.6)">A</text><text xml:space="preserve" font-family="Courier,Courier" font-size="27.0" fill="#000000" transform="matrix(1.00, 0.00, -0.00, -1.00, 314.7, 108.6)">p</text><text xml:space="preserve" font-family="Courier,Courier" font-size="27.0" fill="#000000" transform="matrix(1.00, 0.00, -0.00, -1.00, 330.9, 108.6)">p</text><text xml:space="preserve" font-family="Courier,Courier" font-size="27.0" fill="#000000" transform="matrix(1.00, 0.00, -0.00, -1.00, 347.1, 108.6)">’</text><text xml:space="preserve" font-family="Courier,Courier" font-size="27.0" fill="#000000" transform="matrix(1.00, 0.00, -0.00, -1.00, 363.3, 108.6)">)</text><text xml:space="preserve" font-family="Courier,Courier" font-size="27.0" fill="#000000" transform="matrix(1.00, 0.00, -0.00, -1.00, 6.8, 76.6)">.</text><text xml:space="preserve" font-family="Courier,Courier" font-size="27.0" fill="#000000" transform="matrix(1.00, 0.00, -0.00, -1.00, 23.0, 76.6)">c</text><text xml:space="preserve" font-family="Courier,Courier" font-size="27.0" fill="#000000" transform="matrix(1.00, 0.00, -0.00, -1.00, 39.3, 76.6)">o</text><text xml:space="preserve" font-family="Courier,Courier" font-size="27.0" fill="#000000" transform="matrix(1.00, 0.00, -0.00, -1.00, 55.5, 76.6)">n</text><text xml:space="preserve" font-family="Courier,Courier" font-size="27.0" fill="#000000" transform="matrix(1.00, 0.00, -0.00, -1.00, 71.7, 76.6)">t</text><text xml:space="preserve" font-family="Courier,Courier" font-size="27.0" fill="#000000" transform="matrix(1.00, 0.00, -0.00, -1.00, 87.9, 76.6)">r</text><text xml:space="preserve" font-family="Courier,Courier" font-size="27.0" fill="#000000" transform="matrix(1.00, 0.00, -0.00, -1.00, 104.1, 76.6)">o</text><text xml:space="preserve" font-family="Courier,Courier" font-size="27.0" fill="#000000" transform="matrix(1.00, 0.00, -0.00, -1.00, 120.3, 76.6)">l</text><text xml:space="preserve" font-family="Courier,Courier" font-size="27.0" fill="#000000" transform="matrix(1.00, 0.00, -0.00, -1.00, 136.5, 76.6)">l</text><text xml:space="preserve" font-family="Courier,Courier" font-size="27.0" fill="#000000" transform="matrix(1.00, 0.00, -0.00, -1.00, 152.7, 76.6)">e</text><text xml:space="preserve" font-family="Courier,Courier" font-size="27.0" fill="#000000" transform="matrix(1.00, 0.00, -0.00, -1.00, 168.9, 76.6)">r</text><text xml:space="preserve" font-family="Courier,Courier" font-size="27.0" fill="#000000" transform="matrix(1.00, 0.00, -0.00, -1.00, 185.1, 76.6)">(</text><text xml:space="preserve" font-family="Courier,Courier" font-size="27.0" fill="#000000" transform="matrix(1.00, 0.00, -0.00, -1.00, 201.3, 76.6)">‘</text><text xml:space="preserve" font-family="Courier,Courier" font-size="27.0" fill="#000000" transform="matrix(1.00, 0.00, -0.00, -1.00, 217.5, 76.6)">M</text><text xml:space="preserve" font-family="Courier,Courier" font-size="27.0" fill="#000000" transform="matrix(1.00, 0.00, -0.00, -1.00, 233.7, 76.6)">y</text><text xml:space="preserve" font-family="Courier,Courier" font-size="27.0" fill="#000000" transform="matrix(1.00, 0.00, -0.00, -1.00, 249.9, 76.6)">C</text><text xml:space="preserve" font-family="Courier,Courier" font-size="27.0" fill="#000000" transform="matrix(1.00, 0.00, -0.00, -1.00, 266.1, 76.6)">o</text><text xml:space="preserve" font-family="Courier,Courier" font-size="27.0" fill="#000000" transform="matrix(1.00, 0.00, -0.00, -1.00, 282.3, 76.6)">n</text><text xml:space="preserve" font-family="Courier,Courier" font-size="27.0" fill="#000000" transform="matrix(1.00, 0.00, -0.00, -1.00, 298.5, 76.6)">t</text><text xml:space="preserve" font-family="Courier,Courier" font-size="27.0" fill="#000000" transform="matrix(1.00, 0.00, -0.00, -1.00, 314.7, 76.6)">r</text><text xml:space="preserve" font-family="Courier,Courier" font-size="27.0" fill="#000000" transform="matrix(1.00, 0.00, -0.00, -1.00, 330.9, 76.6)">o</text><text xml:space="preserve" font-family="Courier,Courier" font-size="27.0" fill="#000000" transform="matrix(1.00, 0.00, -0.00, -1.00, 347.1, 76.6)">l</text><text xml:space="preserve" font-family="Courier,Courier" font-size="27.0" fill="#000000" transform="matrix(1.00, 0.00, -0.00, -1.00, 363.3, 76.6)">l</text><text xml:space="preserve" font-family="Courier,Courier" font-size="27.0" fill="#000000" transform="matrix(1.00, 0.00, -0.00, -1.00, 379.5, 76.6)">e</text><text xml:space="preserve" font-family="Courier,Courier" font-size="27.0" fill="#000000" transform="matrix(1.00, 0.00, -0.00, -1.00, 395.7, 76.6)">r</text><text xml:space="preserve" font-family="Courier,Courier" font-size="27.0" fill="#000000" transform="matrix(1.00, 0.00, -0.00, -1.00, 411.9, 76.6)">’</text><text xml:space="preserve" font-family="Courier,Courier" font-size="27.0" fill="#000000" transform="matrix(1.00, 0.00, -0.00, -1.00, 428.1, 76.6)">,</text><text xml:space="preserve" font-family="Courier,Courier" font-size="27.0" fill="#000000" transform="matrix(1.00, 0.00, -0.00, -1.00, 444.3, 76.6)"> </text><text xml:space="preserve" font-family="Courier,Courier" font-size="27.0" fill="#000000" transform="matrix(1.00, 0.00, -0.00, -1.00, 460.5, 76.6)">f</text><text xml:space="preserve" font-family="Courier,Courier" font-size="27.0" fill="#000000" transform="matrix(1.00, 0.00, -0.00, -1.00, 476.7, 76.6)">u</text><text xml:space="preserve" font-family="Courier,Courier" font-size="27.0" fill="#000000" transform="matrix(1.00, 0.00, -0.00, -1.00, 492.9, 76.6)">n</text><text xml:space="preserve" font-family="Courier,Courier" font-size="27.0" fill="#000000" transform="matrix(1.00, 0.00, -0.00, -1.00, 509.1, 76.6)">c</text><text xml:space="preserve" font-family="Courier,Courier" font-size="27.0" fill="#000000" transform="matrix(1.00, 0.00, -0.00, -1.00, 525.3, 76.6)">t</text><text xml:space="preserve" font-family="Courier,Courier" font-size="27.0" fill="#000000" transform="matrix(1.00, 0.00, -0.00, -1.00, 541.5, 76.6)">i</text><text xml:space="preserve" font-family="Courier,Courier" font-size="27.0" fill="#000000" transform="matrix(1.00, 0.00, -0.00, -1.00, 557.7, 76.6)">o</text><text xml:space="preserve" font-family="Courier,Courier" font-size="27.0" fill="#000000" transform="matrix(1.00, 0.00, -0.00, -1.00, 573.9, 76.6)">n</text><text xml:space="preserve" font-family="Courier,Courier" font-size="27.0" fill="#000000" transform="matrix(1.00, 0.00, -0.00, -1.00, 590.1, 76.6)"> </text><text xml:space="preserve" font-family="Courier,Courier" font-size="27.0" fill="#000000" transform="matrix(1.00, 0.00, -0.00, -1.00, 606.3, 76.6)">(</text><text xml:space="preserve" font-family="Courier,Courier" font-size="27.0" fill="#000000" transform="matrix(1.00, 0.00, -0.00, -1.00, 622.6, 76.6)">$</text><text xml:space="preserve" font-family="Courier,Courier" font-size="27.0" fill="#000000" transform="matrix(1.00, 0.00, -0.00, -1.00, 638.8, 76.6)">s</text><text xml:space="preserve" font-family="Courier,Courier" font-size="27.0" fill="#000000" transform="matrix(1.00, 0.00, -0.00, -1.00, 655.0, 76.6)">c</text><text xml:space="preserve" font-family="Courier,Courier" font-size="27.0" fill="#000000" transform="matrix(1.00, 0.00, -0.00, -1.00, 671.2, 76.6)">o</text><text xml:space="preserve" font-family="Courier,Courier" font-size="27.0" fill="#000000" transform="matrix(1.00, 0.00, -0.00, -1.00, 687.4, 76.6)">p</text><text xml:space="preserve" font-family="Courier,Courier" font-size="27.0" fill="#000000" transform="matrix(1.00, 0.00, -0.00, -1.00, 703.6, 76.6)">e</text><text xml:space="preserve" font-family="Courier,Courier" font-size="27.0" fill="#000000" transform="matrix(1.00, 0.00, -0.00, -1.00, 719.8, 76.6)">)</text><text xml:space="preserve" font-family="Courier,Courier" font-size="27.0" fill="#000000" transform="matrix(1.00, 0.00, -0.00, -1.00, 736.0, 76.6)"> </text><text xml:space="preserve" font-family="Courier,Courier" font-size="27.0" fill="#000000" transform="matrix(1.00, 0.00, -0.00, -1.00, 752.2, 76.6)">{</text><text xml:space="preserve" font-family="Courier,Courier" font-size="27.0" fill="#000000" transform="matrix(1.00, 0.00, -0.00, -1.00, 6.8, 44.6)"> </text><text xml:space="preserve" font-family="Courier,Courier" font-size="27.0" fill="#000000" transform="matrix(1.00, 0.00, -0.00, -1.00, 23.1, 44.6)"> </text><text xml:space="preserve" font-family="Courier,Courier" font-size="27.0" fill="#000000" transform="matrix(1.00, 0.00, -0.00, -1.00, 39.3, 44.6)">$</text><text xml:space="preserve" font-family="Courier,Courier" font-size="27.0" fill="#000000" transform="matrix(1.00, 0.00, -0.00, -1.00, 55.5, 44.6)">s</text><text xml:space="preserve" font-family="Courier,Courier" font-size="27.0" fill="#000000" transform="matrix(1.00, 0.00, -0.00, -1.00, 71.7, 44.6)">c</text><text xml:space="preserve" font-family="Courier,Courier" font-size="27.0" fill="#000000" transform="matrix(1.00, 0.00, -0.00, -1.00, 87.9, 44.6)">o</text><text xml:space="preserve" font-family="Courier,Courier" font-size="27.0" fill="#000000" transform="matrix(1.00, 0.00, -0.00, -1.00, 104.1, 44.6)">p</text><text xml:space="preserve" font-family="Courier,Courier" font-size="27.0" fill="#000000" transform="matrix(1.00, 0.00, -0.00, -1.00, 120.3, 44.6)">e</text><text xml:space="preserve" font-family="Courier,Courier" font-size="27.0" fill="#000000" transform="matrix(1.00, 0.00, -0.00, -1.00, 136.5, 44.6)">.</text><text xml:space="preserve" font-family="Courier,Courier" font-size="27.0" fill="#000000" transform="matrix(1.00, 0.00, -0.00, -1.00, 152.7, 44.6)">t</text><text xml:space="preserve" font-family="Courier,Courier" font-size="27.0" fill="#000000" transform="matrix(1.00, 0.00, -0.00, -1.00, 168.9, 44.6)">e</text><text xml:space="preserve" font-family="Courier,Courier" font-size="27.0" fill="#000000" transform="matrix(1.00, 0.00, -0.00, -1.00, 185.1, 44.6)">s</text><text xml:space="preserve" font-family="Courier,Courier" font-size="27.0" fill="#000000" transform="matrix(1.00, 0.00, -0.00, -1.00, 201.3, 44.6)">t</text><text xml:space="preserve" font-family="Courier,Courier" font-size="27.0" fill="#000000" transform="matrix(1.00, 0.00, -0.00, -1.00, 217.5, 44.6)">V</text><text xml:space="preserve" font-family="Courier,Courier" font-size="27.0" fill="#000000" transform="matrix(1.00, 0.00, -0.00, -1.00, 233.7, 44.6)">a</text><text xml:space="preserve" font-family="Courier,Courier" font-size="27.0" fill="#000000" transform="matrix(1.00, 0.00, -0.00, -1.00, 249.9, 44.6)">l</text><text xml:space="preserve" font-family="Courier,Courier" font-size="27.0" fill="#000000" transform="matrix(1.00, 0.00, -0.00, -1.00, 266.1, 44.6)">u</text><text xml:space="preserve" font-family="Courier,Courier" font-size="27.0" fill="#000000" transform="matrix(1.00, 0.00, -0.00, -1.00, 282.3, 44.6)">e</text><text xml:space="preserve" font-family="Courier,Courier" font-size="27.0" fill="#000000" transform="matrix(1.00, 0.00, -0.00, -1.00, 298.5, 44.6)"> </text><text xml:space="preserve" font-family="Courier,Courier" font-size="27.0" fill="#000000" transform="matrix(1.00, 0.00, -0.00, -1.00, 314.7, 44.6)">=</text><text xml:space="preserve" font-family="Courier,Courier" font-size="27.0" fill="#000000" transform="matrix(1.00, 0.00, -0.00, -1.00, 330.9, 44.6)"> </text><text xml:space="preserve" font-family="Courier,Courier" font-size="27.0" fill="#000000" transform="matrix(1.00, 0.00, -0.00, -1.00, 347.1, 44.6)">‘</text><text xml:space="preserve" font-family="Courier,Courier" font-size="27.0" fill="#000000" transform="matrix(1.00, 0.00, -0.00, -1.00, 363.3, 44.6)">H</text><text xml:space="preserve" font-family="Courier,Courier" font-size="27.0" fill="#000000" transform="matrix(1.00, 0.00, -0.00, -1.00, 379.5, 44.6)">e</text><text xml:space="preserve" font-family="Courier,Courier" font-size="27.0" fill="#000000" transform="matrix(1.00, 0.00, -0.00, -1.00, 395.7, 44.6)">l</text><text xml:space="preserve" font-family="Courier,Courier" font-size="27.0" fill="#000000" transform="matrix(1.00, 0.00, -0.00, -1.00, 411.9, 44.6)">l</text><text xml:space="preserve" font-family="Courier,Courier" font-size="27.0" fill="#000000" transform="matrix(1.00, 0.00, -0.00, -1.00, 428.1, 44.6)">o</text><text xml:space="preserve" font-family="Courier,Courier" font-size="27.0" fill="#000000" transform="matrix(1.00, 0.00, -0.00, -1.00, 444.3, 44.6)"> </text><text xml:space="preserve" font-family="Courier,Courier" font-size="27.0" fill="#000000" transform="matrix(1.00, 0.00, -0.00, -1.00, 460.5, 44.6)">W</text><text xml:space="preserve" font-family="Courier,Courier" font-size="27.0" fill="#000000" transform="matrix(1.00, 0.00, -0.00, -1.00, 476.7, 44.6)">o</text><text xml:space="preserve" font-family="Courier,Courier" font-size="27.0" fill="#000000" transform="matrix(1.00, 0.00, -0.00, -1.00, 492.9, 44.6)">r</text><text xml:space="preserve" font-family="Courier,Courier" font-size="27.0" fill="#000000" transform="matrix(1.00, 0.00, -0.00, -1.00, 509.1, 44.6)">l</text><text xml:space="preserve" font-family="Courier,Courier" font-size="27.0" fill="#000000" transform="matrix(1.00, 0.00, -0.00, -1.00, 525.3, 44.6)">d</text><text xml:space="preserve" font-family="Courier,Courier" font-size="27.0" fill="#000000" transform="matrix(1.00, 0.00, -0.00, -1.00, 541.5, 44.6)">!</text><text xml:space="preserve" font-family="Courier,Courier" font-size="27.0" fill="#000000" transform="matrix(1.00, 0.00, -0.00, -1.00, 557.7, 44.6)">’</text><text xml:space="preserve" font-family="Courier,Courier" font-size="27.0" fill="#000000" transform="matrix(1.00, 0.00, -0.00, -1.00, 574.0, 44.6)">;</text><text xml:space="preserve" font-family="Courier,Courier" font-size="27.0" fill="#000000" transform="matrix(1.00, 0.00, -0.00, -1.00, 6.8, 12.6)">}</text><text xml:space="preserve" font-family="Courier,Courier" font-size="27.0" fill="#000000" transform="matrix(1.00, 0.00, -0.00, -1.00, 23.0, 12.6)">)</text><text xml:space="preserve" font-family="Courier,Courier" font-size="27.0" fill="#000000" transform="matrix(1.00, 0.00, -0.00, -1.00, 39.3, 12.6)">;</text></g></g></g></svg>