<?xml version="1.0" encoding="UTF-8" standalone="no"?><svg xmlns="http://www.w3.org/2000/svg" xmlns:xlink="http://www.w3.org/1999/xlink" clip-rule="evenodd" stroke-miterlimit="10" viewBox="0 0 782 64"><desc>SVG generated by Keynote</desc><defs></defs><g transform="matrix(1.00, 0.00, -0.00, -1.00, 0.0, 64.0)"><text xml:space="preserve" font-family="Helvetica-Light,Helvetica" font-size="64.0" fill="#FEFFFE" transform="matrix(1.00, 0.00, -0.00, -1.00, 0.8, 14.7)">A</text><text xml:space="preserve" font-family="Helvetica-Light,Helvetica" font-size="64.0" fill="#FEFFFE" transform="matrix(1.00, 0.00, -0.00, -1.00, 43.5, 14.7)">n</text><text xml:space="preserve" font-family="Helvetica-Light,Helvetica" font-size="64.0" fill="#FEFFFE" transform="matrix(1.00, 0.00, -0.00, -1.00, 79.0, 14.7)">g</text><text xml:space="preserve" font-family="Helvetica-Light,Helvetica" font-size="64.0" fill="#FEFFFE" transform="matrix(1.00, 0.00, -0.00, -1.00, 118.1, 14.7)">u</text><text xml:space="preserve" font-family="Helvetica-Light,Helvetica" font-size="64.0" fill="#FEFFFE" transform="matrix(1.00, 0.00, -0.00, -1.00, 153.7, 14.7)">l</text><text xml:space="preserve" font-family="Helvetica-Light,Helvetica" font-size="64.0" fill="#FEFFFE" transform="matrix(1.00, 0.00, -0.00, -1.00, 167.9, 14.7)">a</text><text xml:space="preserve" font-family="Helvetica-Light,Helvetica" font-size="64.0" fill="#FEFFFE" transform="matrix(1.00, 0.00, -0.00, -1.00, 203.5, 14.7)">r</text><text xml:space="preserve" font-family="Helvetica-Light,Helvetica" font-size="64.0" fill="#FEFFFE" transform="matrix(1.00, 0.00, -0.00, -1.00, 224.8, 14.7)">J</text><text xml:space="preserve" font-family="Helvetica-Light,Helvetica" font-size="64.0" fill="#FEFFFE" transform="matrix(1.00, 0.00, -0.00, -1.00, 256.8, 14.7)">S</text><text xml:space="preserve" font-family="Helvetica-Light,Helvetica" font-size="64.0" fill="#FEFFFE" transform="matrix(1.00, 0.00, -0.00, -1.00, 295.9, 14.7)"> </text><text xml:space="preserve" font-family="Helvetica-Light,Helvetica" font-size="64.0" fill="#FEFFFE" transform="matrix(1.00, 0.00, -0.00, -1.00, 313.7, 14.7)">-</text><text xml:space="preserve" font-family="Helvetica-Light,Helvetica" font-size="64.0" fill="#FEFFFE" transform="matrix(1.00, 0.00, -0.00, -1.00, 335.0, 14.7)"> </text><text xml:space="preserve" font-family="Helvetica-Light,Helvetica" font-size="64.0" fill="#FEFFFE" transform="matrix(1.00, 0.00, -0.00, -1.00, 352.8, 14.7)">B</text><text xml:space="preserve" font-family="Helvetica-Light,Helvetica" font-size="64.0" fill="#FEFFFE" transform="matrix(1.00, 0.00, -0.00, -1.00, 395.5, 14.7)">e</text><text xml:space="preserve" font-family="Helvetica-Light,Helvetica" font-size="64.0" fill="#FEFFFE" transform="matrix(1.00, 0.00, -0.00, -1.00, 431.1, 14.7)">y</text><text xml:space="preserve" font-family="Helvetica-Light,Helvetica" font-size="64.0" fill="#FEFFFE" transform="matrix(1.00, 0.00, -0.00, -1.00, 463.1, 14.7)">o</text><text xml:space="preserve" font-family="Helvetica-Light,Helvetica" font-size="64.0" fill="#FEFFFE" transform="matrix(1.00, 0.00, -0.00, -1.00, 498.7, 14.7)">n</text><text xml:space="preserve" font-family="Helvetica-Light,Helvetica" font-size="64.0" fill="#FEFFFE" transform="matrix(1.00, 0.00, -0.00, -1.00, 534.3, 14.7)">d</text><text xml:space="preserve" font-family="Helvetica-Light,Helvetica" font-size="64.0" fill="#FEFFFE" transform="matrix(1.00, 0.00, -0.00, -1.00, 573.4, 14.7)"> </text><text xml:space="preserve" font-family="Helvetica-Light,Helvetica" font-size="64.0" fill="#FEFFFE" transform="matrix(1.00, 0.00, -0.00, -1.00, 591.2, 14.7)">B</text><text xml:space="preserve" font-family="Helvetica-Light,Helvetica" font-size="64.0" fill="#FEFFFE" transform="matrix(1.00, 0.00, -0.00, -1.00, 633.9, 14.7)">a</text><text xml:space="preserve" font-family="Helvetica-Light,Helvetica" font-size="64.0" fill="#FEFFFE" transform="matrix(1.00, 0.00, -0.00, -1.00, 669.4, 14.7)">s</text><text xml:space="preserve" font-family="Helvetica-Light,Helvetica" font-size="64.0" fill="#FEFFFE" transform="matrix(1.00, 0.00, -0.00, -1.00, 701.4, 14.7)">i</text><text xml:space="preserve" font-family="Helvetica-Light,Helvetica" font-size="64.0" fill="#FEFFFE" transform="matrix(1.00, 0.00, -0.00, -1.00, 715.6, 14.7)">c</text><text xml:space="preserve" font-family="Helvetica-Light,Helvetica" font-size="64.0" fill="#FEFFFE" transform="matrix(1.00, 0.00, -0.00, -1.00, 751.2, 14.7)">s</text></g></svg>