<?xml version="1.0" encoding="UTF-8" standalone="no"?><svg xmlns="http://www.w3.org/2000/svg" xmlns:xlink="http://www.w3.org/1999/xlink" clip-rule="evenodd" stroke-miterlimit="10" viewBox="0 0 491 52"><desc>SVG generated by Keynote</desc><defs></defs><g transform="matrix(1.00, 0.00, -0.00, -1.00, 0.0, 52.0)"><text xml:space="preserve" font-family="Helvetica-Light,Helvetica" font-size="64.0" fill="#FEFFFE" transform="matrix(1.00, 0.00, -0.00, -1.00, -1.6, 2.7)">C</text><text xml:space="preserve" font-family="Helvetica-Light,Helvetica" font-size="64.0" fill="#FEFFFE" transform="matrix(1.00, 0.00, -0.00, -1.00, 44.6, 2.7)">o</text><text xml:space="preserve" font-family="Helvetica-Light,Helvetica" font-size="64.0" fill="#FEFFFE" transform="matrix(1.00, 0.00, -0.00, -1.00, 80.2, 2.7)">n</text><text xml:space="preserve" font-family="Helvetica-Light,Helvetica" font-size="64.0" fill="#FEFFFE" transform="matrix(1.00, 0.00, -0.00, -1.00, 115.8, 2.7)">t</text><text xml:space="preserve" font-family="Helvetica-Light,Helvetica" font-size="64.0" fill="#FEFFFE" transform="matrix(1.00, 0.00, -0.00, -1.00, 133.6, 2.7)">r</text><text xml:space="preserve" font-family="Helvetica-Light,Helvetica" font-size="64.0" fill="#FEFFFE" transform="matrix(1.00, 0.00, -0.00, -1.00, 153.8, 2.7)">o</text><text xml:space="preserve" font-family="Helvetica-Light,Helvetica" font-size="64.0" fill="#FEFFFE" transform="matrix(1.00, 0.00, -0.00, -1.00, 189.3, 2.7)">l</text><text xml:space="preserve" font-family="Helvetica-Light,Helvetica" font-size="64.0" fill="#FEFFFE" transform="matrix(1.00, 0.00, -0.00, -1.00, 203.6, 2.7)">l</text><text xml:space="preserve" font-family="Helvetica-Light,Helvetica" font-size="64.0" fill="#FEFFFE" transform="matrix(1.00, 0.00, -0.00, -1.00, 217.8, 2.7)">e</text><text xml:space="preserve" font-family="Helvetica-Light,Helvetica" font-size="64.0" fill="#FEFFFE" transform="matrix(1.00, 0.00, -0.00, -1.00, 253.3, 2.7)">r</text><text xml:space="preserve" font-family="Helvetica-Light,Helvetica" font-size="64.0" fill="#FEFFFE" transform="matrix(1.00, 0.00, -0.00, -1.00, 274.7, 2.7)">s</text><text xml:space="preserve" font-family="Helvetica-Light,Helvetica" font-size="64.0" fill="#FEFFFE" transform="matrix(1.00, 0.00, -0.00, -1.00, 306.7, 2.7)"> </text><text xml:space="preserve" font-family="Helvetica-Light,Helvetica" font-size="64.0" fill="#FEFFFE" transform="matrix(1.00, 0.00, -0.00, -1.00, 324.4, 2.7)">a</text><text xml:space="preserve" font-family="Helvetica-Light,Helvetica" font-size="64.0" fill="#FEFFFE" transform="matrix(1.00, 0.00, -0.00, -1.00, 360.0, 2.7)">r</text><text xml:space="preserve" font-family="Helvetica-Light,Helvetica" font-size="64.0" fill="#FEFFFE" transform="matrix(1.00, 0.00, -0.00, -1.00, 380.2, 2.7)">e</text><text xml:space="preserve" font-family="Helvetica-Light,Helvetica" font-size="64.0" fill="#FEFFFE" transform="matrix(1.00, 0.00, -0.00, -1.00, 415.8, 2.7)"> </text><text xml:space="preserve" font-family="Helvetica-Light,Helvetica" font-size="64.0" fill="#FEFFFE" transform="matrix(1.00, 0.00, -0.00, -1.00, 433.6, 2.7)">…</text></g></svg>